<svg width="94" height="113" viewBox="0 0 94 113" fill="none" xmlns="http://www.w3.org/2000/svg">
<path d="M13.204 68.6448L3.69531 46.5486L7.45652 35.5218L16.6694 31.4347V25.8148L19.6276 23.7074H23.0507H25.8399L29.094 25.8148L32.0734 21.0039H35.2641H38.4125L41.7723 25.8148L44.7939 23.7074H47.8578H51.0696L54.3237 25.8148V35.5218L57.134 33.7763H60.1134H62.9026L65.4383 36.2456V60.5131L60.6628 70.8161L57.3665 78.9478V87.3776H24.3186V78.9478L13.204 68.6448Z" fill="#EB7333"/>
<path d="M41.7723 25.8148V41.0139M41.7723 25.8148L38.4125 21.0039H35.2641H32.0734L29.094 25.8148M41.7723 25.8148L44.7939 23.7074H47.8578H51.0696L54.3237 25.8148V39.5664V35.5218L57.134 33.7763H60.1134H62.9026L65.4383 36.2456V60.5131L60.6628 70.8161L57.3665 78.9478V87.3776H24.3186V78.9478L13.204 68.6448L3.69531 46.5486L7.45652 35.5218L16.6694 31.4347M29.094 25.8148V41.0139M29.094 25.8148L25.8399 23.7074H23.0507H19.6276L16.6694 25.8148V31.4347M14.6408 55.7873L16.6694 47.6981V31.4347" stroke="#170800" stroke-width="2"/>
<path d="M78.8945 100.616L65.002 112.313V101.496H13.8926V112.313L0 100.616L13.8926 88.9199V99.4961H65.002V88.9199L78.8945 100.616Z" fill="#EB7333"/>
<path d="M81.6973 95.7676L70.001 81.876L80.8164 81.876L80.8164 13.8926L70.001 13.8926L81.6982 -5.11261e-07L93.3945 13.8926L82.8164 13.8926L82.8164 81.876L93.3945 81.876L81.6973 95.7676Z" fill="#EB7333"/>
</svg>
