<svg width="220" height="220" viewBox="0 0 220 220" fill="none" xmlns="http://www.w3.org/2000/svg">
<rect width="219.321" height="219.321" fill="#EB7333"/>
<path d="M169.321 109.661L109.661 169.321L50 109.661L109.661 50L169.321 109.661ZM107.185 112.295H86.6396V122.562H81.5127V127.696H96.915V122.562H91.7734V117.43H107.185V122.562H102.045V127.696H117.448V122.562H112.319V117.43H127.718V122.562H122.581V127.696H137.984V122.562H132.852V112.295H112.319V107.168H107.185V112.295ZM81.502 96.8965H91.7812V102.03H91.7764V107.165H127.716V96.8965H137.984V91.7627H112.312V96.8965H122.582V102.03H96.915V96.8965H107.174V91.7627H81.502V96.8965Z" fill="#140100"/>
</svg>
