<svg width="634" height="645" viewBox="0 0 634 645" fill="none" xmlns="http://www.w3.org/2000/svg">
<path d="M634 8.50684L619.31 47.9492L610.031 122.194L570.6 201.079L559.003 250.575L433.749 344.928L351.02 414.532L217.261 472.536L170.871 517.393L147.676 598.597L0 645V561.475L17.7832 472.536V389.784L37.8857 344.928L161.593 242.068L203.344 218.34L264.425 165.504L365.71 126.062L389.678 142.302L398.956 185.611L304.629 242.068L235.044 304.712L293.031 295.432L351.02 272.23L398.956 226.601L433.749 211.906L524.21 89.7119V51.043L559.003 13.1475H583.744L601.526 2.32031L613.897 0L634 8.50684Z" fill="#EB7333"/>
<path d="M634 8.50684L619.31 47.9492L610.031 122.194L570.6 201.079L559.003 250.575L433.749 344.928L351.02 414.532L217.261 472.536L170.871 517.393L147.676 598.597L0 645V561.475L17.7832 472.536V389.784L37.8857 344.928L161.593 242.068L203.344 218.34L264.425 165.504L365.71 126.062L389.678 142.302L398.956 185.611L304.629 242.068L235.044 304.712L293.031 295.432L351.02 272.23L398.956 226.601L433.749 211.906L524.21 89.7119V51.043L559.003 13.1475H583.744L601.526 2.32031L613.897 0L634 8.50684Z" stroke="#140100"/>
</svg>
