<svg width="634" height="645" viewBox="0 0 634 645" fill="none" xmlns="http://www.w3.org/2000/svg">
<path d="M0 8.50684L14.6904 47.9492L23.9688 122.194L63.4004 201.079L74.9971 250.575L200.251 344.928L282.98 414.532L416.739 472.536L463.129 517.393L486.324 598.597L634 645V561.475L616.217 472.536V389.784L596.114 344.928L472.407 242.068L430.656 218.34L369.575 165.504L268.29 126.062L244.322 142.302L235.044 185.611L329.371 242.068L398.956 304.712L340.969 295.432L282.98 272.23L235.044 226.601L200.251 211.906L109.79 89.7119V51.043L74.9971 13.1475H50.2559L32.4736 2.32031L20.1025 0L0 8.50684Z" fill="#EB7333"/>
<path d="M0 8.50684L14.6904 47.9492L23.9688 122.194L63.4004 201.079L74.9971 250.575L200.251 344.928L282.98 414.532L416.739 472.536L463.129 517.393L486.324 598.597L634 645V561.475L616.217 472.536V389.784L596.114 344.928L472.407 242.068L430.656 218.34L369.575 165.504L268.29 126.062L244.322 142.302L235.044 185.611L329.371 242.068L398.956 304.712L340.969 295.432L282.98 272.23L235.044 226.601L200.251 211.906L109.79 89.7119V51.043L74.9971 13.1475H50.2559L32.4736 2.32031L20.1025 0L0 8.50684Z" stroke="#140100"/>
</svg>
