<svg width="1548" height="1103" viewBox="0 0 1548 1103" fill="none" xmlns="http://www.w3.org/2000/svg">
<path d="M336 1086.1L325.081 1103H10.9189L0 1086.1L10.9189 1069.19H325.081L336 1086.1ZM297.918 1014.25L289.456 1031.16H280.996V1048.06L302.152 1069.19H33.8477L55.0039 1048.06V1031.16H46.5439L38.082 1014.25L46.5439 997.35H289.456L297.918 1014.25ZM124.775 12.6777H211.225L233.21 0H294.561L322.063 19.0176V59.165L300.907 80.2949H267.059V101.427H272.533V118.331H255.607V135.234H251.377L264.07 980.441H280.996V997.346H55.0039V980.441H71.9297L84.623 135.234H80.3926V118.331H63.4668V101.427H68.9414V80.2949H35.0928L13.9365 59.165V19.0176L41.4395 0H102.79L124.775 12.6777Z" fill="#EB7333"/>
<path d="M942 1086.1L931.081 1103H616.919L606 1086.1L616.919 1069.19H931.081L942 1086.1ZM903.918 1014.25L895.456 1031.16H886.996V1048.06L908.152 1069.19H639.848L661.004 1048.06V1031.16H652.544L644.082 1014.25L652.544 997.35H895.456L903.918 1014.25ZM730.775 12.6777H817.225L839.21 0H900.561L928.063 19.0176V59.165L906.907 80.2949H873.059V101.427H878.533V118.331H861.607V135.234H857.377L870.07 980.441H886.996V997.346H661.004V980.441H677.93L690.623 135.234H686.393V118.331H669.467V101.427H674.941V80.2949H641.093L619.937 59.165V19.0176L647.439 0H708.79L730.775 12.6777Z" fill="#EB7333"/>
<path d="M1548 1086.1L1537.08 1103H1222.92L1212 1086.1L1222.92 1069.19H1537.08L1548 1086.1ZM1509.92 1014.25L1501.46 1031.16H1493V1048.06L1514.15 1069.19H1245.85L1267 1048.06V1031.16H1258.54L1250.08 1014.25L1258.54 997.35H1501.46L1509.92 1014.25ZM1336.78 12.6777H1423.22L1445.21 0H1506.56L1534.06 19.0176V59.165L1512.91 80.2949H1479.06V101.427H1484.53V118.331H1467.61V135.234H1463.38L1476.07 980.441H1493V997.346H1267V980.441H1283.93L1296.62 135.234H1292.39V118.331H1275.47V101.427H1280.94V80.2949H1247.09L1225.94 59.165V19.0176L1253.44 0H1314.79L1336.78 12.6777Z" fill="#EB7333"/>
</svg>
