<svg width="223" height="255" viewBox="0 0 223 255" fill="none" xmlns="http://www.w3.org/2000/svg">
<g clip-path="url(#clip0_1208_11919)">
<path d="M202.59 137.119L190.97 128.025L187.183 117.668L132.114 145.202L114.684 182.841L110.137 209.87L139.691 220.985L159.577 188.608L160.658 212.396L156.111 229.826L139.691 259.381L223.052 258.118L178.34 244.477L192.991 170.968L202.59 137.119Z" fill="#EB7333"/>
<path d="M170.51 148.991L158.89 173.494L159.577 188.608M159.577 188.608L160.658 212.396L156.111 229.826L139.691 259.381L223.052 258.118L178.34 244.477L192.991 170.968L202.59 137.119L190.97 128.025L187.183 117.668L132.114 145.202L114.684 182.841L110.137 209.87L139.691 220.985L159.577 188.608Z" stroke="#140100" stroke-width="2"/>
<path d="M202.849 100.936L213.679 105.395L221.006 114.314L210.812 124.826L199.156 126.667L197.444 130.192L187.228 126.99L183.948 125.962H180.221L171.157 135.329L170.553 142.581L154.455 151.913L142.531 149.926L149.913 126.667L160.985 122.673L171.744 115.502L202.849 100.936Z" fill="#EB7333"/>
<path d="M171.744 115.502L160.985 122.673L149.913 126.667L142.531 149.926L154.455 151.913L170.553 142.581L171.157 135.329L180.221 125.962H183.948L187.228 126.99M171.744 115.502L202.849 100.936L213.679 105.395L221.006 114.314L210.812 124.826L199.156 126.667L197.444 130.192L187.228 126.99M171.744 115.502L183.948 118.915L187.228 126.99" stroke="#140100" stroke-width="2"/>
<path d="M30.3119 258.119L0 260.14L38.3813 222.657L50.2686 236.9V227.553L105.59 197.746L157.374 229.07L162.174 236.9L160.153 247.257L148.281 261.656H102.811L100.538 258.119H47.049H30.3119Z" fill="#EB7333"/>
<path d="M102.811 261.656L100.538 258.119H47.049M102.811 261.656H148.281L160.153 247.257L162.174 236.9L157.374 229.07L105.59 197.746L50.2686 227.553V236.9M102.811 261.656V250.288L105.59 242.457M50.2686 236.9L38.3813 222.657L0 260.14L30.3119 258.119H47.049M50.2686 236.9L52.4999 237.964M105.59 242.457L66.6881 244.731L52.4999 237.964M105.59 242.457L118.978 240.436L130.598 244.731M52.4999 237.964L47.049 247.257V258.119" stroke="#140100" stroke-width="2"/>
<path fill-rule="evenodd" clip-rule="evenodd" d="M177.802 70.9647V64.0899L181.963 59.9288L191.483 54.5118L193.628 38.1566L174.055 19.9238L152.337 22.6054L132.764 36.8159L113.191 49.6858H89.8647L84.5028 45.1277L64.393 47.5408L45.3564 66.0413L21.3795 98.5998L17.2721 115.853L3.7168 136.392V214.441L5.77143 216.906L6.12006 238.322H13.0691L13.3712 240.89L24.4494 241.998L25.5573 231.776L28.1254 231.423L28.7297 226.942L34.0403 222.363L50.1718 247.024L67.7513 220.957L95.6361 204.59L119.254 206.024L126.339 209.738L131.979 215.516L148.313 186.405L158.377 139.728L166.257 91.839L177.802 70.9647ZM22.1729 202.859L24.4494 172.334L36.6062 153.258V125.917L46.7798 119.558L50.1718 163.066L39.2305 186.405L32.4046 210.172L22.1729 202.859Z" fill="#EB7333"/>
<path d="M148.313 61.3761L154.644 74.7641L172.012 70.9647H177.802M177.802 70.9647V64.0899L181.963 59.9288L191.483 54.5118L193.628 38.1566L174.055 19.9238L152.337 22.6054L132.764 36.8159L113.191 49.6858H89.8647L84.5028 45.1277L64.393 47.5408L45.3564 66.0413L21.3795 98.5998L17.2721 115.853L3.7168 136.392V214.441L5.77143 216.906L6.12006 238.322H13.0691L13.3712 240.89L24.4494 241.998L25.5573 231.776L28.1254 231.423L28.7297 226.942L34.0403 222.363M177.802 70.9647L166.257 91.839L158.377 139.728L148.313 186.405L131.979 215.516L126.339 209.738L119.254 206.024L95.6361 204.59L67.7513 220.957L50.1718 247.024L34.0403 222.363M71.26 88.7196L56.9534 113.2L46.7798 119.558M46.7798 119.558L36.6062 125.917V153.258L24.4494 172.334L22.1729 202.859L32.4046 210.172M46.7798 119.558L50.1718 163.066L39.2305 186.405L32.4046 210.172M32.4046 210.172L34.2608 211.499L39.2305 217.888L34.0403 222.363" stroke="#140100" stroke-width="2"/>
<path d="M136.731 70.9647L139.946 66.0413L148.313 61.3761L154.644 74.7641L172.012 70.9647H177.802V64.0899L181.963 59.9288L191.483 54.5118L193.628 38.1566L174.055 19.9238L152.337 22.6054L132.764 36.8159L113.191 49.6858H101.528H95.6962M95.6962 49.6858H89.8647L84.5028 45.1277L64.393 47.5408L45.3564 66.0413L21.3795 98.5998L17.2721 115.853L3.7168 136.392V214.441L5.77143 216.906L6.12006 238.322H13.0691L13.3712 240.89L24.4494 241.998L25.5573 231.776L28.1254 231.423L28.7297 226.942L39.2305 217.888L34.2608 211.499L22.1729 202.859L24.4494 172.334L36.6062 153.258V125.917L56.9534 113.2L71.26 88.7196L78.2674 85.269L74.7596 107.777L88.2061 121.224M95.6962 49.6858L100.191 59.9288L113.191 70.9647" stroke="#140100" stroke-width="2"/>
<path d="M142.051 82.5791L146.845 63.1759V57.3535L173.661 70.8304L183.348 76.3054L188.718 83.6756L194.087 91.0458L204.827 99.6794L185.454 113.367L173.661 115.906L163.343 123.264L168.482 126.143L99.4393 165.898L86.822 179.071L75.8475 176.652L69.8576 175.332L52.8932 171.593L44.7269 174.035L40.9361 167.893L44.1249 167.039L40.3583 160.191L36.5918 153.343L70.1473 140.56L112.149 115.906L142.051 82.5791Z" fill="#EB7333"/>
<path d="M44.1249 167.039L40.9361 167.893L44.7269 174.035L52.8932 171.593M44.1249 167.039L105.035 150.718M44.1249 167.039L40.3583 160.191M92.4534 159.765L52.8932 171.593M52.8932 171.593L69.8576 175.332M86.822 179.071L99.4393 165.898L168.482 126.143L163.343 123.264L173.661 115.906L185.454 113.367L204.827 99.6794L194.087 91.0458M86.822 179.071L75.8475 176.652M86.822 179.071L96.751 186.722L113.724 189.288L129.306 184.021M194.087 91.0458L188.718 83.6756M194.087 91.0458L180.189 102.207L157.868 115.906M40.3583 160.191L36.5918 153.343L70.1473 140.56L112.149 115.906L142.051 82.5791L146.845 63.1759V57.3535L173.661 70.8304L183.348 76.3054L188.718 83.6756M40.3583 160.191L77.0067 150.718M86.822 144.954L149.024 121.369M142.051 117.158L171.556 99.6794L188.718 83.6756M84.7342 199.385L72.7472 186.722L69.8576 175.332M69.8576 175.332L75.8475 176.652M94.3576 192.631L82.8771 185.034L75.8475 176.652" stroke="#140100" stroke-width="2"/>
<path d="M154.643 74.7641L148.312 61.3761L139.945 66.0413L136.73 70.9647H113.19L100.19 59.9288L95.6953 49.6858H101.527H113.19L132.763 36.8159L152.336 22.6054L174.054 19.9238L193.627 38.1566L191.482 54.5118L181.962 59.9288L177.801 64.0899V70.9647H172.011L154.643 74.7641Z" fill="#EB7333"/>
<path d="M136.73 70.9647L139.945 66.0413L148.312 61.3761L154.643 74.7641L172.011 70.9647H177.801V64.0899L181.962 59.9288L191.482 54.5118L193.627 38.1566L174.054 19.9238L152.336 22.6054L132.763 36.8159L113.19 49.6858H101.527H95.6953L100.19 59.9288L113.19 70.9647" stroke="#140100" stroke-width="2"/>
<path d="M151.48 90.978L161.73 73.2244L178.409 51.7401L199.214 52.0901L203.229 39.553L197.908 26.562L182.367 8.06366L159.803 4.56197L152.803 16.6863L143.826 13.2354L139.576 20.5966L133.081 16.8466L129.831 22.4758L124.318 21.0248L129.63 25.8238L136.277 23.3107L138.875 24.8107L142.906 24.8286L140.656 28.7257L134.826 28.8238L130.277 33.703L140.754 34.5561L143.803 32.2748L142.602 37.3549L137.406 34.3549L135.906 36.953L131.125 38.2341L138.053 42.2341L139.803 39.203L144.999 42.203L150.731 36.2748L152.463 37.2748L148.463 44.203L139.45 48.8142L151.48 90.978Z" fill="#140100"/>
<path d="M161.73 73.2244L178.409 51.7401L199.214 52.0901L203.229 39.553L197.908 26.562L182.367 8.06366L159.803 4.56197L152.803 16.6863L143.826 13.2354L139.576 20.5966L133.081 16.8466L129.831 22.4758L124.318 21.0248L129.63 25.8238L136.277 23.3107L138.875 24.8107L142.906 24.8286L140.656 28.7257L134.826 28.8238L130.277 33.703L140.754 34.5561L143.803 32.2748L142.602 37.3549L137.406 34.3549L135.906 36.953L130.884 40.4636" stroke="#EB7333" stroke-width="2"/>
<path d="M177.19 76.1193L182.826 64.5281L192.087 59.7091L194.549 56.3786L198.848 51.9325L190.156 39.9863L182.826 42.6825L179.313 37.7674L173.166 39.4145L172.434 36.6825L162.184 54.436L163.148 60.7661L155.885 62.3463L161.228 74.0914L170.607 70.8463L177.19 76.1193Z" fill="#EB7333"/>
<path d="M157.154 74.818L170.608 70.8464L177.865 76.5076L183.5 65L192.5 59.5L196.5 54L198.5 47.5" stroke="#140100" stroke-width="2"/>
</g>
<defs>
<clipPath id="clip0_1208_11919">
<rect width="223" height="255" fill="white"/>
</clipPath>
</defs>
</svg>
