<svg width="307" height="677" viewBox="0 0 307 677" fill="none" xmlns="http://www.w3.org/2000/svg">
<path d="M213.332 68.3669L203.122 73.6078L193.61 69.7164L190.829 60.4758L196.388 49.4171L205.859 48.4718L207.688 50.4261L208.257 47.989L194.036 40.5326L196.246 36.1768L209.948 41.451L215.512 34.1467L218.917 32.1021L225.445 13.2249L233.985 16.8525L225.511 35.0752L229.219 39.0356L248.911 32.796L251.588 41.151L231.181 45.202L228.592 49.7642L222.212 54.5508L228.853 71.008L224.456 73.0282L215.481 55.7065L213.202 56.316L215.389 58.6516L213.332 68.3669Z" fill="#EB7333"/>
<path d="M207.688 50.4261L213.202 56.316M207.688 50.4261L208.257 47.989L194.036 40.5326L196.246 36.1768L209.948 41.451L215.512 34.1467L218.917 32.1021L225.445 13.2249L233.985 16.8525L225.511 35.0752L229.219 39.0356L248.911 32.796L251.588 41.151L231.181 45.202L228.592 49.7642L222.212 54.5508L228.853 71.008L224.456 73.0282L215.481 55.7065L213.202 56.316M207.688 50.4261L205.859 48.4718L196.388 49.4171L190.829 60.4758L193.61 69.7164L203.122 73.6078L213.332 68.3669L215.389 58.6516L213.202 56.316" stroke="#170800" stroke-width="2.95235"/>
<path d="M133.753 141.731L138.179 119.905L182.716 111.057L208.082 165.918L202.773 170.342L206.312 173.587V198.658L198.348 212.521V253.52L189.5 272.102L191.564 281.245L180.356 298.058L177.701 322.244L180.356 331.093L222.829 396.278L229.908 481.814L236.397 485.944V511.015L225.779 526.647L197.463 649.053L238.757 672.945H165.018L171.507 660.852L169.443 584.753L174.457 570.006L165.018 544.935V529.007L188.32 494.497L174.457 478.865L150.566 514.849L154.105 523.403L141.717 546.409L123.43 557.028L44.0871 651.708L68.8633 672.945H2.20312L59.4243 570.006L61.1947 543.46L80.6617 518.094L106.913 511.015V496.267L92.4598 465.592L97.1791 419.284L70.0439 396.278V356.164L83.9068 331.093L80.3673 329.028L72.403 278.591L89.5111 188.04L126.97 141.731H133.753Z" fill="#EB7333"/>
<path d="M180.925 332.775L177.678 320.655L180.502 296.974L190.801 281.225L189.934 272.287L198.042 254.068L198.586 211.039L206.447 198.651L206.223 172.785L194.379 160.298L189.164 149.641L185.399 126.791L159.719 111.043L137.039 119.804L133.542 140.686L126.877 142.471L88.802 188.588L81.5739 227.202L72.0809 280.178L80.8201 331.647" stroke="#170800" stroke-width="2.95235"/>
<path d="M121.74 116.551L119.859 119.168L119.981 118.504L120.048 118.132L119.853 117.808L118.401 115.4L121.74 116.551ZM93.4753 98.5176L87.5367 110.311L87.153 111.075L97.1248 118.24L90.7275 127.143L98.635 132.825L95.9908 139.919L97.6003 141.009L105.352 133.979L105.804 133.568L105.646 132.978L103.078 123.404L105.516 120.011L105.544 119.747L105.976 115.599L109.459 118.102L108.802 126.033L108.766 126.456L109.046 126.775L115.483 134.101L116.847 135.653L117.219 133.621L118.824 124.831L120.859 126.294L122.351 135.409L131.168 123.14L127.013 120.154L132.003 113.209L131.499 112.614L124.213 104.011L124.88 103.083L133.325 109.152L138.616 122.656L138.916 123.421L139.724 123.275L202.801 111.898L205.123 111.48L178.535 92.3738L178.126 92.4407L165.459 94.5142L150.488 65.8565L153.982 35.9524L154.068 35.2147L153.387 34.919L135.734 27.2593L135.399 27.1139L135.05 27.2179L115.381 33.0706L115.232 33.116L115.103 33.2036L85.9397 53.1243L85.6293 53.3354L85.5355 53.6985L77.1667 86.011L76.9941 86.6747L93.4753 98.5176Z" fill="#190901" stroke="#EB7333" stroke-width="2"/>
<path d="M180.36 330.568L223.169 396.996L229.073 481.138L236.454 486.305L236.454 509.924L226.859 526.162L197.336 648.684L240.883 674.517L164.86 673.041L170.764 661.232L169.288 585.947L174.455 571.185L164.86 546.828L164.86 529.114L188.479 494.424L174.455 478.186M174.455 478.186L150.836 514.352L153.788 522.471L141.241 546.828L124.265 556.423L43.8134 650.898L71.1226 673.041L2.48047 673.041L59.3133 568.233L61.5275 543.138L79.9797 517.305L106.551 509.924L106.551 496.638L92.5272 465.638L96.9557 419.877L69.6465 396.996L69.6465 357.14L83.6702 330.568L79.2416 330.568M174.455 478.186L188.479 419.877L150.836 371.158" stroke="#170800" stroke-width="2.95235"/>
<path d="M181.03 110.945L196.058 113.862L197.419 115.025L208.022 103.798L232.827 100.879L249.607 106.278L253.328 105.771L255.138 100.879L250.702 88.8984L249.607 73.4477V64.1093L247.126 54.3331L244.938 43.0977L240.269 42.0763L227.72 35.0725L224.656 28.0679L216.922 22.8158V16.6874H223.78L222.029 13.3314L226.99 11.1427L229.763 12.0182L230.784 5.598L235.307 6.47348L238.08 1.94922L255.589 11.1427L268.868 21.5027L271.202 28.0679L267.7 39.5938L272.078 45.4309L296.299 84.0975L304.616 109.924L283.897 131.52L236.475 151.947L231.514 160.994L207.73 166.539L183.654 182.443L167.166 179.379L142.945 155.595L150.679 127.58L181.03 110.945Z" fill="#EB7333"/>
<path d="M212.109 127.58L197.419 115.025M142.945 155.595L150.679 127.58L181.03 110.945L196.058 113.862L197.419 115.025M167.166 179.379L183.654 182.443L207.73 166.539L231.514 160.994L236.475 151.947L283.897 131.52L304.616 109.924L296.299 84.0975L272.078 45.4309L267.7 39.5938L271.202 28.0679L268.868 21.5027L255.589 11.1427L238.08 1.94922L235.307 6.47348L230.784 5.598L229.763 12.0182L226.99 11.1427L222.029 13.3314L223.78 16.6874H216.922V22.8158L224.656 28.0679L227.72 35.0725L240.269 42.0763L244.938 43.0977L247.126 54.3331L249.607 64.1093V73.4477L250.702 88.8984L255.138 100.879L253.328 105.771M197.419 115.025L208.022 103.798L232.827 100.879L249.607 106.278L253.328 105.771M253.328 105.771L262.598 106.804" stroke="#170800" stroke-width="2.95235"/>
<path d="M202.623 110.915L178.288 93.4278L164.909 95.6187L149.459 66.0479L152.989 35.8365L135.336 28.1762L115.667 34.0296L86.5035 53.9496L78.1341 86.2619L94.7535 98.2041L88.4305 110.761L98.5208 118.012L92.1232 126.915L99.8394 132.459L96.9284 140.268L104.68 133.238L101.99 123.204L104.549 119.643L105.16 113.782L110.502 117.621L109.798 126.115L116.235 133.441L118.997 118.325L116.121 113.558L123.336 116.043L118.218 123.165L121.779 125.724L122.949 132.865L129.773 123.368L125.618 120.383L130.736 113.26L122.945 104.062L124.651 101.687L134.148 108.512L139.547 122.291L195.54 110.915L197.087 113.839L202.623 110.915Z" fill="#190901"/>
<path d="M184.409 71.079L168.368 61.1983L162.703 47.0284L158.216 42.9641L152.373 36.0654L133.734 46.9731L136.592 58.0267L128.932 62.4232L130.436 71.6037L126.356 72.2718L150.691 89.7587L160.039 89.2754L161.283 100.069L179.142 94.0026L178.337 90.6162L166.604 94.1881L163.433 84.1327L166.502 79.5093L175.784 79.8888L184.409 71.079Z" fill="#EB7333"/>
</svg>
