<svg width="283" height="463" viewBox="0 0 283 463" fill="none" xmlns="http://www.w3.org/2000/svg">
<path d="M44.4082 50.0091L42.6467 40.0387L94.8216 36.5482L97.8848 94.2869V135.592L76.7247 205.582L94.8216 302.957L135.82 400.707L174.307 441.645L282.167 461.278H0.171387L11.6107 425.316L16.2126 347.046V240.21L28.5803 177.284L16.2126 129.649L61.4411 94.2869L63.4967 75.2269L59.3855 67.8961L49.6947 75.2269L42.6467 61.1518L37.6541 59.6856L44.4082 50.0091Z" fill="#EB7333"/>
<path d="M44.4082 50.0091L42.6467 40.0387L94.8216 36.5482L97.8848 94.2869V135.592L76.7247 205.582L94.8216 302.957L135.82 400.707L174.307 441.645L282.167 461.278H0.171387L11.6107 425.316L16.2126 347.046V240.21L28.5803 177.284L16.2126 129.649L61.4411 94.2869L63.4967 75.2269L59.3855 67.8961L49.6947 75.2269L42.6467 61.1518L37.6541 59.6856L44.4082 50.0091Z" fill="#EB7333"/>
<path d="M18.6106 223.719L11.4722 209.303V187.112L29.965 183.71L18.6106 223.719Z" fill="#EB7333" stroke="#170800" stroke-width="2"/>
<path d="M105.785 32.0892L109.654 44.6487L109.876 45.3694L109.245 45.7806L102.304 50.3001L105.75 68.4427L111.134 82.6751L130.38 93.2444L131.624 93.9271L130.563 94.8685L119.547 104.645L130.442 117.638L149.018 121.476L149.544 121.584L149.745 122.083L155.615 136.739L155.809 137.223L155.523 137.659L143.782 155.572L143.595 155.856L143.275 155.967L131.958 159.921L140.951 166.937L141.132 167.077L141.233 167.284L149.713 184.545L150.191 185.517L149.184 185.915L132.151 192.659L135.305 194.55L136.354 195.178L135.53 196.081L119.414 213.751L130.74 231.343L131.183 232.033L130.594 232.603L109.878 252.651L113.533 261.631L123.772 258.926L125.914 258.36L124.922 260.34L120.682 268.808L120.48 269.212L120.043 269.327L108.955 272.258L108.303 272.43L107.899 271.892L104.423 267.266L98.5913 269.304L98.1206 269.469L97.7056 269.192L66.395 248.258L65.8208 247.874L65.9761 247.201L97.1558 112.542L74.4272 91.5999L74.2554 91.4417L74.1714 91.2239L67.6479 74.2884L67.5161 73.9446L67.6372 73.598L71.894 61.4525L68.188 59.8665L66.6665 59.2161L67.9507 58.1712L76.2007 51.4583L72.6938 42.0325L65.2954 48.0013L65.02 48.223H49.2505L48.9575 47.93L42.2368 41.2181L35.2271 38.0384L34.9214 37.8997L34.7612 37.6038L26.2808 21.971L25.48 20.4944H40.5288L66.3579 1.47296L66.811 1.13898L67.3325 1.35382L91.7456 11.43L105.065 15.3235L105.785 15.5335V32.0892Z" fill="#190901" stroke="#EB7333" stroke-width="2"/>
<path d="M16.2126 347.047V240.211L76.7247 205.583L94.8216 302.958L135.82 400.708L174.307 441.646L282.167 461.279H0.171387L11.6107 425.317L16.2126 347.047Z" fill="#EB7333"/>
<path d="M282.171 461.272L174.312 441.64L135.824 400.702L94.8258 302.951L76.3022 204.937" stroke="#170800" stroke-width="2"/>
<path d="M56.3814 168.064L62.8765 100.779H83.9853L94.1333 128.341L80.3321 197.653L40.9578 194.41L19.85 199.679L9.70199 219.54L1.17725 205.354L14.9788 183.871L29.5912 180.629L56.3814 168.064Z" fill="#EB7333"/>
<path d="M62.8765 100.779L56.3814 168.064L29.5912 180.629L14.9788 183.871L1.17725 205.354L9.70198 219.54L19.85 199.679L40.9578 194.41L80.3321 197.653L94.1333 128.341L83.9853 100.779" stroke="#170800" stroke-width="2"/>
</svg>
