<svg width="2568" height="1268" viewBox="0 0 2568 1268" fill="none" xmlns="http://www.w3.org/2000/svg">
<g clip-path="url(#clip0_1384_10722)">
<path d="M387.324 1262.92L588 292.504L997 0L1402 64L1608.5 71.5L1833.88 117.181L1923.5 380.181L1986 466.487L2027 579.466L2136.5 656.179L2158.5 852.846L2255.5 907.243L2281 998.181L2459.5 1299.18L2230.5 1653.48L1833.88 1299.18L1495.97 1289.42V1180.62L1532.28 1036.96L1480.62 907.243L1487.6 852.846L1472.24 778.922L1424.76 748.236L1290.72 770.553L1226.49 741.262L1160.17 693.142L1124.56 706.392L1019.84 691.049L952.934 723.13L938.857 787.29L895.572 893.295L864.854 933.744L810.398 1116.46L743.377 1282.44H690.318L387.324 1262.92Z" fill="#EB7333"/>
<path d="M970.971 533.437L929.083 550.175L871.835 693.839L839.721 706.392L764.321 861.214V1073.22L757.34 1089.96V1144.36L721.036 1215.49L690.318 1282.44M970.971 533.437L1005.88 473.461L1088.26 448.355L1137.13 439.986L1181.81 448.355L1205.55 466.487H1290.72L1310.27 448.355V487.409L1393.66 625.494M970.971 533.437L1025.43 541.806L1031.38 579.466M1817.12 1089.96L1779.42 971.403L1727.76 943.508L1656.55 827.739L1648.17 794.264L1571.37 770.553L1480.62 672.002L1412.2 656.179L1393.66 625.494M1817.12 1089.96L1833.88 1299.18M1817.12 1089.96L1678.89 978.377L1592.32 827.739L1532.28 787.29L1487.6 731.498L1393.66 706.392L1357.74 647.811L1343.78 647.29M1833.88 1299.18L1495.97 1289.42V1180.62L1532.28 1036.96L1480.62 907.243L1487.6 852.846L1472.24 778.922L1424.76 748.236L1290.72 770.553L1226.49 741.262L1160.17 693.142M1833.88 1299.18L2230.5 1653.48L2459.5 1299.18L2281 998.181L2255.5 907.243L2158.5 852.846L2136.5 656.179L2027 579.466L1986 466.487L1923.5 380.181L1833.88 117.181L1608.5 71.5L1402 64L997 0L588 292.504L387.324 1262.92L690.318 1282.44M690.318 1282.44H743.377L810.398 1116.46L864.854 933.744L895.572 893.295L938.857 787.29L952.934 723.13M1031.38 579.466L1205.55 533.437L1276.76 541.806L1334.01 605.967L1393.66 625.494M1031.38 579.466L1038.65 625.494M1137.13 618.52L1170.64 640.837L1343.78 647.29M1137.13 618.52H1064.52L1038.65 625.494M1137.13 618.52L1181.81 593.414L1343.78 647.29M1038.65 625.494L1042.18 647.811L961.197 685.47L952.934 723.13M952.934 723.13L1019.84 691.049L1124.56 706.392L1160.17 693.142M1195.77 679.891L1160.17 693.142" stroke="black" stroke-width="3"/>
<path d="M34.0599 1211.65L0 1278.71V1300L605.628 1278.71L959 46L659.911 109.871L605.628 159.903L566.246 148.194L527.929 202.484L439.586 232.29L426.814 362.161L263.964 484.581V567.613L219.261 664.484V788.583L195.845 792.226L160.72 1018.97L105.373 1058.35L90.4717 1193.55L34.0599 1211.65Z" fill="#EB7333"/>
<path d="M2533.94 1277.65L2568 1344.71V1366L1962.37 1344.71L1609 112L1908.09 175.871L1962.37 225.903L2001.75 214.194L2040.07 268.484L2128.41 298.29L2141.19 428.161L2304.04 550.581V633.613L2348.74 730.484V854.583L2372.16 858.226L2407.28 1084.97L2462.63 1124.35L2477.53 1259.55L2533.94 1277.65Z" fill="#EB7333"/>
<path d="M146.883 1175.45L90.4717 1193.55M90.4717 1193.55L34.0599 1211.65L0 1278.71V1300L605.628 1278.71M90.4717 1193.55L105.373 1058.35L160.72 1018.97L195.845 792.226L219.261 788.583M339.535 769.871L219.261 788.583M339.535 769.871L299.089 932.742M339.535 769.871L401.269 591.032L478.968 511.194H555.603M219.261 788.583V664.484L263.964 567.613V484.581L426.814 362.161L439.586 232.29L527.929 202.484L566.246 148.194L605.628 159.903L659.911 109.871L959 46" stroke="black" stroke-width="3"/>
<path d="M2421.12 1241.45L2477.53 1259.55M2477.53 1259.55L2533.94 1277.65L2568 1344.71V1366L1962.37 1344.71M2477.53 1259.55L2462.63 1124.35L2407.28 1084.97L2372.16 858.226L2348.74 854.583M2228.47 835.871L2348.74 854.583M2228.47 835.871L2268.91 998.742M2228.47 835.871L2166.73 657.032L2089.03 577.194H2012.4M2348.74 854.583V730.484L2304.04 633.613V550.581L2141.19 428.161L2128.41 298.29L2040.07 268.484L2001.75 214.194L1962.37 225.903L1908.09 175.871L1609 112" stroke="black" stroke-width="3"/>
</g>
<defs>
<clipPath id="clip0_1384_10722">
<rect width="2568" height="1268" fill="white"/>
</clipPath>
</defs>
</svg>
