<svg width="433" height="890" viewBox="0 0 433 890" fill="none" xmlns="http://www.w3.org/2000/svg">
<path d="M237.348 827.484L254.254 686.089L457.127 495.512L590.838 561.6L661.536 1031.89H37.5508L137.45 850.539L237.348 827.484Z" fill="#EB7333"/>
<path d="M80.6549 778.104L140.039 581.158L182.526 311.565L37.0029 161.839L101.088 46.3292L232.644 -4.03325L474.702 -17.5055L655.358 123.426L614.803 257.925L701.725 299.855L677.103 381.516L749.156 403.242L730.327 465.688L778.821 496.031L707.226 490.165L679.926 424.29L651.105 415.6L623.273 386.247L610.238 429.479L649.583 472.784L645.164 539.575L566.931 468.825L562.661 430.854L533.766 474.544L591.409 491.925L582.718 520.746L606.205 564.51L529.348 541.336L539.486 507.711L481.844 490.33L485.804 407.679L466.589 401.886L443.415 478.743L471.632 576.336L80.6549 778.104Z" fill="#180900" stroke="#EB7333" stroke-width="13"/>
<path d="M12.6392 488.002L58.6692 367.141L30.2703 266.31L37.7078 225.424L40.6779 163.436L187.755 144.9L218.41 217.026L278.491 208.941L308.687 265.209L333.695 251.788L274.311 448.734L221.399 485.182L259.754 549.15L137.153 590.788L96.4327 499.905L12.6392 488.002Z" fill="#EB7333"/>
</svg>
