<svg width="532" height="890" viewBox="0 0 532 890" fill="none" xmlns="http://www.w3.org/2000/svg">
<path d="M818.97 -121.98L590.084 1111.7L516.595 1098.07L521.868 917.085L483.394 797.536L363.166 787.361L265.056 797.463L198.207 756.755L177.481 646.16L146.079 597.473L161.609 570.432L124.759 533.673L115.367 475.32L100.544 463.674L9.74422e-05 478.177L58.164 164.675L74.4044 -79.7771L154.4 -214.547L818.97 -121.98ZM166.278 144.076L158.832 158.061L158.53 158.625L158.458 159.263L150.674 227.367L150.585 228.156L150.856 228.901L156.207 243.642L156.351 244.034L156.584 244.38L199.738 308.187L201.718 311.116L204.549 309L249.619 275.308L250.085 274.957L250.409 274.471L295.316 206.784L297.221 203.912L294.309 202.071L225.549 158.583L225.144 158.327L224.685 158.194L170.192 142.423L167.564 141.663L166.278 144.076Z" fill="#EB7333"/>
</svg>
