<svg width="307" height="677" viewBox="0 0 307 677" fill="none" xmlns="http://www.w3.org/2000/svg">
<path d="M92.9608 68.3669L103.171 73.6078L112.683 69.7164L115.464 60.4758L109.905 49.4171L100.434 48.4718L98.6047 50.4261L98.0363 47.989L112.257 40.5326L110.047 36.1768L96.3445 41.451L90.7814 34.1467L87.3758 32.1021L80.8484 13.2249L72.3077 16.8525L80.7816 35.0752L77.074 39.0356L57.3822 32.796L54.7053 41.151L75.1123 45.202L77.701 49.7642L84.081 54.5508L77.4397 71.008L81.8365 73.0282L90.8115 55.7065L93.0908 56.316L90.9043 58.6516L92.9608 68.3669Z" fill="#EB7333"/>
<path d="M98.6047 50.4261L93.0908 56.316M98.6047 50.4261L98.0363 47.989L112.257 40.5326L110.047 36.1768L96.3445 41.451L90.7814 34.1467L87.3758 32.1021L80.8484 13.2249L72.3077 16.8525L80.7816 35.0752L77.074 39.0356L57.3822 32.796L54.7053 41.151L75.1123 45.202L77.701 49.7642L84.081 54.5508L77.4397 71.008L81.8365 73.0282L90.8115 55.7065L93.0908 56.316M98.6047 50.4261L100.434 48.4718L109.905 49.4171L115.464 60.4758L112.683 69.7164L103.171 73.6078L92.9608 68.3669L90.9043 58.6516L93.0908 56.316" stroke="#170800" stroke-width="2.95235"/>
<path d="M172.54 141.731L168.114 119.905L123.577 111.057L98.2112 165.918L103.52 170.342L99.9809 173.587V198.658L107.945 212.521V253.52L116.793 272.102L114.729 281.245L125.937 298.058L128.591 322.244L125.937 331.093L83.4635 396.278L76.3846 481.814L69.8956 485.944V511.015L80.5139 526.647L108.83 649.053L67.5359 672.945H141.275L134.786 660.852L136.85 584.753L131.836 570.006L141.275 544.935V529.007L117.973 494.497L131.836 478.865L155.727 514.849L152.188 523.403L164.576 546.409L182.863 557.028L262.206 651.708L237.43 672.945H304.09L246.869 570.006L245.098 543.46L225.631 518.094L199.38 511.015V496.267L213.833 465.592L209.114 419.284L236.249 396.278V356.164L222.386 331.093L225.926 329.028L233.89 278.591L216.782 188.04L179.323 141.731H172.54Z" fill="#EB7333"/>
<path d="M125.367 332.775L128.615 320.655L125.791 296.974L115.492 281.225L116.359 272.287L108.251 254.068L107.707 211.039L99.8458 198.651L100.07 172.785L111.914 160.298L117.129 149.641L120.894 126.791L146.574 111.043L169.254 119.804L172.751 140.686L179.416 142.471L217.491 188.588L224.719 227.202L234.212 280.178L225.473 331.647" stroke="#170800" stroke-width="2.95235"/>
<path d="M184.553 116.551L186.434 119.168L186.312 118.504L186.245 118.132L186.44 117.808L187.892 115.4L184.553 116.551ZM212.818 98.5176L218.756 110.311L219.14 111.075L209.168 118.24L215.565 127.143L207.658 132.825L210.302 139.919L208.693 141.009L200.941 133.979L200.489 133.568L200.647 132.978L203.215 123.404L200.777 120.011L200.749 119.747L200.317 115.599L196.834 118.102L197.491 126.033L197.527 126.456L197.247 126.775L190.809 134.101L189.446 135.653L189.074 133.621L187.469 124.831L185.434 126.294L183.941 135.409L175.125 123.14L179.28 120.154L174.29 113.209L174.794 112.614L182.08 104.011L181.413 103.083L172.967 109.152L167.677 122.656L167.377 123.421L166.569 123.275L103.492 111.898L101.17 111.48L127.758 92.3738L128.167 92.4407L140.833 94.5142L155.805 65.8565L152.311 35.9524L152.225 35.2147L152.906 34.919L170.559 27.2593L170.894 27.1139L171.243 27.2179L190.911 33.0706L191.061 33.116L191.19 33.2036L220.353 53.1243L220.664 53.3354L220.757 53.6985L229.126 86.011L229.299 86.6747L212.818 98.5176Z" fill="#190901" stroke="#EB7333" stroke-width="2"/>
<path d="M125.933 330.568L83.1243 396.996L77.2196 481.138L69.8387 486.305L69.8387 509.924L79.4338 526.162L108.957 648.684L65.4102 674.517L141.433 673.041L135.529 661.232L137.005 585.947L131.838 571.185L141.433 546.828L141.433 529.114L117.814 494.424L131.838 478.186M131.838 478.186L155.457 514.352L152.505 522.471L165.052 546.828L182.028 556.423L262.48 650.898L235.17 673.041L303.812 673.041L246.98 568.233L244.765 543.138L226.313 517.305L199.742 509.924L199.742 496.638L213.766 465.638L209.337 419.877L236.646 396.996L236.646 357.14L222.623 330.568L227.051 330.568M131.838 478.186L117.814 419.877L155.457 371.158" stroke="#170800" stroke-width="2.95235"/>
<path d="M125.263 110.945L110.235 113.862L108.874 115.025L98.2713 103.798L73.466 100.879L56.686 106.278L52.9651 105.771L51.1545 100.879L55.5912 88.8984L56.686 73.4477V64.1093L59.1665 54.3331L61.3552 43.0977L66.0245 42.0763L78.573 35.0725L81.6372 28.0679L89.3706 22.8158V16.6874H82.5127L84.2636 13.3314L79.3026 11.1427L76.5302 12.0182L75.5088 5.598L70.9855 6.47348L68.2132 1.94922L50.7036 11.1427L37.4254 21.5027L35.0908 28.0679L38.5927 39.5938L34.2153 45.4309L9.99373 84.0975L1.67667 109.924L22.3964 131.52L69.8182 151.947L74.7793 160.994L98.5631 166.539L122.639 182.443L139.127 179.379L163.348 155.595L155.614 127.58L125.263 110.945Z" fill="#EB7333"/>
<path d="M94.184 127.58L108.874 115.025M163.348 155.595L155.614 127.58L125.263 110.945L110.235 113.862L108.874 115.025M139.127 179.379L122.639 182.443L98.5631 166.539L74.7793 160.994L69.8182 151.947L22.3964 131.52L1.67667 109.924L9.99373 84.0975L34.2153 45.4309L38.5927 39.5938L35.0908 28.0679L37.4254 21.5027L50.7036 11.1427L68.2132 1.94922L70.9855 6.47348L75.5088 5.598L76.5302 12.0182L79.3026 11.1427L84.2636 13.3314L82.5127 16.6874H89.3706V22.8158L81.6372 28.0679L78.573 35.0725L66.0245 42.0763L61.3552 43.0977L59.1665 54.3331L56.686 64.1093V73.4477L55.5912 88.8984L51.1545 100.879L52.9651 105.771M108.874 115.025L98.2713 103.798L73.466 100.879L56.686 106.278L52.9651 105.771M52.9651 105.771L43.6953 106.804" stroke="#170800" stroke-width="2.95235"/>
<path d="M103.67 110.915L128.005 93.4278L141.384 95.6187L156.834 66.0479L153.304 35.8365L170.957 28.1762L190.626 34.0296L219.789 53.9496L228.159 86.2619L211.539 98.2041L217.862 110.761L207.772 118.012L214.17 126.915L206.454 132.459L209.365 140.268L201.613 133.238L204.303 123.204L201.744 119.643L201.133 113.782L195.791 117.621L196.495 126.115L190.058 133.441L187.296 118.325L190.172 113.558L182.957 116.043L188.075 123.165L184.514 125.724L183.344 132.865L176.52 123.368L180.675 120.383L175.557 113.26L183.348 104.062L181.642 101.687L172.145 108.512L166.746 122.291L110.753 110.915L109.206 113.839L103.67 110.915Z" fill="#190901"/>
<path d="M121.883 71.079L137.925 61.1983L143.59 47.0284L148.077 42.9641L153.92 36.0654L172.559 46.9731L169.701 58.0267L177.361 62.4232L175.857 71.6037L179.937 72.2718L155.602 89.7587L146.254 89.2754L145.01 100.069L127.151 94.0026L127.956 90.6162L139.689 94.1881L142.86 84.1327L139.791 79.5093L130.509 79.8888L121.883 71.079Z" fill="#EB7333"/>
</svg>
