<svg width="617" height="540" viewBox="0 0 617 540" fill="none" xmlns="http://www.w3.org/2000/svg">
<mask id="path-1-outside-1_1165_7841" maskUnits="userSpaceOnUse" x="196.797" y="-0.402344" width="416" height="401" fill="black">
<rect fill="white" x="196.797" y="-0.402344" width="416" height="401"/>
<path d="M587.747 15.3135L594.937 8.125L604.129 17.3174L596.895 24.5508L609.492 42.665L595.35 56.8076L579.994 41.4521L540.588 80.8574L540.519 81.4346L538.814 86.5244L545.63 95.6875L560.626 111.298L571.19 124.194L576.303 140.144L582.438 150.325L571.19 162.542L561.989 173.062L552.105 181.886L530.294 192.066L529.271 198.515L554.15 240.437V288.445L546.652 330.187L521.092 381.77L474.742 342.743L466.904 320.685L463.155 313.897L456.339 302.359H451.227L439.64 285.391L432.823 303.377L427.711 312.54L413.738 327.132L402.15 334.938L401.469 342.743L388.519 350.888L374.886 360.39L339.102 371.589L326.832 373.285L310.814 381.77L290.861 378.488L234.082 392.757L231.562 393.391L229.596 391.691L227.521 389.899L225.685 394.701L224.454 397.914L221.015 397.913L204.99 397.914V387.914L217.575 387.915L219.476 382.95L215.614 379.616L204.527 385.571L202.162 381.167L199.797 376.762L213.914 369.18L216.943 367.553L219.548 369.801L223.275 373.02L224.179 370.661L225.107 368.234L227.627 367.601L299.59 349.479L299.567 349.46L295.478 350.029L291.388 346.137L292.41 342.403L295.478 340.707L299.567 343.422H306.725L308.77 346.137H315.245L322.061 352.584L336.375 345.118L354.097 329.848L376.249 320.685L377.953 317.97L379.316 312.54L392.268 290.142L403.514 279.622L408.626 256.885L415.102 243.649L433.846 232.45L444.41 222.27L447.478 206.998L451.567 199.872L452.274 199.336L450.111 195.002L437.71 208.222L418.904 197.276L412.16 195.104L414.741 187.095L413.448 184.574L417.864 174.742H406.009L402.398 170.802L406.038 150.944L435.684 137.051L459.977 148.327L464.697 170.802L484.296 175.116L487.012 173.062L489.057 168.99L498.599 162.542L508.482 159.827L520.069 158.809L528.249 150.325L542.563 146.932L545.63 144.896L540.519 137.769L537.11 126.23L534.384 115.71L532.339 109.262L528.249 103.153L523.109 98.3359L511.622 109.824L502.43 100.632L512.381 90.6797L507.119 81.4346V77.0225L521.092 64.127L523.818 62.7695L533.702 64.4668L536.052 67.0088L570.802 32.2598L555.282 16.7402L569.425 2.59766L587.747 15.3135ZM304.811 358.478L232.589 376.663L231.322 379.971L234.164 382.425L303.303 365.051L306.07 359.994L305.672 358.261L304.811 358.478Z"/>
</mask>
<path d="M587.747 15.3135L594.937 8.125L604.129 17.3174L596.895 24.5508L609.492 42.665L595.35 56.8076L579.994 41.4521L540.588 80.8574L540.519 81.4346L538.814 86.5244L545.63 95.6875L560.626 111.298L571.19 124.194L576.303 140.144L582.438 150.325L571.19 162.542L561.989 173.062L552.105 181.886L530.294 192.066L529.271 198.515L554.15 240.437V288.445L546.652 330.187L521.092 381.77L474.742 342.743L466.904 320.685L463.155 313.897L456.339 302.359H451.227L439.64 285.391L432.823 303.377L427.711 312.54L413.738 327.132L402.15 334.938L401.469 342.743L388.519 350.888L374.886 360.39L339.102 371.589L326.832 373.285L310.814 381.77L290.861 378.488L234.082 392.757L231.562 393.391L229.596 391.691L227.521 389.899L225.685 394.701L224.454 397.914L221.015 397.913L204.99 397.914V387.914L217.575 387.915L219.476 382.95L215.614 379.616L204.527 385.571L202.162 381.167L199.797 376.762L213.914 369.18L216.943 367.553L219.548 369.801L223.275 373.02L224.179 370.661L225.107 368.234L227.627 367.601L299.59 349.479L299.567 349.46L295.478 350.029L291.388 346.137L292.41 342.403L295.478 340.707L299.567 343.422H306.725L308.77 346.137H315.245L322.061 352.584L336.375 345.118L354.097 329.848L376.249 320.685L377.953 317.97L379.316 312.54L392.268 290.142L403.514 279.622L408.626 256.885L415.102 243.649L433.846 232.45L444.41 222.27L447.478 206.998L451.567 199.872L452.274 199.336L450.111 195.002L437.71 208.222L418.904 197.276L412.16 195.104L414.741 187.095L413.448 184.574L417.864 174.742H406.009L402.398 170.802L406.038 150.944L435.684 137.051L459.977 148.327L464.697 170.802L484.296 175.116L487.012 173.062L489.057 168.99L498.599 162.542L508.482 159.827L520.069 158.809L528.249 150.325L542.563 146.932L545.63 144.896L540.519 137.769L537.11 126.23L534.384 115.71L532.339 109.262L528.249 103.153L523.109 98.3359L511.622 109.824L502.43 100.632L512.381 90.6797L507.119 81.4346V77.0225L521.092 64.127L523.818 62.7695L533.702 64.4668L536.052 67.0088L570.802 32.2598L555.282 16.7402L569.425 2.59766L587.747 15.3135ZM304.811 358.478L232.589 376.663L231.322 379.971L234.164 382.425L303.303 365.051L306.07 359.994L305.672 358.261L304.811 358.478Z" fill="#170800"/>
<path d="M587.747 15.3135L586.607 16.9566L587.98 17.9093L589.161 16.7278L587.747 15.3135ZM594.937 8.125L596.351 6.71079L594.937 5.29667L593.522 6.71069L594.937 8.125ZM604.129 17.3174L605.543 18.7317L606.957 17.3175L605.543 15.9032L604.129 17.3174ZM596.895 24.5508L595.48 23.1365L594.297 24.3193L595.253 25.6927L596.895 24.5508ZM609.492 42.665L610.906 44.0793L612.089 42.8964L611.134 41.5231L609.492 42.665ZM595.35 56.8076L593.935 58.2218L595.35 59.636L596.764 58.2218L595.35 56.8076ZM579.994 41.4521L581.408 40.0379L579.994 38.6237L578.58 40.0379L579.994 41.4521ZM540.588 80.8574L539.174 79.4432L538.685 79.9322L538.602 80.6189L540.588 80.8574ZM540.519 81.4346L542.415 82.0695L542.48 81.8759L542.504 81.6731L540.519 81.4346ZM538.814 86.5244L536.918 85.8894L536.586 86.8799L537.21 87.718L538.814 86.5244ZM545.63 95.6875L544.025 96.8811L544.1 96.9822L544.188 97.0731L545.63 95.6875ZM560.626 111.298L562.173 110.03L562.123 109.969L562.068 109.912L560.626 111.298ZM571.19 124.194L573.095 123.584L572.979 123.221L572.738 122.927L571.19 124.194ZM576.303 140.144L574.398 140.754L574.469 140.976L574.59 141.176L576.303 140.144ZM582.438 150.325L583.909 151.68L584.924 150.577L584.151 149.293L582.438 150.325ZM571.19 162.542L569.719 161.187L569.702 161.206L569.685 161.225L571.19 162.542ZM561.989 173.062L563.321 174.554L563.413 174.472L563.495 174.379L561.989 173.062ZM552.105 181.886L552.951 183.698L553.218 183.574L553.437 183.378L552.105 181.886ZM530.294 192.066L529.448 190.254L528.485 190.704L528.319 191.753L530.294 192.066ZM529.271 198.515L527.296 198.201L527.183 198.914L527.552 199.535L529.271 198.515ZM554.15 240.437H556.15V239.888L555.87 239.416L554.15 240.437ZM554.15 288.445L556.119 288.799L556.15 288.624V288.445H554.15ZM546.652 330.187L548.444 331.075L548.571 330.82L548.621 330.54L546.652 330.187ZM521.092 381.77L519.804 383.299L521.753 384.94L522.884 382.658L521.092 381.77ZM474.742 342.743L472.858 343.413L473.039 343.924L473.454 344.273L474.742 342.743ZM466.904 320.685L468.789 320.015L468.734 319.861L468.655 319.718L466.904 320.685ZM463.155 313.897L464.906 312.93L464.892 312.905L464.877 312.88L463.155 313.897ZM456.339 302.359L458.061 301.342L457.48 300.359H456.339V302.359ZM451.227 302.359L449.575 303.487L450.17 304.359H451.227V302.359ZM439.64 285.391L441.291 284.263L439.129 281.096L437.769 284.682L439.64 285.391ZM432.823 303.377L434.57 304.351L434.641 304.223L434.693 304.086L432.823 303.377ZM427.711 312.54L429.155 313.923L429.333 313.738L429.457 313.514L427.711 312.54ZM413.738 327.132L414.856 328.791L415.034 328.67L415.183 328.515L413.738 327.132ZM402.15 334.938L401.033 333.279L400.241 333.812L400.158 334.764L402.15 334.938ZM401.469 342.743L402.534 344.436L403.375 343.907L403.461 342.917L401.469 342.743ZM388.519 350.888L387.454 349.195L387.414 349.22L387.375 349.247L388.519 350.888ZM374.886 360.39L375.483 362.298L375.777 362.206L376.029 362.03L374.886 360.39ZM339.102 371.589L339.375 373.57L339.54 373.547L339.699 373.498L339.102 371.589ZM326.832 373.285L326.558 371.304L326.208 371.352L325.896 371.518L326.832 373.285ZM310.814 381.77L310.49 383.743L311.155 383.852L311.751 383.537L310.814 381.77ZM290.861 378.488L291.186 376.515L290.776 376.447L290.374 376.549L290.861 378.488ZM234.082 392.757L233.595 390.817L233.594 390.817L234.082 392.757ZM231.562 393.391L230.255 394.904L231.042 395.584L232.05 395.33L231.562 393.391ZM229.596 391.691L230.903 390.178L230.903 390.178L229.596 391.691ZM227.521 389.899L228.829 388.386L226.672 386.522L225.654 389.185L227.521 389.899ZM225.685 394.701L227.552 395.416L227.553 395.416L225.685 394.701ZM224.454 397.914L224.454 399.914L225.83 399.914L226.322 398.629L224.454 397.914ZM221.015 397.913L221.015 395.913L221.015 395.913L221.015 397.913ZM204.99 397.914H202.99V399.914L204.99 399.914L204.99 397.914ZM204.99 387.914L204.99 385.914L202.99 385.914V387.914H204.99ZM217.575 387.915L217.575 389.915L218.951 389.915L219.443 388.63L217.575 387.915ZM219.476 382.95L221.343 383.665L221.845 382.354L220.783 381.436L219.476 382.95ZM215.614 379.616L216.921 378.102L215.88 377.203L214.668 377.854L215.614 379.616ZM204.527 385.571L202.765 386.518L203.712 388.28L205.474 387.333L204.527 385.571ZM202.162 381.167L200.4 382.113L200.4 382.113L202.162 381.167ZM199.797 376.762L198.851 375L197.089 375.946L198.035 377.708L199.797 376.762ZM213.914 369.18L212.968 367.418L212.968 367.418L213.914 369.18ZM216.943 367.553L218.25 366.039L217.209 365.14L215.997 365.791L216.943 367.553ZM219.548 369.801L220.855 368.287L220.855 368.287L219.548 369.801ZM223.275 373.02L221.968 374.533L224.124 376.395L225.143 373.735L223.275 373.02ZM224.179 370.661L226.046 371.376L226.047 371.376L224.179 370.661ZM225.107 368.234L224.62 366.295L223.611 366.548L223.24 367.52L225.107 368.234ZM227.627 367.601L228.115 369.54L228.115 369.54L227.627 367.601ZM299.59 349.479L300.078 351.419L303.793 350.484L300.902 347.97L299.59 349.479ZM299.567 349.46L300.88 347.951L300.193 347.354L299.292 347.479L299.567 349.46ZM295.478 350.029L294.099 351.478L294.798 352.143L295.753 352.01L295.478 350.029ZM291.388 346.137L289.459 345.608L289.143 346.761L290.009 347.585L291.388 346.137ZM292.41 342.403L291.442 340.653L290.704 341.061L290.481 341.875L292.41 342.403ZM295.478 340.707L296.584 339.041L295.572 338.369L294.51 338.957L295.478 340.707ZM299.567 343.422L298.461 345.088L298.964 345.422H299.567V343.422ZM306.725 343.422L308.322 342.219L307.722 341.422H306.725V343.422ZM308.77 346.137L307.172 347.34L307.772 348.137H308.77V346.137ZM315.245 346.137L316.62 344.684L316.041 344.137H315.245V346.137ZM322.061 352.584L320.686 354.037L321.722 355.016L322.985 354.357L322.061 352.584ZM336.375 345.118L337.3 346.891L337.505 346.784L337.681 346.633L336.375 345.118ZM354.097 329.848L353.332 328L353.035 328.123L352.791 328.333L354.097 329.848ZM376.249 320.685L377.013 322.533L377.604 322.289L377.943 321.748L376.249 320.685ZM377.953 317.97L379.647 319.033L379.816 318.764L379.893 318.457L377.953 317.97ZM379.316 312.54L377.585 311.539L377.445 311.781L377.377 312.053L379.316 312.54ZM392.268 290.142L390.901 288.681L390.685 288.884L390.536 289.14L392.268 290.142ZM403.514 279.622L404.88 281.083L405.33 280.662L405.465 280.061L403.514 279.622ZM408.626 256.885L406.829 256.006L406.726 256.217L406.675 256.446L408.626 256.885ZM415.102 243.649L414.076 241.933L413.566 242.237L413.305 242.77L415.102 243.649ZM433.846 232.45L434.872 234.167L435.068 234.049L435.234 233.89L433.846 232.45ZM444.41 222.27L445.798 223.71L446.248 223.276L446.371 222.663L444.41 222.27ZM447.478 206.998L445.743 206.002L445.581 206.285L445.517 206.604L447.478 206.998ZM451.567 199.872L450.359 198.278L450.035 198.524L449.833 198.877L451.567 199.872ZM452.274 199.336L453.483 200.93L454.805 199.927L454.064 198.443L452.274 199.336ZM450.111 195.002L451.901 194.109L450.618 191.539L448.653 193.634L450.111 195.002ZM437.71 208.222L436.704 209.95L438.08 210.751L439.169 209.59L437.71 208.222ZM418.904 197.276L419.91 195.548L419.723 195.439L419.518 195.373L418.904 197.276ZM412.16 195.104L410.257 194.49L409.643 196.394L411.547 197.007L412.16 195.104ZM414.741 187.095L416.645 187.708L416.899 186.919L416.521 186.182L414.741 187.095ZM413.448 184.574L411.624 183.755L411.23 184.632L411.669 185.487L413.448 184.574ZM417.864 174.742L419.689 175.562L420.955 172.742H417.864V174.742ZM406.009 174.742L404.534 176.093L405.129 176.742H406.009V174.742ZM402.398 170.802L400.431 170.441L400.252 171.42L400.924 172.153L402.398 170.802ZM406.038 150.944L405.189 149.133L404.257 149.571L404.071 150.584L406.038 150.944ZM435.684 137.051L436.526 135.237L435.68 134.844L434.835 135.24L435.684 137.051ZM459.977 148.327L461.934 147.916L461.728 146.935L460.819 146.513L459.977 148.327ZM464.697 170.802L462.74 171.213L463.006 172.477L464.267 172.755L464.697 170.802ZM484.296 175.116L483.866 177.069L484.767 177.268L485.502 176.711L484.296 175.116ZM487.012 173.062L488.218 174.658L488.59 174.377L488.799 173.96L487.012 173.062ZM489.057 168.99L487.937 167.333L487.504 167.626L487.269 168.093L489.057 168.99ZM498.599 162.542L498.069 160.613L497.752 160.701L497.479 160.885L498.599 162.542ZM508.482 159.827L508.307 157.835L508.127 157.851L507.953 157.899L508.482 159.827ZM520.069 158.809L520.244 160.801L520.99 160.735L521.509 160.197L520.069 158.809ZM528.249 150.325L527.788 148.379L527.217 148.515L526.809 148.937L528.249 150.325ZM542.563 146.932L543.025 148.878L543.372 148.795L543.67 148.598L542.563 146.932ZM545.63 144.896L546.736 146.562L548.463 145.415L547.255 143.73L545.63 144.896ZM540.519 137.769L538.6 138.335L538.696 138.659L538.893 138.934L540.519 137.769ZM537.11 126.23L535.174 126.732L535.183 126.765L535.192 126.797L537.11 126.23ZM534.384 115.71L536.32 115.208L536.306 115.156L536.29 115.105L534.384 115.71ZM532.339 109.262L534.245 108.657L534.159 108.386L534.001 108.149L532.339 109.262ZM528.249 103.153L529.911 102.041L529.784 101.851L529.617 101.694L528.249 103.153ZM523.109 98.3359L524.477 96.8767L523.064 95.5525L521.695 96.9218L523.109 98.3359ZM511.622 109.824L510.208 111.238L511.622 112.653L513.036 111.238L511.622 109.824ZM502.43 100.632L501.015 99.2177L499.601 100.632L501.015 102.046L502.43 100.632ZM512.381 90.6797L513.795 92.0938L514.873 91.0156L514.119 89.6904L512.381 90.6797ZM507.119 81.4346H505.119V81.9638L505.381 82.4238L507.119 81.4346ZM507.119 77.0225L505.763 75.5527L505.119 76.1467V77.0225H507.119ZM521.092 64.127L520.2 62.3366L519.945 62.4637L519.735 62.6572L521.092 64.127ZM523.818 62.7695L524.157 60.7984L523.512 60.6877L522.927 60.9791L523.818 62.7695ZM533.702 64.4668L535.171 63.1093L534.71 62.6106L534.041 62.4956L533.702 64.4668ZM536.052 67.0088L534.583 68.3663L535.995 69.8939L537.466 68.423L536.052 67.0088ZM570.802 32.2598L572.216 33.674L573.63 32.2598L572.216 30.8456L570.802 32.2598ZM555.282 16.7402L553.868 15.326L552.454 16.7402L553.868 18.1544L555.282 16.7402ZM569.425 2.59766L570.565 0.954581L569.192 0.00179413L568.011 1.18344L569.425 2.59766ZM304.811 358.478L304.322 356.538L304.322 356.538L304.811 358.478ZM232.589 376.663L232.101 374.724L231.093 374.977L230.721 375.948L232.589 376.663ZM231.322 379.971L229.455 379.255L228.952 380.567L230.015 381.484L231.322 379.971ZM234.164 382.425L232.857 383.938L233.643 384.618L234.651 384.364L234.164 382.425ZM303.303 365.051L303.79 366.99L304.638 366.778L305.057 366.011L303.303 365.051ZM306.07 359.994L307.825 360.954L308.19 360.287L308.019 359.546L306.07 359.994ZM305.672 358.261L307.621 357.813L307.164 355.823L305.184 356.321L305.672 358.261ZM587.747 15.3135L589.161 16.7278L596.351 9.53931L594.937 8.125L593.522 6.71069L586.333 13.8992L587.747 15.3135ZM594.937 8.125L593.522 9.53921L602.715 18.7316L604.129 17.3174L605.543 15.9032L596.351 6.71079L594.937 8.125ZM604.129 17.3174L602.715 15.9031L595.48 23.1365L596.895 24.5508L598.309 25.9651L605.543 18.7317L604.129 17.3174ZM596.895 24.5508L595.253 25.6927L607.85 43.807L609.492 42.665L611.134 41.5231L598.536 23.4089L596.895 24.5508ZM609.492 42.665L608.078 41.2508L593.935 55.3934L595.35 56.8076L596.764 58.2218L610.906 44.0793L609.492 42.665ZM595.35 56.8076L596.764 55.3934L581.408 40.0379L579.994 41.4521L578.58 42.8664L593.935 58.2218L595.35 56.8076ZM579.994 41.4521L578.58 40.0379L539.174 79.4432L540.588 80.8574L542.002 82.2717L581.408 42.8664L579.994 41.4521ZM540.588 80.8574L538.602 80.6189L538.533 81.196L540.519 81.4346L542.504 81.6731L542.574 81.096L540.588 80.8574ZM540.519 81.4346L538.622 80.7996L536.918 85.8894L538.814 86.5244L540.711 87.1594L542.415 82.0695L540.519 81.4346ZM538.814 86.5244L537.21 87.718L544.025 96.8811L545.63 95.6875L547.235 94.4939L540.419 85.3308L538.814 86.5244ZM545.63 95.6875L544.188 97.0731L559.184 112.683L560.626 111.298L562.068 109.912L547.072 94.3019L545.63 95.6875ZM560.626 111.298L559.079 112.565L569.643 125.462L571.19 124.194L572.738 122.927L562.173 110.03L560.626 111.298ZM571.19 124.194L569.286 124.805L574.398 140.754L576.303 140.144L578.207 139.533L573.095 123.584L571.19 124.194ZM576.303 140.144L574.59 141.176L580.724 151.357L582.438 150.325L584.151 149.293L578.016 139.111L576.303 140.144ZM582.438 150.325L580.966 148.971L569.719 161.187L571.19 162.542L572.662 163.897L583.909 151.68L582.438 150.325ZM571.19 162.542L569.685 161.225L560.484 171.746L561.989 173.062L563.495 174.379L572.696 163.859L571.19 162.542ZM561.989 173.062L560.657 171.571L550.774 180.394L552.105 181.886L553.437 183.378L563.321 174.554L561.989 173.062ZM552.105 181.886L551.26 180.073L529.448 190.254L530.294 192.066L531.14 193.879L552.951 183.698L552.105 181.886ZM530.294 192.066L528.319 191.753L527.296 198.201L529.271 198.515L531.247 198.828L532.269 192.38L530.294 192.066ZM529.271 198.515L527.552 199.535L552.43 241.457L554.15 240.437L555.87 239.416L530.991 197.494L529.271 198.515ZM554.15 240.437H552.15V288.445H554.15H556.15V240.437H554.15ZM554.15 288.445L552.182 288.092L544.684 329.833L546.652 330.187L548.621 330.54L556.119 288.799L554.15 288.445ZM546.652 330.187L544.86 329.299L519.3 380.882L521.092 381.77L522.884 382.658L548.444 331.075L546.652 330.187ZM521.092 381.77L522.38 380.24L476.03 341.213L474.742 342.743L473.454 344.273L519.804 383.299L521.092 381.77ZM474.742 342.743L476.627 342.074L468.789 320.015L466.904 320.685L465.02 321.354L472.858 343.413L474.742 342.743ZM466.904 320.685L468.655 319.718L464.906 312.93L463.155 313.897L461.405 314.864L465.154 321.652L466.904 320.685ZM463.155 313.897L464.877 312.88L458.061 301.342L456.339 302.359L454.617 303.377L461.433 314.915L463.155 313.897ZM456.339 302.359V300.359H451.227V302.359V304.359H456.339V302.359ZM451.227 302.359L452.878 301.232L441.291 284.263L439.64 285.391L437.988 286.518L449.575 303.487L451.227 302.359ZM439.64 285.391L437.769 284.682L430.953 302.668L432.823 303.377L434.693 304.086L441.51 286.099L439.64 285.391ZM432.823 303.377L431.077 302.403L425.964 311.566L427.711 312.54L429.457 313.514L434.57 304.351L432.823 303.377ZM427.711 312.54L426.266 311.157L412.294 325.749L413.738 327.132L415.183 328.515L429.155 313.923L427.711 312.54ZM413.738 327.132L412.621 325.473L401.033 333.279L402.15 334.938L403.268 336.596L414.856 328.791L413.738 327.132ZM402.15 334.938L400.158 334.764L399.476 342.569L401.469 342.743L403.461 342.917L404.143 335.111L402.15 334.938ZM401.469 342.743L400.404 341.05L387.454 349.195L388.519 350.888L389.583 352.581L402.534 344.436L401.469 342.743ZM388.519 350.888L387.375 349.247L373.742 358.749L374.886 360.39L376.029 362.03L389.662 352.528L388.519 350.888ZM374.886 360.39L374.288 358.481L338.504 369.68L339.102 371.589L339.699 373.498L375.483 362.298L374.886 360.39ZM339.102 371.589L338.828 369.608L326.558 371.304L326.832 373.285L327.106 375.266L339.375 373.57L339.102 371.589ZM326.832 373.285L325.896 371.518L309.878 380.002L310.814 381.77L311.751 383.537L327.768 375.053L326.832 373.285ZM310.814 381.77L311.139 379.796L291.186 376.515L290.861 378.488L290.537 380.462L310.49 383.743L310.814 381.77ZM290.861 378.488L290.374 376.549L233.595 390.817L234.082 392.757L234.569 394.697L291.349 380.428L290.861 378.488ZM234.082 392.757L233.594 390.817L231.075 391.451L231.562 393.391L232.05 395.33L234.57 394.696L234.082 392.757ZM231.562 393.391L232.87 391.877L230.903 390.178L229.596 391.691L228.288 393.205L230.255 394.904L231.562 393.391ZM229.596 391.691L230.903 390.178L228.829 388.386L227.521 389.899L226.214 391.413L228.288 393.205L229.596 391.691ZM227.521 389.899L225.654 389.185L223.817 393.987L225.685 394.701L227.553 395.416L229.389 390.614L227.521 389.899ZM225.685 394.701L223.817 393.986L222.586 397.199L224.454 397.914L226.322 398.629L227.552 395.416L225.685 394.701ZM224.454 397.914L224.455 395.914L221.015 395.913L221.015 397.913L221.014 399.913L224.454 399.914L224.454 397.914ZM221.015 397.913L221.015 395.913L204.99 395.914L204.99 397.914L204.99 399.914L221.015 399.913L221.015 397.913ZM204.99 397.914H206.99V387.914H204.99H202.99V397.914H204.99ZM204.99 387.914L204.99 389.914L217.575 389.915L217.575 387.915L217.575 385.915L204.99 385.914L204.99 387.914ZM217.575 387.915L219.443 388.63L221.343 383.665L219.476 382.95L217.608 382.235L215.707 387.2L217.575 387.915ZM219.476 382.95L220.783 381.436L216.921 378.102L215.614 379.616L214.307 381.13L218.169 384.464L219.476 382.95ZM215.614 379.616L214.668 377.854L203.581 383.809L204.527 385.571L205.474 387.333L216.561 381.378L215.614 379.616ZM204.527 385.571L206.289 384.625L203.924 380.221L202.162 381.167L200.4 382.113L202.765 386.518L204.527 385.571ZM202.162 381.167L203.924 380.221L201.559 375.816L199.797 376.762L198.035 377.708L200.4 382.113L202.162 381.167ZM199.797 376.762L200.743 378.524L214.86 370.942L213.914 369.18L212.968 367.418L198.851 375L199.797 376.762ZM213.914 369.18L214.86 370.942L217.89 369.315L216.943 367.553L215.997 365.791L212.968 367.418L213.914 369.18ZM216.943 367.553L215.637 369.067L218.241 371.315L219.548 369.801L220.855 368.287L218.25 366.039L216.943 367.553ZM219.548 369.801L218.241 371.315L221.968 374.533L223.275 373.02L224.583 371.506L220.855 368.287L219.548 369.801ZM223.275 373.02L225.143 373.735L226.046 371.376L224.179 370.661L222.311 369.946L221.408 372.304L223.275 373.02ZM224.179 370.661L226.047 371.376L226.975 368.949L225.107 368.234L223.24 367.52L222.311 369.946L224.179 370.661ZM225.107 368.234L225.595 370.174L228.115 369.54L227.627 367.601L227.139 365.661L224.62 366.295L225.107 368.234ZM227.627 367.601L228.115 369.54L300.078 351.419L299.59 349.479L299.101 347.54L227.139 365.661L227.627 367.601ZM299.59 349.479L300.902 347.97L300.88 347.951L299.567 349.46L298.255 350.969L298.277 350.989L299.59 349.479ZM299.567 349.46L299.292 347.479L295.202 348.048L295.478 350.029L295.753 352.01L299.843 351.441L299.567 349.46ZM295.478 350.029L296.856 348.581L292.767 344.688L291.388 346.137L290.009 347.585L294.099 351.478L295.478 350.029ZM291.388 346.137L293.317 346.665L294.339 342.932L292.41 342.403L290.481 341.875L289.459 345.608L291.388 346.137ZM292.41 342.403L293.378 344.154L296.445 342.457L295.478 340.707L294.51 338.957L291.442 340.653L292.41 342.403ZM295.478 340.707L294.371 342.373L298.461 345.088L299.567 343.422L300.673 341.756L296.584 339.041L295.478 340.707ZM299.567 343.422V345.422H306.725V343.422V341.422H299.567V343.422ZM306.725 343.422L305.127 344.625L307.172 347.34L308.77 346.137L310.367 344.933L308.322 342.219L306.725 343.422ZM308.77 346.137V348.137H315.245V346.137V344.137H308.77V346.137ZM315.245 346.137L313.871 347.59L320.686 354.037L322.061 352.584L323.435 351.131L316.62 344.684L315.245 346.137ZM322.061 352.584L322.985 354.357L337.3 346.891L336.375 345.118L335.45 343.345L321.136 350.811L322.061 352.584ZM336.375 345.118L337.681 346.633L355.402 331.363L354.097 329.848L352.791 328.333L335.069 343.603L336.375 345.118ZM354.097 329.848L354.861 331.696L377.013 322.533L376.249 320.685L375.485 318.836L353.332 328L354.097 329.848ZM376.249 320.685L377.943 321.748L379.647 319.033L377.953 317.97L376.259 316.906L374.555 319.621L376.249 320.685ZM377.953 317.97L379.893 318.457L381.256 313.027L379.316 312.54L377.377 312.053L376.013 317.483L377.953 317.97ZM379.316 312.54L381.048 313.541L393.999 291.143L392.268 290.142L390.536 289.14L377.585 311.539L379.316 312.54ZM392.268 290.142L393.634 291.602L404.88 281.083L403.514 279.622L402.147 278.161L390.901 288.681L392.268 290.142ZM403.514 279.622L405.465 280.061L410.577 257.323L408.626 256.885L406.675 256.446L401.562 279.183L403.514 279.622ZM408.626 256.885L410.422 257.764L416.898 244.528L415.102 243.649L413.305 242.77L406.829 256.006L408.626 256.885ZM415.102 243.649L416.127 245.366L434.872 234.167L433.846 232.45L432.82 230.733L414.076 241.933L415.102 243.649ZM433.846 232.45L435.234 233.89L445.798 223.71L444.41 222.27L443.022 220.829L432.458 231.01L433.846 232.45ZM444.41 222.27L446.371 222.663L449.438 207.392L447.478 206.998L445.517 206.604L442.449 221.876L444.41 222.27ZM447.478 206.998L449.212 207.994L453.302 200.868L451.567 199.872L449.833 198.877L445.743 206.002L447.478 206.998ZM451.567 199.872L452.776 201.466L453.483 200.93L452.274 199.336L451.066 197.742L450.359 198.278L451.567 199.872ZM452.274 199.336L454.064 198.443L451.901 194.109L450.111 195.002L448.322 195.895L450.485 200.229L452.274 199.336ZM450.111 195.002L448.653 193.634L436.251 206.853L437.71 208.222L439.169 209.59L451.57 196.37L450.111 195.002ZM437.71 208.222L438.716 206.493L419.91 195.548L418.904 197.276L417.898 199.005L436.704 209.95L437.71 208.222ZM418.904 197.276L419.518 195.373L412.773 193.2L412.16 195.104L411.547 197.007L418.291 199.18L418.904 197.276ZM412.16 195.104L414.064 195.717L416.645 187.708L414.741 187.095L412.838 186.481L410.257 194.49L412.16 195.104ZM414.741 187.095L416.521 186.182L415.228 183.661L413.448 184.574L411.669 185.487L412.962 188.008L414.741 187.095ZM413.448 184.574L415.273 185.394L419.689 175.562L417.864 174.742L416.04 173.923L411.624 183.755L413.448 184.574ZM417.864 174.742V172.742H406.009V174.742V176.742H417.864V174.742ZM406.009 174.742L407.483 173.391L403.873 169.451L402.398 170.802L400.924 172.153L404.534 176.093L406.009 174.742ZM402.398 170.802L404.366 171.162L408.005 151.305L406.038 150.944L404.071 150.584L400.431 170.441L402.398 170.802ZM406.038 150.944L406.887 152.755L436.532 138.862L435.684 137.051L434.835 135.24L405.189 149.133L406.038 150.944ZM435.684 137.051L434.842 138.865L459.134 150.141L459.977 148.327L460.819 146.513L436.526 135.237L435.684 137.051ZM459.977 148.327L458.019 148.738L462.74 171.213L464.697 170.802L466.655 170.391L461.934 147.916L459.977 148.327ZM464.697 170.802L464.267 172.755L483.866 177.069L484.296 175.116L484.726 173.163L465.127 168.849L464.697 170.802ZM484.296 175.116L485.502 176.711L488.218 174.658L487.012 173.062L485.805 171.467L483.09 173.521L484.296 175.116ZM487.012 173.062L488.799 173.96L490.844 169.888L489.057 168.99L487.269 168.093L485.224 172.165L487.012 173.062ZM489.057 168.99L490.176 170.647L499.718 164.199L498.599 162.542L497.479 160.885L487.937 167.333L489.057 168.99ZM498.599 162.542L499.128 164.471L509.012 161.756L508.482 159.827L507.953 157.899L498.069 160.613L498.599 162.542ZM508.482 159.827L508.658 161.819L520.244 160.801L520.069 158.809L519.894 156.816L508.307 157.835L508.482 159.827ZM520.069 158.809L521.509 160.197L529.689 151.713L528.249 150.325L526.809 148.937L518.63 157.42L520.069 158.809ZM528.249 150.325L528.71 152.271L543.025 148.878L542.563 146.932L542.102 144.986L527.788 148.379L528.249 150.325ZM542.563 146.932L543.67 148.598L546.736 146.562L545.63 144.896L544.524 143.229L541.457 145.266L542.563 146.932ZM545.63 144.896L547.255 143.73L542.144 136.603L540.519 137.769L538.893 138.934L544.005 146.061L545.63 144.896ZM540.519 137.769L542.437 137.202L539.028 125.664L537.11 126.23L535.192 126.797L538.6 138.335L540.519 137.769ZM537.11 126.23L539.046 125.729L536.32 115.208L534.384 115.71L532.448 116.212L535.174 126.732L537.11 126.23ZM534.384 115.71L536.29 115.105L534.245 108.657L532.339 109.262L530.432 109.866L532.477 116.315L534.384 115.71ZM532.339 109.262L534.001 108.149L529.911 102.041L528.249 103.153L526.587 104.266L530.677 110.374L532.339 109.262ZM528.249 103.153L529.617 101.694L524.477 96.8767L523.109 98.3359L521.742 99.7952L526.881 104.613L528.249 103.153ZM523.109 98.3359L521.695 96.9218L510.208 108.41L511.622 109.824L513.036 111.238L524.524 99.7501L523.109 98.3359ZM511.622 109.824L513.036 108.41L503.844 99.2176L502.43 100.632L501.015 102.046L510.208 111.238L511.622 109.824ZM502.43 100.632L503.844 102.046L513.795 92.0938L512.381 90.6797L510.967 89.2655L501.015 99.2177L502.43 100.632ZM512.381 90.6797L514.119 89.6904L508.857 80.4453L507.119 81.4346L505.381 82.4238L510.643 91.669L512.381 90.6797ZM507.119 81.4346H509.119V77.0225H507.119H505.119V81.4346H507.119ZM507.119 77.0225L508.476 78.4922L522.448 65.5967L521.092 64.127L519.735 62.6572L505.763 75.5527L507.119 77.0225ZM521.092 64.127L521.983 65.9173L524.71 64.5599L523.818 62.7695L522.927 60.9791L520.2 62.3366L521.092 64.127ZM523.818 62.7695L523.48 64.7407L533.364 66.4379L533.702 64.4668L534.041 62.4956L524.157 60.7984L523.818 62.7695ZM533.702 64.4668L532.233 65.8243L534.583 68.3663L536.052 67.0088L537.52 65.6512L535.171 63.1093L533.702 64.4668ZM536.052 67.0088L537.466 68.423L572.216 33.674L570.802 32.2598L569.388 30.8455L534.638 65.5946L536.052 67.0088ZM570.802 32.2598L572.216 30.8456L556.696 15.326L555.282 16.7402L553.868 18.1544L569.388 33.674L570.802 32.2598ZM555.282 16.7402L556.696 18.1544L570.839 4.01187L569.425 2.59766L568.011 1.18344L553.868 15.326L555.282 16.7402ZM569.425 2.59766L568.284 4.24073L586.607 16.9566L587.747 15.3135L588.887 13.6704L570.565 0.954581L569.425 2.59766ZM304.811 358.478L304.322 356.538L232.101 374.724L232.589 376.663L233.077 378.603L305.299 360.417L304.811 358.478ZM232.589 376.663L230.721 375.948L229.455 379.255L231.322 379.971L233.19 380.686L234.457 377.378L232.589 376.663ZM231.322 379.971L230.015 381.484L232.857 383.938L234.164 382.425L235.471 380.911L232.629 378.457L231.322 379.971ZM234.164 382.425L234.651 384.364L303.79 366.99L303.303 365.051L302.815 363.111L233.677 380.485L234.164 382.425ZM303.303 365.051L305.057 366.011L307.825 360.954L306.07 359.994L304.316 359.034L301.548 364.091L303.303 365.051ZM306.07 359.994L308.019 359.546L307.621 357.813L305.672 358.261L303.723 358.709L304.121 360.442L306.07 359.994ZM305.672 358.261L305.184 356.321L304.322 356.538L304.811 358.478L305.299 360.417L306.16 360.2L305.672 358.261Z" fill="#EB7333" mask="url(#path-1-outside-1_1165_7841)"/>
<mask id="path-3-outside-2_1165_7841" maskUnits="userSpaceOnUse" x="-0.546875" y="322.77" width="571" height="217" fill="black">
<rect fill="white" x="-0.546875" y="322.77" width="571" height="217"/>
<path d="M568.453 537.77H431.453V382.77H568.453V537.77ZM415.682 334.234L420.453 343.377L393.866 385.363L381.255 406.018L366.599 422.271L349.896 436.492L339.33 454.438L336.944 461.21L336.263 470.014L330.809 475.77H320.583L315.13 471.029L310.357 461.21L287.521 446.988V438.862L285.209 432.994L216.219 451.619L208.38 465.298V505.309L223.24 509.32H244.624L260.354 536.77H97.9951V513.174L59.6406 502.819L3.45312 404.77H309.453L296.138 428.004L303.541 432.09L304.563 438.185L320.242 443.264L326.378 433.444L332.173 420.916L349.896 378.591L360.122 365.047L361.145 360.307L403.751 325.77L415.682 334.234ZM177.455 397.91L198.596 398.106L167.442 403.242L98.3965 403.462L163.54 398.218L129.446 395.439L204.886 388.846L177.455 397.91Z"/>
</mask>
<path d="M568.453 537.77H431.453V382.77H568.453V537.77ZM415.682 334.234L420.453 343.377L393.866 385.363L381.255 406.018L366.599 422.271L349.896 436.492L339.33 454.438L336.944 461.21L336.263 470.014L330.809 475.77H320.583L315.13 471.029L310.357 461.21L287.521 446.988V438.862L285.209 432.994L216.219 451.619L208.38 465.298V505.309L223.24 509.32H244.624L260.354 536.77H97.9951V513.174L59.6406 502.819L3.45312 404.77H309.453L296.138 428.004L303.541 432.09L304.563 438.185L320.242 443.264L326.378 433.444L332.173 420.916L349.896 378.591L360.122 365.047L361.145 360.307L403.751 325.77L415.682 334.234ZM177.455 397.91L198.596 398.106L167.442 403.242L98.3965 403.462L163.54 398.218L129.446 395.439L204.886 388.846L177.455 397.91Z" fill="#170800"/>
<path d="M568.453 537.77V539.77H570.453V537.77H568.453ZM431.453 537.77H429.453V539.77H431.453V537.77ZM431.453 382.77V380.77H429.453V382.77H431.453ZM568.453 382.77H570.453V380.77H568.453V382.77ZM415.682 334.234L417.455 333.309L417.232 332.882L416.839 332.603L415.682 334.234ZM420.453 343.377L422.143 344.447L422.759 343.473L422.226 342.452L420.453 343.377ZM393.866 385.363L392.176 384.293L392.168 384.307L392.159 384.321L393.866 385.363ZM381.255 406.018L382.74 407.357L382.865 407.219L382.962 407.06L381.255 406.018ZM366.599 422.271L367.895 423.793L367.996 423.708L368.084 423.61L366.599 422.271ZM349.896 436.492L348.6 434.969L348.344 435.188L348.173 435.477L349.896 436.492ZM339.33 454.438L337.607 453.423L337.508 453.59L337.444 453.773L339.33 454.438ZM336.944 461.21L335.058 460.545L334.971 460.793L334.95 461.056L336.944 461.21ZM336.263 470.014L337.714 471.389L338.202 470.875L338.257 470.168L336.263 470.014ZM330.809 475.77V477.77H331.669L332.26 477.145L330.809 475.77ZM320.583 475.77L319.271 477.279L319.835 477.77H320.583V475.77ZM315.13 471.029L313.331 471.904L313.51 472.271L313.818 472.539L315.13 471.029ZM310.357 461.21L312.156 460.336L311.904 459.817L311.415 459.512L310.357 461.21ZM287.521 446.988H285.521V448.099L286.463 448.686L287.521 446.988ZM287.521 438.862H289.521V438.483L289.381 438.129L287.521 438.862ZM285.209 432.994L287.07 432.261L286.414 430.597L284.688 431.063L285.209 432.994ZM216.219 451.619L215.697 449.688L214.896 449.905L214.483 450.625L216.219 451.619ZM208.38 465.298L206.645 464.303L206.38 464.765V465.298H208.38ZM208.38 505.309H206.38V506.84L207.859 507.239L208.38 505.309ZM223.24 509.32L222.719 511.251L222.975 511.32H223.24V509.32ZM244.624 509.32L246.359 508.326L245.783 507.32H244.624V509.32ZM260.354 536.77V538.77H263.805L262.089 535.775L260.354 536.77ZM97.9951 536.77H95.9951V538.77H97.9951V536.77ZM97.9951 513.174H99.9951V511.642L98.5164 511.243L97.9951 513.174ZM59.6406 502.819L57.9054 503.814L58.318 504.534L59.1194 504.75L59.6406 502.819ZM3.45312 404.77V402.77H0.00191034L1.71785 405.764L3.45312 404.77ZM309.453 404.77L311.188 405.764L312.904 402.77H309.453V404.77ZM296.138 428.004L294.402 427.009L293.392 428.773L295.171 429.755L296.138 428.004ZM303.541 432.09L305.513 431.759L305.354 430.806L304.507 430.339L303.541 432.09ZM304.563 438.185L302.591 438.515L302.792 439.713L303.947 440.087L304.563 438.185ZM320.242 443.264L319.626 445.166L321.111 445.647L321.938 444.324L320.242 443.264ZM326.378 433.444L328.074 434.504L328.14 434.398L328.193 434.284L326.378 433.444ZM332.173 420.916L333.988 421.756L334.003 421.722L334.018 421.689L332.173 420.916ZM349.896 378.591L348.3 377.386L348.149 377.586L348.052 377.818L349.896 378.591ZM360.122 365.047L361.718 366.252L361.984 365.9L362.077 365.469L360.122 365.047ZM361.145 360.307L359.885 358.753L359.338 359.196L359.189 359.885L361.145 360.307ZM403.751 325.77L404.908 324.138L403.671 323.26L402.492 324.216L403.751 325.77ZM177.455 397.91L176.828 396.011L177.437 399.91L177.455 397.91ZM198.596 398.106L198.921 400.08L198.614 396.107L198.596 398.106ZM167.442 403.242L167.449 405.242L167.609 405.242L167.768 405.216L167.442 403.242ZM98.3965 403.462L98.236 401.468L98.4028 405.462L98.3965 403.462ZM163.54 398.218L163.701 400.211L163.702 396.224L163.54 398.218ZM129.446 395.439L129.272 393.447L129.284 397.433L129.446 395.439ZM204.886 388.846L205.513 390.745L204.712 386.853L204.886 388.846ZM568.453 537.77V535.77H431.453V537.77V539.77H568.453V537.77ZM431.453 537.77H433.453V382.77H431.453H429.453V537.77H431.453ZM431.453 382.77V384.77H568.453V382.77V380.77H431.453V382.77ZM568.453 382.77H566.453V537.77H568.453H570.453V382.77H568.453ZM415.682 334.234L413.909 335.16L418.68 344.302L420.453 343.377L422.226 342.452L417.455 333.309L415.682 334.234ZM420.453 343.377L418.763 342.307L392.176 384.293L393.866 385.363L395.556 386.433L422.143 344.447L420.453 343.377ZM393.866 385.363L392.159 384.321L379.548 404.975L381.255 406.018L382.962 407.06L395.573 386.406L393.866 385.363ZM381.255 406.018L379.77 404.678L365.113 420.931L366.599 422.271L368.084 423.61L382.74 407.357L381.255 406.018ZM366.599 422.271L365.302 420.748L348.6 434.969L349.896 436.492L351.193 438.015L367.895 423.793L366.599 422.271ZM349.896 436.492L348.173 435.477L337.607 453.423L339.33 454.438L341.054 455.452L351.62 437.507L349.896 436.492ZM339.33 454.438L337.444 453.773L335.058 460.545L336.944 461.21L338.831 461.874L341.216 455.102L339.33 454.438ZM336.944 461.21L334.95 461.056L334.269 469.859L336.263 470.014L338.257 470.168L338.938 461.364L336.944 461.21ZM336.263 470.014L334.811 468.638L329.357 474.394L330.809 475.77L332.26 477.145L337.714 471.389L336.263 470.014ZM330.809 475.77V473.77H320.583V475.77V477.77H330.809V475.77ZM320.583 475.77L321.895 474.26L316.442 469.52L315.13 471.029L313.818 472.539L319.271 477.279L320.583 475.77ZM315.13 471.029L316.929 470.155L312.156 460.336L310.357 461.21L308.559 462.084L313.331 471.904L315.13 471.029ZM310.357 461.21L311.415 459.512L288.578 445.291L287.521 446.988L286.463 448.686L309.3 462.908L310.357 461.21ZM287.521 446.988H289.521V438.862H287.521H285.521V446.988H287.521ZM287.521 438.862L289.381 438.129L287.07 432.261L285.209 432.994L283.348 433.727L285.66 439.595L287.521 438.862ZM285.209 432.994L284.688 431.063L215.697 449.688L216.219 451.619L216.74 453.55L285.73 434.925L285.209 432.994ZM216.219 451.619L214.483 450.625L206.645 464.303L208.38 465.298L210.115 466.292L217.954 452.614L216.219 451.619ZM208.38 465.298H206.38V505.309H208.38H210.38V465.298H208.38ZM208.38 505.309L207.859 507.239L222.719 511.251L223.24 509.32L223.761 507.389L208.901 503.378L208.38 505.309ZM223.24 509.32V511.32H244.624V509.32V507.32H223.24V509.32ZM244.624 509.32L242.889 510.315L258.618 537.764L260.354 536.77L262.089 535.775L246.359 508.326L244.624 509.32ZM260.354 536.77V534.77H97.9951V536.77V538.77H260.354V536.77ZM97.9951 536.77H99.9951V513.174H97.9951H95.9951V536.77H97.9951ZM97.9951 513.174L98.5164 511.243L60.1619 500.888L59.6406 502.819L59.1194 504.75L97.4738 515.105L97.9951 513.174ZM59.6406 502.819L61.3759 501.825L5.1884 403.775L3.45312 404.77L1.71785 405.764L57.9054 503.814L59.6406 502.819ZM3.45312 404.77V406.77H309.453V404.77V402.77H3.45312V404.77ZM309.453 404.77L307.718 403.775L294.402 427.009L296.138 428.004L297.873 428.998L311.188 405.764L309.453 404.77ZM296.138 428.004L295.171 429.755L302.575 433.841L303.541 432.09L304.507 430.339L297.104 426.253L296.138 428.004ZM303.541 432.09L301.569 432.421L302.591 438.515L304.563 438.185L306.536 437.854L305.513 431.759L303.541 432.09ZM304.563 438.185L303.947 440.087L319.626 445.166L320.242 443.264L320.859 441.361L305.18 436.282L304.563 438.185ZM320.242 443.264L321.938 444.324L328.074 434.504L326.378 433.444L324.682 432.385L318.546 442.204L320.242 443.264ZM326.378 433.444L328.193 434.284L333.988 421.756L332.173 420.916L330.358 420.076L324.563 432.605L326.378 433.444ZM332.173 420.916L334.018 421.689L351.741 379.363L349.896 378.591L348.052 377.818L330.328 420.144L332.173 420.916ZM349.896 378.591L351.493 379.796L361.718 366.252L360.122 365.047L358.526 363.842L348.3 377.386L349.896 378.591ZM360.122 365.047L362.077 365.469L363.1 360.728L361.145 360.307L359.189 359.885L358.167 364.625L360.122 365.047ZM361.145 360.307L362.404 361.86L405.01 327.323L403.751 325.77L402.492 324.216L359.885 358.753L361.145 360.307ZM403.751 325.77L402.594 327.401L414.524 335.866L415.682 334.234L416.839 332.603L404.908 324.138L403.751 325.77ZM177.455 397.91L177.437 399.91L198.577 400.106L198.596 398.106L198.614 396.107L177.474 395.91L177.455 397.91ZM198.596 398.106L198.27 396.133L167.117 401.269L167.442 403.242L167.768 405.216L198.921 400.08L198.596 398.106ZM167.442 403.242L167.436 401.242L98.3901 401.462L98.3965 403.462L98.4028 405.462L167.449 405.242L167.442 403.242ZM98.3965 403.462L98.557 405.455L163.701 400.211L163.54 398.218L163.38 396.224L98.236 401.468L98.3965 403.462ZM163.54 398.218L163.702 396.224L129.609 393.446L129.446 395.439L129.284 397.433L163.378 400.211L163.54 398.218ZM129.446 395.439L129.62 397.432L205.06 390.838L204.886 388.846L204.712 386.853L129.272 393.447L129.446 395.439ZM204.886 388.846L204.258 386.947L176.828 396.011L177.455 397.91L178.083 399.809L205.513 390.745L204.886 388.846Z" fill="#EB7333" mask="url(#path-3-outside-2_1165_7841)"/>
<path d="M468.888 375.064L501.404 407.74L502.186 408.526L501.324 409.224L487.437 420.456L487.387 420.496L487.332 420.53L476.832 426.997L476.754 427.046L476.667 427.079L458.355 434.133L478.821 445.352L478.896 445.393L478.963 445.445L517.728 476.271L535.782 479.968L535.858 479.983L535.931 480.01L545.076 483.414L545.465 483.559L545.637 483.936L549.363 492.105L549.54 492.493L549.382 492.89L546.673 499.697L546.562 499.975L546.318 500.146L536.438 507.095L529.427 530.252L529.311 530.634L528.964 530.831L518.803 536.617L518.602 536.731L518.371 536.746L502.112 537.768L501.71 537.793L501.402 537.531L496.999 533.787L496.646 533.487V527.667L497.577 527.603L507.098 526.942L510.872 524.024V500.026L507.812 498.908L421.458 469.982L421.428 469.972L421.398 469.96L385.495 455.323L385.121 455.171L384.958 454.802L379.539 442.548L379.442 442.33L379.454 442.092L379.793 435.624L379.806 435.386L379.925 435.179L401.602 397.396L401.791 397.067L402.15 396.946L467.859 374.822L468.449 374.623L468.888 375.064Z" fill="#170800" stroke="#EB7333" stroke-width="2"/>
<path d="M594.47 429.117L609.333 473.155L609.583 473.897L608.923 474.318L602.145 478.644L607.609 493.475L613.354 505.334L614.592 507.891L612.024 506.673L586.939 494.775L586.498 494.565L586.392 494.088L584.487 485.493L574.216 482.597L574.132 482.572L574.054 482.535L549.308 470.638L549.203 470.587L549.113 470.515L533.521 457.937L533.46 457.889L533.408 457.831L519.171 442.194L519.037 442.047L518.97 441.859L514.592 429.703L505.928 414.329L499.19 409.505L489.388 408.194L477.31 409.541L476.879 409.589L476.55 409.308L467.513 401.588L463.271 399.765L446.018 406.087L445.851 406.147H435.358L435.219 406.106L413.806 399.731L402.566 403.047L402.122 403.179L401.734 402.924L391.904 396.465L391.38 396.121L391.462 395.499L395.529 364.564L395.549 364.419L395.609 364.284L405.101 343.208L405.179 343.034L405.315 342.901L416.502 332.023L416.846 331.689L417.32 331.748L433.931 333.788L434.023 333.799L434.112 333.827L452.819 339.782L437.036 315.265L436.849 314.974L436.882 314.629L439.933 282.675L441.924 282.687L443.933 306.867L449.306 313.84L468.972 318.854L469.092 318.885L469.201 318.943L481.716 325.728L494.891 331.825L509.45 337.938L509.632 338.014L509.771 338.153L518.477 346.884L523.03 349.302L525.732 340.272L525.8 340.047L525.961 339.875L531.385 334.096L531.593 333.874L531.889 333.806L540.585 331.793L547.938 328.107L549.186 327.481L549.376 328.865L550.709 338.556L570.54 377.318L581.576 386.709L581.764 386.869L581.855 387.099L594.398 418.373L594.47 418.552V429.117Z" fill="#170800" stroke="#EB7333" stroke-width="2"/>
</svg>
