<svg width="1421" height="1921" viewBox="0 0 1421 1921" fill="none" xmlns="http://www.w3.org/2000/svg">
<path d="M235.026 605.905L197.187 495.915L157.355 633.73L0 865.637L225.073 1094.89L191.213 1228.73L11.9662 1452.68V1603.75L364.515 1868.78L770.842 1920.46L920.226 1811.8L1240.91 1752.17L1326.55 1716.39L1420.17 1554.72V1430.15L1093.51 1139.94V948.761L1141.32 766.251L1093.51 605.905L964.046 853.711L750.924 922.619L705.112 1155.85L597.555 1023.33L750.924 741.073L472.072 495.915L573.654 183.178L458.129 305.091L312.728 405.804V495.915L346.588 579.399L410.326 633.73L422.277 703.963L380.449 730.467L346.588 774.197L246.998 798.049L175.278 730.467L235.026 605.905Z" fill="#EB7333"/>
<path d="M1319.69 1139.94L1155.67 1012.64L1303.69 836.973L1273.69 906.175L1329.69 1004.66L1303.69 1068.54L1319.69 1139.94Z" fill="#EB7333"/>
<path d="M919.631 703.963L869.623 751.8L853.62 661.303L793.611 564.154L691.595 534.875L573.654 457.689L723.6 268.712V142.285L839.618 329.93L793.611 415.103L839.618 457.689L901.628 375.178V329.93L1031.65 251.412L999.643 305.091L981.64 405.804L1013.65 443.05V486.967L919.631 550.846L901.628 624.042L919.631 703.963Z" fill="#EB7333"/>
<path d="M395.148 122.925L312.728 142.285V232.462L431.735 268.712L504.908 142.285L458.129 86.4145L472.072 0L410.326 41.3781L395.148 122.925Z" fill="#EB7333"/>
</svg>
