<svg width="854" height="731" viewBox="0 0 854 731" fill="none" xmlns="http://www.w3.org/2000/svg">
<path d="M128.016 571L125.016 555L252.016 545.5L192.516 600L186.016 615L144.516 635.5L88.5156 697L101.016 720.5L3.51562 728L68.5156 608.5L125.016 580.5L128.016 571Z" fill="#EB7333" stroke="black" stroke-width="4"/>
<path d="M423.516 474.5L373.516 493L377.016 433L440.016 399L494.016 408.5L520.016 433L515.016 468L494.016 488.5L468.016 533L440.016 623.5H360.016L397.516 547.5L400.016 513L426.516 474.5H423.516Z" fill="#EB7333"/>
<path d="M436.016 474.5H426.516M426.516 474.5H423.516L373.516 493L377.016 433L440.016 399L494.016 408.5L520.016 433L515.016 468L494.016 488.5L468.016 533L440.016 623.5H360.016L397.516 547.5L400.016 513L426.516 474.5Z" stroke="black" stroke-width="4"/>
<path d="M204.516 192.5L278.516 167L395.516 173L438.016 178L457.516 192L487.516 195L530.016 204.5L570.016 183.5L633.016 180.5L666.516 155L696.016 160L709.516 173L682.016 228L638.016 223.5L537.516 265L511.016 257L419.516 262L410.516 286.5L391.016 298L379.516 333L359.516 360V396.5L246.516 471.5L198.516 389.5L217.516 349L205.016 290.5L208.516 279.75L193.016 291.5L156.016 305L145.016 336.5L89.5156 379L97.0156 418.5L86.0156 451.5L51.0156 487.5L20.0156 445.5L24.5156 418.5L57.5156 379L80.0156 319L114.016 268L176.016 228.5L204.516 192.5Z" fill="#EB7333"/>
<path d="M224.016 268L208.516 279.75M208.516 279.75L193.016 291.5L156.016 305L145.016 336.5L89.5156 379L97.0156 418.5L86.0156 451.5L51.0156 487.5L20.0156 445.5L24.5156 418.5L57.5156 379L80.0156 319L114.016 268L176.016 228.5L204.516 192.5L278.516 167L395.516 173L438.016 178L457.516 192L487.516 195L530.016 204.5L570.016 183.5L633.016 180.5L666.516 155L696.016 160L709.516 173L682.016 228L638.016 223.5L537.516 265L511.016 257L419.516 262M208.516 279.75L205.016 290.5L217.516 349L198.516 389.5L246.516 471.5L359.516 396.5V360L379.516 333L391.016 298L410.516 286.5L419.516 262M428.516 237.5L419.516 262" stroke="black" stroke-width="4"/>
<path d="M170.016 444L156.016 481L150.016 497.5L133.016 512L120.016 558L140.016 554.5L176.016 566L215.516 554.5L253.016 574.5L351.016 463.5L253.016 597.5L301.016 580.5L310.516 558L356.016 531L421.516 418L450.016 399.5L368.016 377.5L360.016 390L356.016 377.5L301.016 408.5L247.016 372L197.516 402L170.016 444Z" fill="#EB7333"/>
<path d="M360.016 390L356.016 377.5L301.016 408.5L247.016 372L197.516 402L170.016 444L156.016 481L150.016 497.5M360.016 390L308.016 452L234.516 512M360.016 390L368.016 377.5L450.016 399.5L421.516 418L356.016 531L310.516 558L301.016 580.5L253.016 597.5L351.016 463.5L253.016 574.5L215.516 554.5L176.016 566L140.016 554.5L120.016 558L133.016 512L150.016 497.5M197.516 468.5L150.016 497.5" stroke="black" stroke-width="4"/>
<path d="M792.156 10.9746L716.307 99.7129L729.384 125.415L787.548 63.5H775.23L779.159 60.7686L831.659 24.2686L837.599 20.1396L833.791 26.2891L801.291 78.7891L798.516 83.2725V73.2637L739.397 135.665L758.811 147.137L842.991 68.4043L848.948 62.833L845.363 70.1592L822.363 117.159L820.878 120.194L819.623 117.057L816.527 109.317L765.14 167.493L764.449 168.275L763.476 167.899L729.406 154.758L500.098 393.539L499.928 393.716L499.71 393.83L488.21 399.83L486.016 400.975V382.908L486.42 382.476L712.782 140.157L697.612 100.03L697.281 99.1533L697.924 98.4717L753.738 39.2285L746.65 34.2256L744.654 32.8164L746.814 31.6738L790.314 8.67383L797.263 5L792.156 10.9746Z" fill="#EB7333" stroke="black" stroke-width="3" stroke-miterlimit="16"/>
<path d="M380.445 213.605L369.96 172.512L353.461 162.721L363.601 116.607L394.903 87.0584L382.728 62.6982L356.078 51.1579L306.34 46.2357L267.88 73.6609L275.04 101.724L256.764 109.589L261.111 126.627L246.078 130.463L249.402 143.492L239.144 149.312L253.943 148.739L260.15 135.413L266.164 133.878L272.157 128.079L274.458 137.1L265.97 145.67L266.288 159.467L283.029 145.588L284.246 137.805L289.809 147.06L277.782 150.129L279.317 156.142L274.091 164.948L290.127 160.857L288.337 153.841L300.364 150.772L300.282 133.713L304.291 132.691L308.382 148.726L301.704 168.578L380.445 213.605Z" fill="#190901"/>
<path d="M380.445 213.605L369.96 172.512L353.461 162.721L363.601 116.607L394.903 87.0584L382.728 62.6982L356.078 51.1579L306.34 46.2357L267.88 73.6609L275.04 101.724L256.764 109.589L261.111 126.627L246.078 130.463L249.402 143.492L239.144 149.312L253.943 148.739L260.15 135.413L266.164 133.878L272.157 128.079L274.458 137.1L265.97 145.67L266.288 159.467L283.029 145.588L284.246 137.805L289.809 147.06L277.782 150.129L279.317 156.142L274.091 164.948L290.127 160.857L288.337 153.841L300.364 150.772L300.282 133.713L304.291 132.691L308.382 148.726L301.704 168.578" stroke="#EB7333" stroke-width="2"/>
<path d="M396.902 153.834L388.493 128.532L395.237 108.016L394.068 99.5281L394.006 86.734L363.877 81.6114L356.923 96.1955L344.62 93.9972L337.901 105.319L332.869 102.333L343.353 143.425L353.928 151.402L345.461 164.237L370.344 173.901L372.55 169.496L356.579 162.699L362.286 148.912L369.818 146.69L379.537 155.543L396.902 153.834Z" fill="#EB7333" stroke="#140100" stroke-width="2"/>
</svg>
