<svg width="2612" height="876" viewBox="0 0 2612 876" fill="none" xmlns="http://www.w3.org/2000/svg">
<rect width="2612" height="876" fill="#EB7333"/>
<g clip-path="url(#clip0_1385_11659)">
<rect width="1382" height="876" fill="#EB7333"/>
<path d="M-758 141.891V1239.93H-753.618V257.438L-718.465 185.252L-647.853 178.809L-612.703 244.229V1239.93H-550.696V239.605L-515.543 167.42L-444.931 160.977L-409.781 226.397V1239.93H-347.774V221.176L-312.621 148.99L-242.009 142.547L-206.859 207.968V1239.93H-144.853V202.742L-109.699 130.557L-39.0869 124.113L-3.9375 189.534V1239.93H58.0693V184.316L93.2227 112.131L163.835 105.688L198.984 171.108V1239.93H260.991V165.883L296.145 93.6973L366.757 87.2539L401.906 152.675V1239.93H463.913V147.453L499.066 75.2676L569.679 68.8242L604.828 134.245V1239.93H666.835V129.023L701.988 56.8379L772.601 50.3945L807.75 115.815V1239.93H869.757V110.586L904.91 38.4004L975.522 31.957L1010.67 97.3779V1239.93H1072.68V92.1641L1107.83 19.9785L1178.44 13.5352L1213.59 78.9561V1239.93H1275.6V74.3984L1310.75 2.21289L1381.37 -4.23047L1398.65 27.9355V-54L-758 141.891Z" fill="#140100"/>
<mask id="path-2-outside-1_1385_11659" maskUnits="userSpaceOnUse" x="-1258" y="364" width="4678" height="2816" fill="black">
<rect fill="white" x="-1258" y="364" width="4678" height="2816"/>
<path d="M3409.45 798.04V3169.34H3400V1047.57L3324.08 891.677L3171.59 877.762L3095.68 1019.04V3169.34H2961.76V1009.05L2885.84 853.165L2733.35 839.25L2657.45 980.531V3169.34H2523.53V969.266L2447.61 813.376L2295.12 799.461L2219.21 940.742V3169.34H2085.32V929.461L2009.4 773.571L1856.91 759.656L1781 900.938V3169.34H1647.07V889.656L1571.16 733.767L1418.67 719.852L1342.76 861.133V3169.34H1208.86V849.852L1132.94 693.962L980.447 680.047L904.539 821.328V3169.34H770.629V810.055L694.712 654.165L542.221 640.25L466.312 781.531V3169.34H332.41V770.25L256.493 614.36L104.002 600.445L28.0938 741.727V3169.34H-105.824V730.441L-181.741 574.552L-334.232 560.637L-410.141 701.918V3169.34H-544.043V690.648L-619.96 534.759L-772.451 520.844L-848.359 662.125V3169.34H-982.277V652.285L-1058.19 496.396L-1210.69 482.48L-1248 551.93V375L3409.45 798.04Z"/>
</mask>
<path d="M3409.45 798.04V3169.34H3400V1047.57L3324.08 891.677L3171.59 877.762L3095.68 1019.04V3169.34H2961.76V1009.05L2885.84 853.165L2733.35 839.25L2657.45 980.531V3169.34H2523.53V969.266L2447.61 813.376L2295.12 799.461L2219.21 940.742V3169.34H2085.32V929.461L2009.4 773.571L1856.91 759.656L1781 900.938V3169.34H1647.07V889.656L1571.16 733.767L1418.67 719.852L1342.76 861.133V3169.34H1208.86V849.852L1132.94 693.962L980.447 680.047L904.539 821.328V3169.34H770.629V810.055L694.712 654.165L542.221 640.25L466.312 781.531V3169.34H332.41V770.25L256.493 614.36L104.002 600.445L28.0938 741.727V3169.34H-105.824V730.441L-181.741 574.552L-334.232 560.637L-410.141 701.918V3169.34H-544.043V690.648L-619.96 534.759L-772.451 520.844L-848.359 662.125V3169.34H-982.277V652.285L-1058.19 496.396L-1210.69 482.48L-1248 551.93V375L3409.45 798.04Z" fill="#140100"/>
<path d="M3409.45 798.04H3419.45V788.907L3410.36 788.081L3409.45 798.04ZM3409.45 3169.34V3179.34H3419.45V3169.34H3409.45ZM3400 3169.34H3390V3179.34H3400V3169.34ZM3400 1047.57H3410V1045.26L3408.99 1043.19L3400 1047.57ZM3324.08 891.677L3333.07 887.298L3330.6 882.23L3324.99 881.718L3324.08 891.677ZM3171.59 877.762L3172.5 867.803L3165.91 867.202L3162.78 873.029L3171.59 877.762ZM3095.68 1019.04L3086.87 1014.31L3085.68 1016.53V1019.04H3095.68ZM3095.68 3169.34V3179.34H3105.68V3169.34H3095.68ZM2961.76 3169.34H2951.76V3179.34H2961.76V3169.34ZM2961.76 1009.05H2971.76V1006.75L2970.75 1004.68L2961.76 1009.05ZM2885.84 853.165L2894.84 848.787L2892.37 843.719L2886.75 843.206L2885.84 853.165ZM2733.35 839.25L2734.26 829.291L2727.68 828.69L2724.54 834.517L2733.35 839.25ZM2657.45 980.531L2648.64 975.798L2647.45 978.015V980.531H2657.45ZM2657.45 3169.34V3179.34H2667.45V3169.34H2657.45ZM2523.53 3169.34H2513.53V3179.34H2523.53V3169.34ZM2523.53 969.266H2533.53V966.96L2532.52 964.887L2523.53 969.266ZM2447.61 813.376L2456.6 808.998L2454.13 803.93L2448.52 803.417L2447.61 813.376ZM2295.12 799.461L2296.03 789.502L2289.44 788.901L2286.31 794.728L2295.12 799.461ZM2219.21 940.742L2210.4 936.009L2209.21 938.226V940.742H2219.21ZM2219.21 3169.34V3179.34H2229.21V3169.34H2219.21ZM2085.32 3169.34H2075.32V3179.34H2085.32V3169.34ZM2085.32 929.461H2095.32V927.155L2094.31 925.083L2085.32 929.461ZM2009.4 773.571L2018.39 769.193L2015.92 764.125L2010.31 763.613L2009.4 773.571ZM1856.91 759.656L1857.82 749.698L1851.23 749.097L1848.1 754.923L1856.91 759.656ZM1781 900.938L1772.19 896.205L1771 898.421V900.938H1781ZM1781 3169.34V3179.34H1791V3169.34H1781ZM1647.07 3169.34H1637.07V3179.34H1647.07V3169.34ZM1647.07 889.656H1657.07V887.351L1656.06 885.278L1647.07 889.656ZM1571.16 733.767L1580.15 729.388L1577.68 724.32L1572.07 723.808L1571.16 733.767ZM1418.67 719.852L1419.57 709.893L1412.99 709.292L1409.86 715.119L1418.67 719.852ZM1342.76 861.133L1333.95 856.4L1332.76 858.616V861.133H1342.76ZM1342.76 3169.34V3179.34H1352.76V3169.34H1342.76ZM1208.86 3169.34H1198.86V3179.34H1208.86V3169.34ZM1208.86 849.852H1218.86V847.546L1217.85 845.473L1208.86 849.852ZM1132.94 693.962L1141.93 689.584L1139.46 684.516L1133.85 684.003L1132.94 693.962ZM980.447 680.047L981.356 670.088L974.769 669.487L971.638 675.314L980.447 680.047ZM904.539 821.328L895.73 816.595L894.539 818.812V821.328H904.539ZM904.539 3169.34V3179.34H914.539V3169.34H904.539ZM770.629 3169.34H760.629V3179.34H770.629V3169.34ZM770.629 810.055H780.629V807.749L779.619 805.676L770.629 810.055ZM694.712 654.165L703.702 649.787L701.234 644.719L695.621 644.206L694.712 654.165ZM542.221 640.25L543.129 630.291L536.542 629.69L533.412 635.517L542.221 640.25ZM466.312 781.531L457.503 776.798L456.312 779.015V781.531H466.312ZM466.312 3169.34V3179.34H476.312V3169.34H466.312ZM332.41 3169.34H322.41V3179.34H332.41V3169.34ZM332.41 770.25H342.41V767.944L341.401 765.872L332.41 770.25ZM256.493 614.36L265.484 609.982L263.016 604.914L257.402 604.402L256.493 614.36ZM104.002 600.445L104.911 590.487L98.3235 589.886L95.1929 595.712L104.002 600.445ZM28.0938 741.727L19.2847 736.994L18.0938 739.21V741.727H28.0938ZM28.0938 3169.34V3179.34H38.0938V3169.34H28.0938ZM-105.824 3169.34H-115.824V3179.34H-105.824V3169.34ZM-105.824 730.441H-95.8242V728.136L-96.8337 726.063L-105.824 730.441ZM-181.741 574.552L-172.751 570.173L-175.219 565.105L-180.832 564.593L-181.741 574.552ZM-334.232 560.637L-333.324 550.678L-339.911 550.077L-343.041 555.904L-334.232 560.637ZM-410.141 701.918L-418.95 697.185L-420.141 699.402V701.918H-410.141ZM-410.141 3169.34V3179.34H-400.141V3169.34H-410.141ZM-544.043 3169.34H-554.043V3179.34H-544.043V3169.34ZM-544.043 690.648H-534.043V688.343L-535.052 686.27L-544.043 690.648ZM-619.96 534.759L-610.969 530.38L-613.437 525.312L-619.051 524.8L-619.96 534.759ZM-772.451 520.844L-771.542 510.885L-778.13 510.284L-781.26 516.111L-772.451 520.844ZM-848.359 662.125L-857.168 657.392L-858.359 659.609V662.125H-848.359ZM-848.359 3169.34V3179.34H-838.359V3169.34H-848.359ZM-982.277 3169.34H-992.277V3179.34H-982.277V3169.34ZM-982.277 652.285H-972.277V649.98L-973.287 647.907L-982.277 652.285ZM-1058.19 496.396L-1049.2 492.017L-1051.67 486.949L-1057.29 486.437L-1058.19 496.396ZM-1210.69 482.48L-1209.78 472.522L-1216.36 471.921L-1219.49 477.747L-1210.69 482.48ZM-1248 551.93H-1258L-1239.19 556.663L-1248 551.93ZM-1248 375L-1247.1 365.041L-1258 364.051V375H-1248ZM3409.45 798.04H3399.45V3169.34H3409.45H3419.45V798.04H3409.45ZM3409.45 3169.34V3159.34H3400V3169.34V3179.34H3409.45V3169.34ZM3400 3169.34H3410V1047.57H3400H3390V3169.34H3400ZM3400 1047.57L3408.99 1043.19L3333.07 887.298L3324.08 891.677L3315.09 896.055L3391.01 1051.94L3400 1047.57ZM3324.08 891.677L3324.99 881.718L3172.5 867.803L3171.59 877.762L3170.68 887.72L3323.17 901.635L3324.08 891.677ZM3171.59 877.762L3162.78 873.029L3086.87 1014.31L3095.68 1019.04L3104.49 1023.78L3180.4 882.495L3171.59 877.762ZM3095.68 1019.04H3085.68V3169.34H3095.68H3105.68V1019.04H3095.68ZM3095.68 3169.34V3159.34H2961.76V3169.34V3179.34H3095.68V3169.34ZM2961.76 3169.34H2971.76V1009.05H2961.76H2951.76V3169.34H2961.76ZM2961.76 1009.05L2970.75 1004.68L2894.84 848.787L2885.84 853.165L2876.85 857.543L2952.77 1013.43L2961.76 1009.05ZM2885.84 853.165L2886.75 843.206L2734.26 829.291L2733.35 839.25L2732.44 849.209L2884.94 863.124L2885.84 853.165ZM2733.35 839.25L2724.54 834.517L2648.64 975.798L2657.45 980.531L2666.25 985.264L2742.16 843.983L2733.35 839.25ZM2657.45 980.531H2647.45V3169.34H2657.45H2667.45V980.531H2657.45ZM2657.45 3169.34V3159.34H2523.53V3169.34V3179.34H2657.45V3169.34ZM2523.53 3169.34H2533.53V969.266H2523.53H2513.53V3169.34H2523.53ZM2523.53 969.266L2532.52 964.887L2456.6 808.998L2447.61 813.376L2438.62 817.754L2514.54 973.644L2523.53 969.266ZM2447.61 813.376L2448.52 803.417L2296.03 789.502L2295.12 799.461L2294.21 809.42L2446.7 823.335L2447.61 813.376ZM2295.12 799.461L2286.31 794.728L2210.4 936.009L2219.21 940.742L2228.02 945.475L2303.93 804.194L2295.12 799.461ZM2219.21 940.742H2209.21V3169.34H2219.21H2229.21V940.742H2219.21ZM2219.21 3169.34V3159.34H2085.32V3169.34V3179.34H2219.21V3169.34ZM2085.32 3169.34H2095.32V929.461H2085.32H2075.32V3169.34H2085.32ZM2085.32 929.461L2094.31 925.083L2018.39 769.193L2009.4 773.571L2000.41 777.95L2076.33 933.839L2085.32 929.461ZM2009.4 773.571L2010.31 763.613L1857.82 749.698L1856.91 759.656L1856 769.615L2008.49 783.53L2009.4 773.571ZM1856.91 759.656L1848.1 754.923L1772.19 896.205L1781 900.938L1789.81 905.67L1865.72 764.389L1856.91 759.656ZM1781 900.938H1771V3169.34H1781H1791V900.938H1781ZM1781 3169.34V3159.34H1647.07V3169.34V3179.34H1781V3169.34ZM1647.07 3169.34H1657.07V889.656H1647.07H1637.07V3169.34H1647.07ZM1647.07 889.656L1656.06 885.278L1580.15 729.388L1571.16 733.767L1562.17 738.145L1638.08 894.035L1647.07 889.656ZM1571.16 733.767L1572.07 723.808L1419.57 709.893L1418.67 719.852L1417.76 729.81L1570.25 743.725L1571.16 733.767ZM1418.67 719.852L1409.86 715.119L1333.95 856.4L1342.76 861.133L1351.57 865.866L1427.48 724.585L1418.67 719.852ZM1342.76 861.133H1332.76V3169.34H1342.76H1352.76V861.133H1342.76ZM1342.76 3169.34V3159.34H1208.86V3169.34V3179.34H1342.76V3169.34ZM1208.86 3169.34H1218.86V849.852H1208.86H1198.86V3169.34H1208.86ZM1208.86 849.852L1217.85 845.473L1141.93 689.584L1132.94 693.962L1123.95 698.34L1199.86 854.23L1208.86 849.852ZM1132.94 693.962L1133.85 684.003L981.356 670.088L980.447 680.047L979.539 690.005L1132.03 703.921L1132.94 693.962ZM980.447 680.047L971.638 675.314L895.73 816.595L904.539 821.328L913.348 826.061L989.256 684.78L980.447 680.047ZM904.539 821.328H894.539V3169.34H904.539H914.539V821.328H904.539ZM904.539 3169.34V3159.34H770.629V3169.34V3179.34H904.539V3169.34ZM770.629 3169.34H780.629V810.055H770.629H760.629V3169.34H770.629ZM770.629 810.055L779.619 805.676L703.702 649.787L694.712 654.165L685.721 658.543L761.638 814.433L770.629 810.055ZM694.712 654.165L695.621 644.206L543.129 630.291L542.221 640.25L541.312 650.209L693.803 664.124L694.712 654.165ZM542.221 640.25L533.412 635.517L457.503 776.798L466.312 781.531L475.122 786.264L551.03 644.983L542.221 640.25ZM466.312 781.531H456.312V3169.34H466.312H476.312V781.531H466.312ZM466.312 3169.34V3159.34H332.41V3169.34V3179.34H466.312V3169.34ZM332.41 3169.34H342.41V770.25H332.41H322.41V3169.34H332.41ZM332.41 770.25L341.401 765.872L265.484 609.982L256.493 614.36L247.503 618.739L323.42 774.628L332.41 770.25ZM256.493 614.36L257.402 604.402L104.911 590.487L104.002 600.445L103.093 610.404L255.584 624.319L256.493 614.36ZM104.002 600.445L95.1929 595.712L19.2847 736.994L28.0938 741.727L36.9028 746.46L112.811 605.178L104.002 600.445ZM28.0938 741.727H18.0938V3169.34H28.0938H38.0938V741.727H28.0938ZM28.0938 3169.34V3159.34H-105.824V3169.34V3179.34H28.0938V3169.34ZM-105.824 3169.34H-95.8242V730.441H-105.824H-115.824V3169.34H-105.824ZM-105.824 730.441L-96.8337 726.063L-172.751 570.173L-181.741 574.552L-190.732 578.93L-114.815 734.82L-105.824 730.441ZM-181.741 574.552L-180.832 564.593L-333.324 550.678L-334.232 560.637L-335.141 570.595L-182.65 584.51L-181.741 574.552ZM-334.232 560.637L-343.041 555.904L-418.95 697.185L-410.141 701.918L-401.332 706.651L-325.423 565.37L-334.232 560.637ZM-410.141 701.918H-420.141V3169.34H-410.141H-400.141V701.918H-410.141ZM-410.141 3169.34V3159.34H-544.043V3169.34V3179.34H-410.141V3169.34ZM-544.043 3169.34H-534.043V690.648H-544.043H-554.043V3169.34H-544.043ZM-544.043 690.648L-535.052 686.27L-610.969 530.38L-619.96 534.759L-628.951 539.137L-553.034 695.027L-544.043 690.648ZM-619.96 534.759L-619.051 524.8L-771.542 510.885L-772.451 520.844L-773.36 530.802L-620.869 544.717L-619.96 534.759ZM-772.451 520.844L-781.26 516.111L-857.168 657.392L-848.359 662.125L-839.55 666.858L-763.642 525.577L-772.451 520.844ZM-848.359 662.125H-858.359V3169.34H-848.359H-838.359V662.125H-848.359ZM-848.359 3169.34V3159.34H-982.277V3169.34V3179.34H-848.359V3169.34ZM-982.277 3169.34H-972.277V652.285H-982.277H-992.277V3169.34H-982.277ZM-982.277 652.285L-973.287 647.907L-1049.2 492.017L-1058.19 496.396L-1067.18 500.774L-991.268 656.663L-982.277 652.285ZM-1058.19 496.396L-1057.29 486.437L-1209.78 472.522L-1210.69 482.48L-1211.59 492.439L-1059.1 506.354L-1058.19 496.396ZM-1210.69 482.48L-1219.49 477.747L-1256.81 547.197L-1248 551.93L-1239.19 556.663L-1201.88 487.213L-1210.69 482.48ZM-1248 551.93H-1238V375H-1248H-1258V551.93H-1248ZM-1248 375L-1248.9 384.959L3408.55 807.999L3409.45 798.04L3410.36 788.081L-1247.1 365.041L-1248 375Z" fill="#EB7333" mask="url(#path-2-outside-1_1385_11659)"/>
<g clip-path="url(#clip1_1385_11659)">
<mask id="path-4-outside-2_1385_11659" maskUnits="userSpaceOnUse" x="-735" y="-62" width="4678" height="3289" fill="black">
<rect fill="white" x="-735" y="-62" width="4678" height="3289"/>
<path d="M182 504.883L3932.45 845.54V3216.84H3923V1095.07L3847.08 939.177L3694.59 925.262L3618.68 1066.54V3216.84H3484.76V1056.55L3408.84 900.665L3256.35 886.75L3180.45 1028.03V3216.84H3046.53V1016.77L2970.61 860.876L2818.12 846.961L2742.21 988.242V3216.84H2608.32V976.961L2532.4 821.071L2379.91 807.156L2304 948.438V3216.84H2170.07V937.156L2094.16 781.267L1941.67 767.352L1865.76 908.633V3216.84H1731.86V897.352L1655.94 741.462L1503.45 727.547L1427.54 868.828V3216.84H1293.63V857.555L1217.71 701.665L1065.22 687.75L989.312 829.031V3216.84H855.41V817.75L779.493 661.86L627.002 647.945L551.094 789.227V3216.84H417.176V777.941L341.259 622.052L188.768 608.137L112.859 749.418V3216.84H-21.043V738.148L-73.1631 631.124L-106 633V581.434L-249.451 568.344L-325.359 709.625V3216.84H-459.277V699.785L-535.194 543.896L-687.686 529.98L-725 599.43V422.5L-106 478.724V-52H182V504.883Z"/>
</mask>
<path d="M182 504.883L3932.45 845.54V3216.84H3923V1095.07L3847.08 939.177L3694.59 925.262L3618.68 1066.54V3216.84H3484.76V1056.55L3408.84 900.665L3256.35 886.75L3180.45 1028.03V3216.84H3046.53V1016.77L2970.61 860.876L2818.12 846.961L2742.21 988.242V3216.84H2608.32V976.961L2532.4 821.071L2379.91 807.156L2304 948.438V3216.84H2170.07V937.156L2094.16 781.267L1941.67 767.352L1865.76 908.633V3216.84H1731.86V897.352L1655.94 741.462L1503.45 727.547L1427.54 868.828V3216.84H1293.63V857.555L1217.71 701.665L1065.22 687.75L989.312 829.031V3216.84H855.41V817.75L779.493 661.86L627.002 647.945L551.094 789.227V3216.84H417.176V777.941L341.259 622.052L188.768 608.137L112.859 749.418V3216.84H-21.043V738.148L-73.1631 631.124L-106 633V581.434L-249.451 568.344L-325.359 709.625V3216.84H-459.277V699.785L-535.194 543.896L-687.686 529.98L-725 599.43V422.5L-106 478.724V-52H182V504.883Z" fill="#140100"/>
<path d="M182 504.883H172V514.016L181.095 514.842L182 504.883ZM3932.45 845.54H3942.45V836.407L3933.36 835.581L3932.45 845.54ZM3932.45 3216.84V3226.84H3942.45V3216.84H3932.45ZM3923 3216.84H3913V3226.84H3923V3216.84ZM3923 1095.07H3933V1092.76L3931.99 1090.69L3923 1095.07ZM3847.08 939.177L3856.07 934.798L3853.6 929.73L3847.99 929.218L3847.08 939.177ZM3694.59 925.262L3695.5 915.303L3688.91 914.702L3685.78 920.529L3694.59 925.262ZM3618.68 1066.54L3609.87 1061.81L3608.68 1064.03V1066.54H3618.68ZM3618.68 3216.84V3226.84H3628.68V3216.84H3618.68ZM3484.76 3216.84H3474.76V3226.84H3484.76V3216.84ZM3484.76 1056.55H3494.76V1054.25L3493.75 1052.18L3484.76 1056.55ZM3408.84 900.665L3417.84 896.287L3415.37 891.219L3409.75 890.706L3408.84 900.665ZM3256.35 886.75L3257.26 876.791L3250.68 876.19L3247.54 882.017L3256.35 886.75ZM3180.45 1028.03L3171.64 1023.3L3170.45 1025.51V1028.03H3180.45ZM3180.45 3216.84V3226.84H3190.45V3216.84H3180.45ZM3046.53 3216.84H3036.53V3226.84H3046.53V3216.84ZM3046.53 1016.77H3056.53V1014.46L3055.52 1012.39L3046.53 1016.77ZM2970.61 860.876L2979.6 856.498L2977.13 851.43L2971.52 850.917L2970.61 860.876ZM2818.12 846.961L2819.03 837.002L2812.44 836.401L2809.31 842.228L2818.12 846.961ZM2742.21 988.242L2733.4 983.509L2732.21 985.726V988.242H2742.21ZM2742.21 3216.84V3226.84H2752.21V3216.84H2742.21ZM2608.32 3216.84H2598.32V3226.84H2608.32V3216.84ZM2608.32 976.961H2618.32V974.655L2617.31 972.583L2608.32 976.961ZM2532.4 821.071L2541.39 816.693L2538.92 811.625L2533.31 811.113L2532.4 821.071ZM2379.91 807.156L2380.82 797.198L2374.23 796.597L2371.1 802.423L2379.91 807.156ZM2304 948.438L2295.19 943.705L2294 945.921V948.438H2304ZM2304 3216.84V3226.84H2314V3216.84H2304ZM2170.07 3216.84H2160.07V3226.84H2170.07V3216.84ZM2170.07 937.156H2180.07V934.851L2179.06 932.778L2170.07 937.156ZM2094.16 781.267L2103.15 776.888L2100.68 771.82L2095.07 771.308L2094.16 781.267ZM1941.67 767.352L1942.57 757.393L1935.99 756.792L1932.86 762.619L1941.67 767.352ZM1865.76 908.633L1856.95 903.9L1855.76 906.116V908.633H1865.76ZM1865.76 3216.84V3226.84H1875.76V3216.84H1865.76ZM1731.86 3216.84H1721.86V3226.84H1731.86V3216.84ZM1731.86 897.352H1741.86V895.046L1740.85 892.973L1731.86 897.352ZM1655.94 741.462L1664.93 737.084L1662.46 732.016L1656.85 731.503L1655.94 741.462ZM1503.45 727.547L1504.36 717.588L1497.77 716.987L1494.64 722.814L1503.45 727.547ZM1427.54 868.828L1418.73 864.095L1417.54 866.312V868.828H1427.54ZM1427.54 3216.84V3226.84H1437.54V3216.84H1427.54ZM1293.63 3216.84H1283.63V3226.84H1293.63V3216.84ZM1293.63 857.555H1303.63V855.249L1302.62 853.176L1293.63 857.555ZM1217.71 701.665L1226.7 697.287L1224.23 692.219L1218.62 691.706L1217.71 701.665ZM1065.22 687.75L1066.13 677.791L1059.54 677.19L1056.41 683.017L1065.22 687.75ZM989.312 829.031L980.503 824.298L979.312 826.515V829.031H989.312ZM989.312 3216.84V3226.84H999.312V3216.84H989.312ZM855.41 3216.84H845.41V3226.84H855.41V3216.84ZM855.41 817.75H865.41V815.444L864.401 813.372L855.41 817.75ZM779.493 661.86L788.484 657.482L786.016 652.414L780.402 651.902L779.493 661.86ZM627.002 647.945L627.911 637.987L621.324 637.386L618.193 643.212L627.002 647.945ZM551.094 789.227L542.285 784.494L541.094 786.71V789.227H551.094ZM551.094 3216.84V3226.84H561.094V3216.84H551.094ZM417.176 3216.84H407.176V3226.84H417.176V3216.84ZM417.176 777.941H427.176V775.636L426.166 773.563L417.176 777.941ZM341.259 622.052L350.249 617.673L347.781 612.605L342.168 612.093L341.259 622.052ZM188.768 608.137L189.676 598.178L183.089 597.577L179.959 603.404L188.768 608.137ZM112.859 749.418L104.05 744.685L102.859 746.902V749.418H112.859ZM112.859 3216.84V3226.84H122.859V3216.84H112.859ZM-21.043 3216.84H-31.043V3226.84H-21.043V3216.84ZM-21.043 738.148H-11.043V735.843L-12.0524 733.77L-21.043 738.148ZM-73.1631 631.124L-64.1725 626.746L-67.0872 620.761L-73.7335 621.14L-73.1631 631.124ZM-106 633H-116V643.588L-105.43 642.984L-106 633ZM-106 581.434H-96V572.305L-105.091 571.475L-106 581.434ZM-249.451 568.344L-248.542 558.385L-255.13 557.784L-258.26 563.611L-249.451 568.344ZM-325.359 709.625L-334.168 704.892L-335.359 707.109V709.625H-325.359ZM-325.359 3216.84V3226.84H-315.359V3216.84H-325.359ZM-459.277 3216.84H-469.277V3226.84H-459.277V3216.84ZM-459.277 699.785H-449.277V697.48L-450.287 695.407L-459.277 699.785ZM-535.194 543.896L-526.204 539.517L-528.672 534.449L-534.286 533.937L-535.194 543.896ZM-687.686 529.98L-686.777 520.022L-693.364 519.421L-696.495 525.247L-687.686 529.98ZM-725 599.43H-735L-716.191 604.163L-725 599.43ZM-725 422.5L-724.095 412.541L-735 411.551V422.5H-725ZM-106 478.724L-106.905 488.683L-96 489.673V478.724H-106ZM-106 -52V-62H-116V-52H-106ZM182 -52H192V-62H182V-52ZM182 504.883L181.095 514.842L3931.55 855.499L3932.45 845.54L3933.36 835.581L182.905 494.924L182 504.883ZM3932.45 845.54H3922.45V3216.84H3932.45H3942.45V845.54H3932.45ZM3932.45 3216.84V3206.84H3923V3216.84V3226.84H3932.45V3216.84ZM3923 3216.84H3933V1095.07H3923H3913V3216.84H3923ZM3923 1095.07L3931.99 1090.69L3856.07 934.798L3847.08 939.177L3838.09 943.555L3914.01 1099.44L3923 1095.07ZM3847.08 939.177L3847.99 929.218L3695.5 915.303L3694.59 925.262L3693.68 935.22L3846.17 949.135L3847.08 939.177ZM3694.59 925.262L3685.78 920.529L3609.87 1061.81L3618.68 1066.54L3627.49 1071.28L3703.4 929.995L3694.59 925.262ZM3618.68 1066.54H3608.68V3216.84H3618.68H3628.68V1066.54H3618.68ZM3618.68 3216.84V3206.84H3484.76V3216.84V3226.84H3618.68V3216.84ZM3484.76 3216.84H3494.76V1056.55H3484.76H3474.76V3216.84H3484.76ZM3484.76 1056.55L3493.75 1052.18L3417.84 896.287L3408.84 900.665L3399.85 905.043L3475.77 1060.93L3484.76 1056.55ZM3408.84 900.665L3409.75 890.706L3257.26 876.791L3256.35 886.75L3255.44 896.709L3407.94 910.624L3408.84 900.665ZM3256.35 886.75L3247.54 882.017L3171.64 1023.3L3180.45 1028.03L3189.25 1032.76L3265.16 891.483L3256.35 886.75ZM3180.45 1028.03H3170.45V3216.84H3180.45H3190.45V1028.03H3180.45ZM3180.45 3216.84V3206.84H3046.53V3216.84V3226.84H3180.45V3216.84ZM3046.53 3216.84H3056.53V1016.77H3046.53H3036.53V3216.84H3046.53ZM3046.53 1016.77L3055.52 1012.39L2979.6 856.498L2970.61 860.876L2961.62 865.254L3037.54 1021.14L3046.53 1016.77ZM2970.61 860.876L2971.52 850.917L2819.03 837.002L2818.12 846.961L2817.21 856.92L2969.7 870.835L2970.61 860.876ZM2818.12 846.961L2809.31 842.228L2733.4 983.509L2742.21 988.242L2751.02 992.975L2826.93 851.694L2818.12 846.961ZM2742.21 988.242H2732.21V3216.84H2742.21H2752.21V988.242H2742.21ZM2742.21 3216.84V3206.84H2608.32V3216.84V3226.84H2742.21V3216.84ZM2608.32 3216.84H2618.32V976.961H2608.32H2598.32V3216.84H2608.32ZM2608.32 976.961L2617.31 972.583L2541.39 816.693L2532.4 821.071L2523.41 825.45L2599.33 981.339L2608.32 976.961ZM2532.4 821.071L2533.31 811.113L2380.82 797.198L2379.91 807.156L2379 817.115L2531.49 831.03L2532.4 821.071ZM2379.91 807.156L2371.1 802.423L2295.19 943.705L2304 948.438L2312.81 953.17L2388.72 811.889L2379.91 807.156ZM2304 948.438H2294V3216.84H2304H2314V948.438H2304ZM2304 3216.84V3206.84H2170.07V3216.84V3226.84H2304V3216.84ZM2170.07 3216.84H2180.07V937.156H2170.07H2160.07V3216.84H2170.07ZM2170.07 937.156L2179.06 932.778L2103.15 776.888L2094.16 781.267L2085.17 785.645L2161.08 941.535L2170.07 937.156ZM2094.16 781.267L2095.07 771.308L1942.57 757.393L1941.67 767.352L1940.76 777.31L2093.25 791.225L2094.16 781.267ZM1941.67 767.352L1932.86 762.619L1856.95 903.9L1865.76 908.633L1874.57 913.366L1950.48 772.085L1941.67 767.352ZM1865.76 908.633H1855.76V3216.84H1865.76H1875.76V908.633H1865.76ZM1865.76 3216.84V3206.84H1731.86V3216.84V3226.84H1865.76V3216.84ZM1731.86 3216.84H1741.86V897.352H1731.86H1721.86V3216.84H1731.86ZM1731.86 897.352L1740.85 892.973L1664.93 737.084L1655.94 741.462L1646.95 745.84L1722.86 901.73L1731.86 897.352ZM1655.94 741.462L1656.85 731.503L1504.36 717.588L1503.45 727.547L1502.54 737.505L1655.03 751.421L1655.94 741.462ZM1503.45 727.547L1494.64 722.814L1418.73 864.095L1427.54 868.828L1436.35 873.561L1512.26 732.28L1503.45 727.547ZM1427.54 868.828H1417.54V3216.84H1427.54H1437.54V868.828H1427.54ZM1427.54 3216.84V3206.84H1293.63V3216.84V3226.84H1427.54V3216.84ZM1293.63 3216.84H1303.63V857.555H1293.63H1283.63V3216.84H1293.63ZM1293.63 857.555L1302.62 853.176L1226.7 697.287L1217.71 701.665L1208.72 706.043L1284.64 861.933L1293.63 857.555ZM1217.71 701.665L1218.62 691.706L1066.13 677.791L1065.22 687.75L1064.31 697.709L1216.8 711.624L1217.71 701.665ZM1065.22 687.75L1056.41 683.017L980.503 824.298L989.312 829.031L998.122 833.764L1074.03 692.483L1065.22 687.75ZM989.312 829.031H979.312V3216.84H989.312H999.312V829.031H989.312ZM989.312 3216.84V3206.84H855.41V3216.84V3226.84H989.312V3216.84ZM855.41 3216.84H865.41V817.75H855.41H845.41V3216.84H855.41ZM855.41 817.75L864.401 813.372L788.484 657.482L779.493 661.86L770.503 666.239L846.42 822.128L855.41 817.75ZM779.493 661.86L780.402 651.902L627.911 637.987L627.002 647.945L626.093 657.904L778.584 671.819L779.493 661.86ZM627.002 647.945L618.193 643.212L542.285 784.494L551.094 789.227L559.903 793.96L635.811 652.678L627.002 647.945ZM551.094 789.227H541.094V3216.84H551.094H561.094V789.227H551.094ZM551.094 3216.84V3206.84H417.176V3216.84V3226.84H551.094V3216.84ZM417.176 3216.84H427.176V777.941H417.176H407.176V3216.84H417.176ZM417.176 777.941L426.166 773.563L350.249 617.673L341.259 622.052L332.268 626.43L408.185 782.32L417.176 777.941ZM341.259 622.052L342.168 612.093L189.676 598.178L188.768 608.137L187.859 618.095L340.35 632.01L341.259 622.052ZM188.768 608.137L179.959 603.404L104.05 744.685L112.859 749.418L121.668 754.151L197.577 612.87L188.768 608.137ZM112.859 749.418H102.859V3216.84H112.859H122.859V749.418H112.859ZM112.859 3216.84V3206.84H-21.043V3216.84V3226.84H112.859V3216.84ZM-21.043 3216.84H-11.043V738.148H-21.043H-31.043V3216.84H-21.043ZM-21.043 738.148L-12.0524 733.77L-64.1725 626.746L-73.1631 631.124L-82.1536 635.502L-30.0335 742.527L-21.043 738.148ZM-73.1631 631.124L-73.7335 621.14L-106.57 623.016L-106 633L-105.43 642.984L-72.5927 641.108L-73.1631 631.124ZM-106 633H-96V581.434H-106H-116V633H-106ZM-106 581.434L-105.091 571.475L-248.542 558.385L-249.451 568.344L-250.36 578.302L-106.909 591.392L-106 581.434ZM-249.451 568.344L-258.26 563.611L-334.168 704.892L-325.359 709.625L-316.55 714.358L-240.642 573.077L-249.451 568.344ZM-325.359 709.625H-335.359V3216.84H-325.359H-315.359V709.625H-325.359ZM-325.359 3216.84V3206.84H-459.277V3216.84V3226.84H-325.359V3216.84ZM-459.277 3216.84H-449.277V699.785H-459.277H-469.277V3216.84H-459.277ZM-459.277 699.785L-450.287 695.407L-526.204 539.517L-535.194 543.896L-544.185 548.274L-468.268 704.163L-459.277 699.785ZM-535.194 543.896L-534.286 533.937L-686.777 520.022L-687.686 529.98L-688.594 539.939L-536.103 553.854L-535.194 543.896ZM-687.686 529.98L-696.495 525.247L-733.809 594.697L-725 599.43L-716.191 604.163L-678.877 534.713L-687.686 529.98ZM-725 599.43H-715V422.5H-725H-735V599.43H-725ZM-725 422.5L-725.905 432.459L-106.905 488.683L-106 478.724L-105.095 468.765L-724.095 412.541L-725 422.5ZM-106 478.724H-96V-52H-106H-116V478.724H-106ZM-106 -52V-42H182V-52V-62H-106V-52ZM182 -52H172V504.883H182H192V-52H182Z" fill="#EB7333" mask="url(#path-4-outside-2_1385_11659)"/>
</g>
<path d="M1272 731V827L1331 945C1373.33 941.833 1458 934.1 1458 928.5C1458 922.9 1441.67 789.167 1433.5 723L1272 731Z" fill="#140100"/>
<path d="M935.305 456.007L934.508 449.918L933.956 441.74L939.469 443.658L947.325 451.265L949.701 458.502L957.157 454.041L964.516 454.815L972.812 444.449L974 449L975.153 451.216L965.659 459.198L948.555 469.233L943.278 467.795L940.407 460.782L935.305 456.007Z" fill="#140100"/>
<path d="M899.782 526.051L902.706 498.676L941.722 512.456L943.139 528.538L937.311 569.358L954.443 581.69L930.722 579.196L933.796 566.529L931.749 551.307L927.399 538.307L933.599 527.535L922.25 515.591L888.71 552.381L882.112 565.799L888.69 572.986L898.102 575.766L882.117 574.086L871.468 568.781L877.197 564.556L887.888 544.757L891.735 530.355L899.782 526.051Z" fill="#140100"/>
<path d="M915.461 437.488L921.454 433.874L929.998 439.521L929.123 445.63L925.461 448.902L922.135 457.785L909.89 463.64L908.265 474.987L901.383 480.034L896.116 491.316L901.722 496.774L898.038 503.381L890.636 505.685L885.269 504.934L882.123 499.82L891.196 490.628L899.379 462.17L907.911 453.57L908.317 450.733L912.797 443.347L915.461 437.488Z" fill="#140100"/>
<path d="M934.15 428.579L934.014 434.463L932.315 445.543L927.869 442.143L922.764 447.839L922.783 436.425L922.952 428.357L923.076 424.393L923.361 417.307L931.598 409.677L937.631 408.103L943.156 413.133L943.094 416.638L942.375 418.298L942.288 420.057L944.704 421.99L942.424 424.839L940.727 430.388L934.15 428.579Z" fill="#140100"/>
<path d="M916.193 416.826L918.881 418.977L920.605 424.515L921.268 429.115L924.421 430.796L927.187 430.904L926.595 428.419L929.201 427.815L929.33 424.188L932.194 425.614L932.04 423.059L929.006 423.063L927.207 421.358L927.256 417.967L929.174 416.569L930.7 417.325L931.793 418.664L932.986 419.618L933.864 421.092L935.193 417.672L932.541 415.55L933.053 414.909L934.483 414.162L935.617 416.33L936.6 414.074L939.291 414.308L937.598 410.268L940.649 410.853L941.132 412.007L943.964 413.505L943.465 409.652L945.758 409.503L943.394 408.06L941.179 404.753L937.77 405.096L941.671 402.139L932.037 401.149L926.03 404.531L927.247 401.539L918.742 407.096L918.585 412.833L915.891 410.398L916.193 416.826Z" fill="#170800"/>
<mask id="mask0_1385_11659" style="mask-type:alpha" maskUnits="userSpaceOnUse" x="896" y="425" width="53" height="97">
<path d="M934.817 435.392L940.76 446.078L940.834 461.909L936.718 465.749L935.23 479.676L942.193 489.355L945.813 500.27L948.506 510.91L947.513 520.201L938.772 521.384L922.214 510.842L908.723 521.417L898.473 510.842L897.72 501.739L896.73 495.109L899.65 483.666L913.589 475.855L914.308 469.128L910.632 460.677L917.754 436.855L924.432 431.784L925.05 425.997L933.753 430.272L934.817 435.392Z" fill="#140100"/>
</mask>
<g mask="url(#mask0_1385_11659)">
<path d="M934.825 435.392L940.768 446.078L940.842 461.909L936.726 465.749L935.238 479.676L942.201 489.355L945.82 500.27L948.513 510.91L947.521 520.201L938.78 521.384L922.222 510.842L908.731 521.417L898.48 510.842L897.728 501.739L896.738 495.109L899.658 483.666L913.597 475.855L914.315 469.128L910.64 460.677L917.762 436.855L924.44 431.784L925.058 425.997L933.761 430.272L934.825 435.392Z" fill="#140100"/>
</g>
</g>
<g clip-path="url(#clip2_1385_11659)">
<rect width="1230" height="876" transform="translate(1382)" fill="#EB7333"/>
<path d="M1830.03 -37.8556L1820.23 -45.3501V-73H2611.92V840.174H1840.41V704.12V55.5592L1830.03 46.9118V-24.5962L1835.22 -27.4787V-30.9377L1831.76 -29.7847L1830.03 -32.0906V-37.8556Z" fill="#140100"/>
<path d="M1820.23 -40.7161V-45.3501L1830.03 -37.8556V-32.0906L1831.76 -29.7847L1835.22 -30.9377V-27.4787L1830.03 -24.5962V46.9118L1840.41 55.5592V704.12V840.174H2611.92V-73H1820.23V-40.7161Z" stroke="#140100"/>
<path d="M2281.99 163.65L2324.5 240.159V699.298L2098.5 686.593V221.438L2135.82 155.305L2203.07 111.194L2281.99 163.65Z" fill="#EB7333" stroke="#140100" stroke-width="7"/>
<path d="M2359.5 736.32L2326.23 734.45L2093.23 721.352L2063.5 719.681V212.246L2067.57 205.04L2105.75 137.365L2109.51 130.701L2115.91 126.505L2185.81 80.6602L2203.2 69.2529L2220.52 80.7666L2302.07 134.975L2308.45 139.214L2312.17 145.908L2355.54 223.953L2359.5 231.089V736.32Z" stroke="#EB7333" stroke-width="63"/>
<path d="M2356 732.618L2326.43 730.956L2093.43 717.857L2067 716.372V213.166L2070.61 206.761L2108.8 139.085L2112.14 133.161L2117.83 129.432L2187.73 83.5869L2203.19 73.4473L2218.59 83.6816L2300.14 137.889L2305.81 141.657L2309.11 147.608L2352.48 225.653L2356 231.996V732.618Z" stroke="#140100" stroke-width="56"/>
<path d="M2331.5 706.702L2327.8 706.494L2094.8 693.396L2091.5 693.21V219.601L2091.95 218.8L2130.14 151.125L2130.56 150.385L2131.27 149.918L2201.17 104.073L2203.1 102.806L2205.02 104.085L2286.57 158.293L2287.28 158.764L2287.7 159.508L2331.06 237.553L2331.5 238.346V706.702Z" stroke="#EB7333" stroke-width="7"/>
<path d="M4812.95 3299.84H148.5V498.168L152.316 498.515L4809.77 921.555L4812.95 921.844V3299.84Z" fill="#140100" stroke="#EB7333" stroke-width="7"/>
<rect x="2391" y="653" width="224" height="227" fill="#140100"/>
</g>
<defs>
<clipPath id="clip0_1385_11659">
<rect width="1382" height="876" fill="white"/>
</clipPath>
<clipPath id="clip1_1385_11659">
<rect width="955" height="3327" fill="white" transform="translate(-723 -109)"/>
</clipPath>
<clipPath id="clip2_1385_11659">
<rect width="1230" height="876" fill="white" transform="translate(1382)"/>
</clipPath>
</defs>
</svg>
