<svg width="370" height="547" viewBox="0 0 370 547" fill="none" xmlns="http://www.w3.org/2000/svg">
<path d="M173.752 423.847L178.466 507.268L248.212 536.822L100.182 622.884L-79.3107 655.017L-1.44326 554.074L15.037 433.334L12.3181 377.099L8.35735 276.508L116.319 159.229L199.914 130.161L283.768 195.097L286.846 244.776L278.548 269.074L279.308 294.066L315.671 318.688L286.631 361.577L268.876 442.025L173.752 423.847Z" fill="#EB7333"/>
<path d="M-101.165 182.101L-71.4866 204.911L-74.995 137.641L-75.1726 134.242L-72.4813 132.161L41.6051 43.9191L58.0598 31.1914L51.778 51.0242L43.5529 76.9876L109.292 32.7454L111.006 31.592L113.071 31.6396L250.522 34.7906L267.004 35.1691L254.699 46.1408L220.091 76.9961L245.203 72.4291L249.041 71.7316L251.462 74.7893L285.657 117.976L319.461 135.088L337.796 144.369L317.458 147.32L292.03 151.009L302.009 198.197L304.607 210.481L293.077 205.511L251.315 187.51L249.179 186.59L248.112 184.522L241.561 171.827L213.251 168.701L236.208 213.204L241.139 222.761L230.385 222.683L196.707 222.442L186.859 251.05L182.439 263.886L175.211 252.394L160.18 228.499L147.453 236.502L145.333 239.633L183.829 265.698L182.46 270.27L167.515 320.165L163.696 332.92L155.989 322.063L142.572 303.163L125.022 291.279L124.545 290.782L108.533 274.081L91.0503 267.084L70.9429 284.351L73.6814 326.307L96.8264 344.993L137.162 341.723L143.27 341.228L144.124 347.296L149.19 383.269L150.757 394.398L140.329 390.205L107.55 377.028L109.376 418.413L109.595 423.387L104.851 424.894L74.883 434.413L84.0536 462.693L86.6981 470.847L78.132 471.193L38.861 472.775L37.3733 472.835L36.007 472.24L-10.5089 452.009L-13.5276 450.695L-14.2556 447.483L-28.7164 383.648L-58.4322 309.54L-99.6758 281.614L-100.047 278.699L-111.575 188.075L-113.545 172.587L-101.165 182.101Z" fill="#180900" stroke="#EB7333" stroke-width="13"/>
</svg>
