<svg width="669" height="827" viewBox="0 0 669 827" fill="none" xmlns="http://www.w3.org/2000/svg">
<path d="M141.755 394.14L164.418 389.193L178.449 404.368L174.285 435.76L164.418 441.526L159.55 429.353H153.143L145.776 440.244H136.807L141.755 394.14Z" fill="#EB7333" stroke="#180900" stroke-width="3.528"/>
<path d="M140.973 444.946L152.914 426.831L166.852 423.646L164.861 431.609L161.477 447.733L170.207 448.594L163.865 464.652L158.706 464.297L50.9162 642.773L3.54248 684.712L19.8538 631.9L126.946 462.111L120.473 461.666L129.418 443.323L140.973 444.946Z" fill="#EB7333"/>
<path d="M140.973 444.946L152.914 426.831L166.852 423.646L164.861 431.609L161.477 447.733M140.973 444.946L161.477 447.733M140.973 444.946L129.418 443.323L120.473 461.666L126.946 462.111M161.477 447.733L170.207 448.594L163.865 464.652L158.706 464.297M126.946 462.111L19.8538 631.9L3.54248 684.712L50.9162 642.773L158.706 464.297M126.946 462.111L158.706 464.297" stroke="#180900" stroke-width="3.528"/>
<path d="M502.861 113.154L448.88 145.113L399.878 225.37L474.451 376.647L560.388 383.75L629.99 348.238L666.922 281.477L657.689 188.438L595.899 125.938L502.861 113.154Z" fill="#170800" stroke="#EB7333" stroke-width="3.528"/>
<path d="M326.637 151.456L365.211 68.8029L393.714 136.893L421.942 142.039L455.067 169.168L478.112 174.594V210.342L485.041 235.687L496.588 251.45L539.543 226.97L564.946 192.791V176.163L574.624 163.199L592.843 161.558L608.764 187.327L590.811 210.342L573.26 251.45L530.305 290.248L489.659 312.785L475.405 304.104V344.158L494.171 445.12L515.134 596.227L507.7 619.381L529.983 704.534L541.337 808.475L563.174 825.243H507.7V754.772L466.54 683.482L475.405 602.429L439.945 562.783V534.041L413.983 469.452L396.083 461.766L355.155 543.611L349.527 572.956L310.779 619.381L305.784 667.101L237.535 779.187V825.243H179.825L207.572 786.401L213.674 754.772L228.101 644.351L274.711 607.728L281.924 562.783L305.784 482.879L349.62 344.158L344.399 312.785L304.603 284.492V235.687L270.754 271.897L240.841 338.021L219.583 317.554L236.117 253.005L255.008 235.687L262.089 173.499L326.637 151.456Z" fill="#EB7333" stroke="#180900" stroke-width="3.528"/>
<path d="M387.224 121.457L377.786 140.169L389.23 155.336L346.281 155.466L321.15 165.969L338.671 129.299L351.558 103.612L358.02 91.0552L369.775 68.7074L407.936 56.7716L429.741 60.9413L439.812 85.5638L434.25 96.7412L429.4 100.979L426.431 106.503L431.242 116.412L419.554 122.087L405.608 137.335L387.224 121.457Z" fill="#EB7333"/>
<path d="M357.962 34.4024L361.437 42.812L368.981 28.0176L369.4 27.1944L370.315 27.0705L406.164 22.2105L411.759 21.4514L407.591 25.2608L402.83 29.611L422.278 28.2712L422.837 28.2331L423.316 28.5239L452.779 46.4474L456.601 48.7722L452.221 49.6812L441.297 51.9475L446.878 53.9447L447.875 54.3009L448.029 55.3488L450.036 68.9886L455.218 76.9211L458.268 81.5902L453.087 79.5243L447.233 77.1898L443.527 88.5562L442.471 91.796L440.435 89.0631L433.622 79.9153L433.245 79.4091L433.274 78.7783L433.44 75.2704L427.94 71.2306L427.358 83.5287L427.22 86.4433L424.703 84.9666L417.5 80.7387L411.846 85.6542L409.211 87.9449L409.426 88.3859L408.484 89.2742L398.98 98.2386L396.35 100.718L396.013 97.1205L395.471 91.3572L393.154 86.5835L393.109 86.4013L391.731 80.7943L388.879 77.167L382.491 78.3689L377.879 87.7143L380.523 94.5712L389.648 98.8974L391.151 99.6094L390.528 101.151L387.117 109.601L385.975 112.43L384.093 110.03L378.753 103.219L374.055 112.254L373.432 113.452L372.112 113.163L364.539 111.501L363.013 118.663L362.529 120.938L360.469 119.857L351.739 115.275L351.381 115.088L351.141 114.763L343.573 104.534L343.042 103.816L343.307 102.962L348.168 87.2959L351 67.5178L345.535 56.2618L345.843 55.5268L354.705 34.3942L356.344 30.4863L357.962 34.4024ZM409.047 87.6067L408.925 84.3907L408.662 77.4479L405.054 77.5846L404.348 77.9275L409.047 87.6067Z" fill="#180900" stroke="#EB7333" stroke-width="3.528"/>
<path d="M402.72 214.72V138.85H428.512L460.742 158.815L504.381 157.389L460.742 224.176L472.671 258.916L479.162 297.242V345.217L498.195 398.812L502.703 451.906L498.195 467.934L482.668 441.888L449.109 476.291H437.087L413.057 502.645L388.345 494.645L307.917 496.308L300.907 476.291L278.389 471.286L307.917 437.257L347.658 342.432L342.848 329.858L359.397 325.516L386.384 290.004L402.72 214.72Z" fill="#EB7333"/>
<path d="M460.742 224.176L504.381 157.389L460.742 158.815L428.512 138.85H402.72V214.72L386.384 290.004L359.397 325.516L342.848 329.858L347.658 342.432L307.917 437.257L278.389 471.286L300.907 476.291L307.917 496.308L388.345 494.645L413.057 502.645L437.087 476.291H449.109L482.668 441.888L498.195 467.934L502.703 451.906L498.195 398.812L479.162 345.217V297.242L472.671 258.916L460.742 224.176ZM460.742 224.176L437.087 192.488" stroke="#180900" stroke-width="3.528"/>
<path d="M242.236 319.194V344.5L176.758 407.968L163.102 387.884L215.32 303.529H232.194L242.236 319.194Z" fill="#EB7333" stroke="#180900" stroke-width="3.528"/>
</svg>
