<svg width="605" height="510" viewBox="0 0 605 510" fill="none" xmlns="http://www.w3.org/2000/svg">
<path d="M371.399 210.452L366.734 222.407L328.828 202.288L335.826 179.836L344.865 164.965L361.194 154.759L376.065 153.593L387.728 161.174L391.519 170.214L392.685 178.67L390.353 187.126L394.143 194.998L387.728 197.039L381.022 215.409L371.399 210.452Z" fill="#180900" stroke="#EB7333" stroke-width="2.33269"/>
<path d="M328.105 135.154L331.075 142.343L337.25 130.234L337.495 129.754L338.028 129.681L365.791 125.918L369.054 125.475L366.623 127.697L362.223 131.718L378.248 130.613L378.574 130.592L378.854 130.761L401.671 144.641L403.9 145.997L401.345 146.528L391.711 148.526L397.163 150.478L397.744 150.685L397.834 151.296L399.399 161.931L403.452 168.138L405.231 170.861L402.21 169.656L397.342 167.714L394.36 176.859L393.744 178.748L392.557 177.155L387.281 170.07L387.06 169.775L387.078 169.407L387.214 166.51L382.302 162.902L381.822 173.054L381.742 174.754L380.274 173.892L374.486 170.496L369.924 174.462L368.303 175.872L368.221 173.724L368.004 168.011L364.803 168.133L363.888 168.577L367.86 176.756L367.31 177.275L359.95 184.217L358.418 185.662L358.22 183.565L357.795 179.04L355.989 175.32L355.963 175.214L354.879 170.801L352.497 167.774L347.185 168.774L343.473 176.296L345.622 181.869L352.81 185.277L353.687 185.692L353.324 186.592L350.682 193.135L350.017 194.785L348.919 193.385L344.46 187.699L340.58 195.16L340.217 195.86L339.447 195.691L333.251 194.331L331.998 200.21L331.715 201.537L330.514 200.905L323.754 197.358L323.545 197.248L323.405 197.058L317.545 189.137L317.235 188.719L317.389 188.22L321.162 176.059L323.374 160.615L319.163 151.944L319.343 151.515L326.205 135.149L327.161 132.871L328.105 135.154Z" fill="#EB7333" stroke="#180900" stroke-width="2.05743"/>
<path d="M406.681 241.944L384.812 235.529L399.975 278.684L424.76 287.317H448.67L462.666 297.053L481.036 294.721L503.488 301.427L509.611 288.889L485.993 276.934L471.997 267.603L450.711 265.854L441.089 259.439L415.137 252.441L406.681 241.944Z" fill="#180900"/>
<path d="M442.547 283.057L448.67 287.317M448.67 287.317L462.666 297.053L481.036 294.721L503.488 301.427L509.611 288.889L485.993 276.934L471.997 267.603L450.711 265.854L441.089 259.439L415.137 252.441L406.681 241.944L384.812 235.529L399.975 278.684L424.76 287.317H448.67Z" stroke="#EB7333" stroke-width="2.33269"/>
<path d="M194.407 93.5264L0.501953 1.09363L159.416 59.994L153.001 36.084L603.502 255.648L190.033 73.6986L194.407 93.5264Z" fill="#180900" stroke="#EB7333" stroke-width="2.33269"/>
<path d="M216.276 175.754L218.025 111.022L201.405 93.5264L204.612 68.7416L230.563 82.4461L229.105 90.9021L233.479 99.6497V111.022L247.475 163.215V170.505L270.511 175.754L286.839 184.501H310.166L336.117 206.37L366.442 221.824L396.184 242.527L406.973 265.854L402.016 279.558L392.685 282.474L386.853 327.67L365.276 414.563L320.372 473.463L294.129 507.87L272.843 503.496L188.283 429.725L150.669 410.189L129.091 403.774L129.383 396.484L154.459 390.944L174.87 398.234L192.657 395.026L206.653 400.275L201.696 414.563L238.436 436.432L265.262 441.972L280.716 466.465L286.839 455.676V429.725L294.129 410.189L308.125 384.238L326.203 311.633L303.168 275.768L286.839 257.981L282.466 228.531H275.759L259.43 216.867L230.563 196.748L216.276 175.754Z" fill="#180900" stroke="#EB7333" stroke-width="2.33269"/>
<path d="M346.615 391.819L332.91 386.279L316.29 373.449L321.83 333.21L386.853 329.128L446.92 355.954L478.703 380.447L509.903 433.516L492.991 452.76H468.789L460.042 445.471L369.358 427.101L321.83 428.267L287.131 433.516L284.798 429.725L313.082 407.273L374.315 405.815L375.773 408.731L404.057 407.273L367.9 391.819H346.615Z" fill="#180900"/>
<path d="M404.057 407.273L367.9 391.819H346.615L332.91 386.279L316.29 373.449L321.83 333.21L386.853 329.128L446.92 355.954L478.703 380.447L509.903 433.516L492.991 452.76H468.789L460.042 445.471L369.358 427.101L321.83 428.267L287.131 433.516L284.798 429.725L313.082 407.273L374.315 405.815L375.773 408.731L404.057 407.273ZM404.057 407.273L446.92 397.067L471.997 405.815L481.036 433.516" stroke="#EB7333" stroke-width="2.33269"/>
<path d="M390.061 322.713L422.719 344.582L388.02 329.711L374.899 331.752L360.028 356.537V361.494H351.572L336.118 368.784L338.45 376.073L331.452 378.989L334.077 387.445L320.372 403.482L290.922 390.361L273.135 391.527L268.761 368.784L284.507 364.118L301.419 350.997L317.748 329.711L301.419 327.378L310.75 313.382H325.037L346.032 303.177L360.028 311.633L366.151 309.883L374.899 316.881H378.398L383.355 322.713H390.061Z" fill="#180900"/>
<path d="M374.899 316.881H378.398L383.355 322.713H390.061L422.719 344.582L388.02 329.711L374.899 331.752L360.028 356.537V361.494H351.572L336.118 368.784L338.45 376.073L331.452 378.989L334.077 387.445L320.372 403.482L290.922 390.361M374.899 316.881L378.398 321.255M374.899 316.881L366.151 309.883L360.028 311.633M360.028 311.633L369.65 316.881M360.028 311.633L346.032 303.177L325.037 313.382H310.75L301.419 327.378L317.748 329.711L301.419 350.997L284.507 364.118L268.761 368.784M268.761 368.784L273.135 391.527L290.922 390.361M268.761 368.784L284.507 378.989L290.922 390.361" stroke="#EB7333" stroke-width="2.33269"/>
</svg>
