<svg width="297" height="536" viewBox="0 0 297 536" fill="none" xmlns="http://www.w3.org/2000/svg">
<path d="M-90.0482 45.6882L-135.733 149.083L-175.944 539.128L119.093 658.383L149.431 643.204L124.393 564.933L126.153 507.959L177.31 488.415L221.37 480.495L245.411 454.342L240.555 403.503L248.134 378.323L237.963 368.48L249.417 347.819L246.182 321.189L251.183 314.247L296.856 307.94L232.101 178.517L194.304 73.9422L142.483 25.215L56.1577 -0.000645238L-90.0482 45.6882ZM183.682 181.835L188.686 186.999L189.132 187.458L189.378 188.05L201.33 216.776L201.634 217.508L201.581 218.3L201.099 225.4L201.07 225.817L200.941 226.214L190.137 259.465L189.044 262.827L185.738 261.577L161.849 252.545L161.303 252.339L160.858 251.959L132.769 228.081L130.142 225.85L132.432 223.274L156.956 195.667L157.273 195.31L157.679 195.054L179.464 181.329L181.778 179.872L183.682 181.835Z" fill="#EB7333"/>
</svg>
