<svg width="2162" height="1026" viewBox="0 0 2162 1026" fill="none" xmlns="http://www.w3.org/2000/svg">
<path d="M981.996 119.508H1181V28.998H1183V121.508H1081.5V210H2086.52V212H2086.52V454H2086.5V845.861H2037.61V934.371H2086.5V996.371H2084.5V936.371H2035.61V845.861H1986.72V576H1885.52V598.186H1883.52V598H1684.5V620H1588.98V693.371H1684.49V695.371H1684.5V755.371H1682.5V695.371H1586.98V620H1483.48V620.186H1481.48V607.717H1401.27V693.371H1483.48V695.371H1483.5V845.861H1883.5V695.371H1788.01V598.186H1790.01V693.371H1885.52V695.371H1885.5V847.861H1684.5V934.371H1885.5V996.371H1883.5V936.371H1684.5V996.371H1682.5V936.371H1483.5V996.371H1481.5V934.371H1682.5V847.861H1481.5V695.371H1282.5V755.371H1280.5V695.371H1081.5V755.371H1079.5V695.371H880.5V755.371H878.5V695.371H878.469V693.371H1399.27V607.717H1280.5V585.357H1191.31V673.371H679.492V695.371H679.5V755.371H679.492V765.85H677.492V672.371H677.688V671.371H1189.31V585.357H1079.5V566.359H377V693.371H478.5V755.371H476.5V695.371H277.5V755.371H275.5V693.371H375V566.359H275.5V454H76.5V514H74.5V452H175V273.803H177V452H277.5V564.359H1079.5V454.018H1079.5V454H880.5V514H878.5V454H679.5V514H677.5V454H478.5V514H476.5V454H476.492V452H1079.5V363.508H979.996V270.998H980.004V212.018H982.004V272.018H981.996V361.508H1181V270.998H1181V212.018H1183V272.018H1183V363.508H1081.5V452H1483.5V514H1483.48V574H1682.5V452H1774.5V212H1081.5V212.018H1079.5V212H176.5V272H174.5V210H1079.5V121.508H979.996V28.998H981.996V119.508ZM1776.5 452H1885.5V517.572H1885.52V574H1988.72V843.861H2084.5V454H2084.52V212H1776.5V452ZM76.5 755.371H74.5V517.174H76.5V755.371ZM1483.48 618H1682.5V598H1483.48V618ZM1282.5 605.717H1481.48V585.357H1282.5V605.717ZM1483.48 596H1682.5V576H1483.48V596ZM1684.5 596H1883.52V576H1684.5V596ZM1081.5 583.357H1280.5V566.359H1081.5V583.357ZM1282.5 583.357H1481.48V566.359H1282.5V583.357ZM1684.5 574H1883.52V521.947H1883.5V454H1684.5V574ZM1081.5 564.359H1280.5V454H1081.5V564.359ZM1282.5 564.359H1481.48V512.359H1481.5V454H1282.5V564.359Z" fill="#EB7333"/>
</svg>
