<svg width="1776" height="1549" viewBox="0 0 1776 1549" fill="none" xmlns="http://www.w3.org/2000/svg">
<g clip-path="url(#clip0_1391_12328)" filter="url(#filter0_d_1391_12328)">
<rect width="1768" height="1541" transform="translate(4)" fill="#170800"/>
<path d="M1066.12 194.622L1075.5 229.622V653.122H700V229.622L709.378 194.622L744 160H1031.5L1066.12 194.622Z" fill="#EB7333"/>
<path d="M553.655 56.6547V69.9937H563.326L560.908 61.5052L553.655 56.6547Z" fill="#EB7333"/>
<path d="M563.298 20.2754H612.694L625.258 13H660.315L676.031 23.9141V46.9541L663.942 59.0801H644.601V73.6318H531.392V59.0801H512.05L499.961 46.9541V23.9141L515.677 13H550.734L563.298 20.2754Z" fill="#EB7333"/>
<path d="M563.298 20.2754L562.546 21.5734L562.895 21.7754H563.298V20.2754ZM612.694 20.2754V21.7754H613.097L613.446 21.5734L612.694 20.2754ZM625.258 13V11.5H624.855L624.506 11.7019L625.258 13ZM660.315 13L661.171 11.768L660.785 11.5H660.315V13ZM676.031 23.9141H677.531V23.1295L676.887 22.682L676.031 23.9141ZM676.031 46.9541L677.094 48.0131L677.531 47.5741V46.9541H676.031ZM663.942 59.0801V60.5801H664.565L665.005 60.1391L663.942 59.0801ZM644.601 59.0801V57.5801H643.101V59.0801H644.601ZM644.601 73.6318V75.1318H646.101V73.6318H644.601ZM531.392 73.6318H529.892V75.1318H531.392V73.6318ZM531.392 59.0801H532.892V57.5801H531.392V59.0801ZM512.05 59.0801L510.988 60.1391L511.427 60.5801H512.05V59.0801ZM499.961 46.9541H498.461V47.5741L498.899 48.0131L499.961 46.9541ZM499.961 23.9141L499.105 22.682L498.461 23.1295V23.9141H499.961ZM515.677 13V11.5H515.207L514.821 11.768L515.677 13ZM550.734 13L551.486 11.7019L551.137 11.5H550.734V13ZM563.298 20.2754V21.7754H612.694V20.2754V18.7754H563.298V20.2754ZM612.694 20.2754L613.446 21.5734L626.01 14.2981L625.258 13L624.506 11.7019L611.943 18.9773L612.694 20.2754ZM625.258 13V14.5H660.315V13V11.5H625.258V13ZM660.315 13L659.46 14.232L675.176 25.1461L676.031 23.9141L676.887 22.682L661.171 11.768L660.315 13ZM676.031 23.9141H674.531V46.9541H676.031H677.531V23.9141H676.031ZM676.031 46.9541L674.969 45.8951L662.88 58.021L663.942 59.0801L665.005 60.1391L677.094 48.0131L676.031 46.9541ZM663.942 59.0801V57.5801H644.601V59.0801V60.5801H663.942V59.0801ZM644.601 59.0801H643.101V73.6318H644.601H646.101V59.0801H644.601ZM644.601 73.6318V72.1318H531.392V73.6318V75.1318H644.601V73.6318ZM531.392 73.6318H532.892V59.0801H531.392H529.892V73.6318H531.392ZM531.392 59.0801V57.5801H512.05V59.0801V60.5801H531.392V59.0801ZM512.05 59.0801L513.112 58.021L501.023 45.8951L499.961 46.9541L498.899 48.0131L510.988 60.1391L512.05 59.0801ZM499.961 46.9541H501.461V23.9141H499.961H498.461V46.9541H499.961ZM499.961 23.9141L500.817 25.1461L516.532 14.232L515.677 13L514.821 11.768L499.105 22.682L499.961 23.9141ZM515.677 13V14.5H550.734V13V11.5H515.677V13ZM550.734 13L549.983 14.2981L562.546 21.5734L563.298 20.2754L564.05 18.9773L551.486 11.7019L550.734 13Z" fill="black"/>
<path d="M556.217 56.3265V71.0038H565.888L563.471 61.1771L556.217 56.3265Z" fill="#EB7333"/>
<path d="M573.142 55.1139L573.069 71.3618H581.532L581.604 57.5392L585.231 46.6254L590.066 41.7748M573.142 55.1139L577.977 41.7748L590.066 29.6484M573.142 55.1139L565.888 47.8381L558.635 41.7748L550.173 39.3496M545.337 50.2633L547.755 71.0038M547.755 71.0038H556.217V56.3265L563.471 61.1771L565.888 71.0038H547.755ZM547.755 71.0038L542.919 61.1771L536.875 56.3265" stroke="black" stroke-width="3"/>
<path d="M622.564 56.3265V71.0038H612.893L615.311 61.1771L622.564 56.3265Z" fill="#EB7333"/>
<path d="M605.64 55.1139L605.712 71.3618H597.25L597.177 57.5392L593.551 46.6254L588.715 41.7748M605.64 55.1139L600.804 41.7748L588.715 29.6484M605.64 55.1139L612.893 47.8381L620.146 41.7748L628.608 39.3496M633.444 50.2633L631.026 71.0038M631.026 71.0038H622.564V56.3265L615.311 61.1771L612.893 71.0038H631.026ZM631.026 71.0038L635.862 61.1771L641.906 56.3265" stroke="black" stroke-width="3"/>
<path d="M589.355 29.6403H567.595L547.044 21.1518M547.044 21.1518L537.373 18.7266L519.026 18.7281L508.359 26.6284V43.8139L515.47 51.3325H528.27L536.164 47.83L539.79 39.3415V29.6403L533.248 26.6284H520.448L517.248 29.6403V40.5916L522.582 43.4559L531.328 40.5916V34.4909M547.044 21.1518L549.462 27.215V36.9162L547.044 47.83L539.79 55.1058L531.328 59.9564" stroke="black" stroke-width="3"/>
<path d="M588.715 29.6403H610.475L631.026 21.1518M631.026 21.1518L640.698 18.7266L659.044 18.7281L669.711 26.6284V43.8139L662.6 51.3325H649.8L641.906 47.83L638.28 39.3415V29.6403L644.822 26.6284H657.622L660.822 29.6403V40.5916L655.489 43.4559L646.742 40.5916V34.4909M631.026 21.1518L628.609 27.215V36.9162L631.026 47.83L638.28 55.1058L646.742 59.9564" stroke="black" stroke-width="3"/>
<path d="M635.646 90.6094L642.898 575.666H533.102L540.354 90.6094H635.646Z" fill="#EB7333"/>
<path d="M635.646 90.6094L637.145 90.5869L637.123 89.1094H635.646V90.6094ZM642.898 575.666V577.166H644.421L644.398 575.644L642.898 575.666ZM533.102 575.666L531.602 575.644L531.579 577.166H533.102V575.666ZM540.354 90.6094V89.1094H538.877L538.855 90.5869L540.354 90.6094ZM635.646 90.6094L634.146 90.6318L641.399 575.688L642.898 575.666L644.398 575.644L637.145 90.5869L635.646 90.6094ZM642.898 575.666V574.166H533.102V575.666V577.166H642.898V575.666ZM533.102 575.666L534.601 575.688L541.854 90.6318L540.354 90.6094L538.855 90.5869L531.602 575.644L533.102 575.666ZM540.354 90.6094V92.1094H635.646V90.6094V89.1094H540.354V90.6094Z" fill="black"/>
<path d="M638.062 80.9062V90.6074H537.938V80.9062H638.062Z" fill="#EB7333"/>
<path d="M638.062 80.9062H639.562V79.4062H638.062V80.9062ZM638.062 90.6074V92.1074H639.562V90.6074H638.062ZM537.938 90.6074H536.438V92.1074H537.938V90.6074ZM537.938 80.9062V79.4062H536.438V80.9062H537.938ZM638.062 80.9062H636.562V90.6074H638.062H639.562V80.9062H638.062ZM638.062 90.6074V89.1074H537.938V90.6074V92.1074H638.062V90.6074ZM537.938 90.6074H539.438V80.9062H537.938H536.438V90.6074H537.938ZM537.938 80.9062V82.4062H638.062V80.9062V79.4062H537.938V80.9062Z" fill="black"/>
<path d="M647.734 71.207V80.9082H528.266V71.207H647.734Z" fill="#EB7333"/>
<path d="M647.734 71.207H649.234V69.707H647.734V71.207ZM647.734 80.9082V82.4082H649.234V80.9082H647.734ZM528.266 80.9082H526.766V82.4082H528.266V80.9082ZM528.266 71.207V69.707H526.766V71.207H528.266ZM647.734 71.207H646.234V80.9082H647.734H649.234V71.207H647.734ZM647.734 80.9082V79.4082H528.266V80.9082V82.4082H647.734V80.9082ZM528.266 80.9082H529.766V71.207H528.266H526.766V80.9082H528.266ZM528.266 71.207V72.707H647.734V71.207V69.707H528.266V71.207Z" fill="black"/>
<path d="M652.57 575.664V585.365H523.43V575.664H652.57Z" fill="#EB7333"/>
<path d="M652.57 575.664H654.07V574.164H652.57V575.664ZM652.57 585.365V586.865H654.07V585.365H652.57ZM523.43 585.365H521.93V586.865H523.43V585.365ZM523.43 575.664V574.164H521.93V575.664H523.43ZM652.57 575.664H651.07V585.365H652.57H654.07V575.664H652.57ZM652.57 585.365V583.865H523.43V585.365V586.865H652.57V585.365ZM523.43 585.365H524.93V575.664H523.43H521.93V585.365H523.43ZM523.43 575.664V577.164H652.57V575.664V574.164H523.43V575.664Z" fill="black"/>
<path d="M652.57 604.77V614.471H523.43V604.77H652.57Z" fill="#EB7333"/>
<path d="M652.57 604.77H654.07V603.27H652.57V604.77ZM652.57 614.471V615.971H654.07V614.471H652.57ZM523.43 614.471H521.93V615.971H523.43V614.471ZM523.43 604.77V603.27H521.93V604.77H523.43ZM652.57 604.77H651.07V614.471H652.57H654.07V604.77H652.57ZM652.57 614.471V612.971H523.43V614.471V615.971H652.57V614.471ZM523.43 614.471H524.93V604.77H523.43H521.93V614.471H523.43ZM523.43 604.77V606.27H652.57V604.77V603.27H523.43V604.77Z" fill="black"/>
<path d="M652.575 614.469L664.664 626.595H511.344L523.433 614.469H652.575Z" fill="#EB7333"/>
<path d="M652.575 614.469L653.637 613.41L653.198 612.969H652.575V614.469ZM664.664 626.595V628.095H668.278L665.726 625.536L664.664 626.595ZM511.344 626.595L510.281 625.536L507.73 628.095H511.344V626.595ZM523.433 614.469V612.969H522.81L522.37 613.41L523.433 614.469ZM652.575 614.469L651.513 615.528L663.602 627.654L664.664 626.595L665.726 625.536L653.637 613.41L652.575 614.469ZM664.664 626.595V625.095H511.344V626.595V628.095H664.664V626.595ZM511.344 626.595L512.406 627.654L524.495 615.528L523.433 614.469L522.37 613.41L510.281 625.536L511.344 626.595ZM523.433 614.469V615.969H652.575V614.469V612.969H523.433V614.469Z" fill="black"/>
<path d="M657.398 585.367L662.234 595.068L657.398 604.77H518.594L513.758 595.068L518.594 585.367H657.398Z" fill="#EB7333"/>
<path d="M657.398 585.367L658.741 584.698L658.327 583.867H657.398V585.367ZM662.234 595.068L663.577 595.738L663.91 595.068L663.577 594.399L662.234 595.068ZM657.398 604.77V606.27H658.327L658.741 605.439L657.398 604.77ZM518.594 604.77L517.251 605.439L517.665 606.27H518.594V604.77ZM513.758 595.068L512.415 594.399L512.082 595.068L512.415 595.738L513.758 595.068ZM518.594 585.367V583.867H517.665L517.251 584.698L518.594 585.367ZM657.398 585.367L656.056 586.036L660.892 595.738L662.234 595.068L663.577 594.399L658.741 584.698L657.398 585.367ZM662.234 595.068L660.892 594.399L656.056 604.1L657.398 604.77L658.741 605.439L663.577 595.738L662.234 595.068ZM657.398 604.77V603.27H518.594V604.77V606.27H657.398V604.77ZM518.594 604.77L519.936 604.1L515.1 594.399L513.758 595.068L512.415 595.738L517.251 605.439L518.594 604.77ZM513.758 595.068L515.1 595.738L519.936 586.036L518.594 585.367L517.251 584.698L512.415 594.399L513.758 595.068ZM518.594 585.367V586.867H657.398V585.367V583.867H518.594V585.367Z" fill="black"/>
<path d="M677.761 626.598L684 636.299L677.761 646H498.239L492 636.299L498.239 626.598H677.761Z" fill="#EB7333"/>
<path d="M677.761 626.598L679.022 625.786L678.579 625.098H677.761V626.598ZM684 636.299L685.262 637.11L685.783 636.299L685.262 635.487L684 636.299ZM677.761 646V647.5H678.579L679.022 646.811L677.761 646ZM498.239 646L496.978 646.811L497.421 647.5H498.239V646ZM492 636.299L490.738 635.487L490.217 636.299L490.738 637.11L492 636.299ZM498.239 626.598V625.098H497.421L496.978 625.786L498.239 626.598ZM677.761 626.598L676.499 627.409L682.738 637.11L684 636.299L685.262 635.487L679.022 625.786L677.761 626.598ZM684 636.299L682.738 635.487L676.499 645.189L677.761 646L679.022 646.811L685.262 637.11L684 636.299ZM677.761 646V644.5H498.239V646V647.5H677.761V646ZM498.239 646L499.501 645.189L493.262 635.487L492 636.299L490.738 637.11L496.978 646.811L498.239 646ZM492 636.299L493.262 637.11L499.501 627.409L498.239 626.598L496.978 625.786L490.738 635.487L492 636.299ZM498.239 626.598V628.098H677.761V626.598V625.098H498.239V626.598Z" fill="black"/>
<path d="M1177.65 56.6547V69.9937H1187.33L1184.91 61.5052L1177.65 56.6547Z" fill="#EB7333"/>
<path d="M1187.3 20.2754H1236.69L1249.26 13H1284.32L1300.03 23.9141V46.9541L1287.94 59.0801H1268.6V73.6318H1155.39V59.0801H1136.05L1123.96 46.9541V23.9141L1139.68 13H1174.73L1187.3 20.2754Z" fill="#EB7333"/>
<path d="M1187.3 20.2754L1186.55 21.5734L1186.89 21.7754H1187.3V20.2754ZM1236.69 20.2754V21.7754H1237.1L1237.45 21.5734L1236.69 20.2754ZM1249.26 13V11.5H1248.85L1248.51 11.7019L1249.26 13ZM1284.32 13L1285.17 11.768L1284.79 11.5H1284.32V13ZM1300.03 23.9141H1301.53V23.1295L1300.89 22.682L1300.03 23.9141ZM1300.03 46.9541L1301.09 48.0131L1301.53 47.5741V46.9541H1300.03ZM1287.94 59.0801V60.5801H1288.57L1289 60.1391L1287.94 59.0801ZM1268.6 59.0801V57.5801H1267.1V59.0801H1268.6ZM1268.6 73.6318V75.1318H1270.1V73.6318H1268.6ZM1155.39 73.6318H1153.89V75.1318H1155.39V73.6318ZM1155.39 59.0801H1156.89V57.5801H1155.39V59.0801ZM1136.05 59.0801L1134.99 60.1391L1135.43 60.5801H1136.05V59.0801ZM1123.96 46.9541H1122.46V47.5741L1122.9 48.0131L1123.96 46.9541ZM1123.96 23.9141L1123.11 22.682L1122.46 23.1295V23.9141H1123.96ZM1139.68 13V11.5H1139.21L1138.82 11.768L1139.68 13ZM1174.73 13L1175.49 11.7019L1175.14 11.5H1174.73V13ZM1187.3 20.2754V21.7754H1236.69V20.2754V18.7754H1187.3V20.2754ZM1236.69 20.2754L1237.45 21.5734L1250.01 14.2981L1249.26 13L1248.51 11.7019L1235.94 18.9773L1236.69 20.2754ZM1249.26 13V14.5H1284.32V13V11.5H1249.26V13ZM1284.32 13L1283.46 14.232L1299.18 25.1461L1300.03 23.9141L1300.89 22.682L1285.17 11.768L1284.32 13ZM1300.03 23.9141H1298.53V46.9541H1300.03H1301.53V23.9141H1300.03ZM1300.03 46.9541L1298.97 45.8951L1286.88 58.021L1287.94 59.0801L1289 60.1391L1301.09 48.0131L1300.03 46.9541ZM1287.94 59.0801V57.5801H1268.6V59.0801V60.5801H1287.94V59.0801ZM1268.6 59.0801H1267.1V73.6318H1268.6H1270.1V59.0801H1268.6ZM1268.6 73.6318V72.1318H1155.39V73.6318V75.1318H1268.6V73.6318ZM1155.39 73.6318H1156.89V59.0801H1155.39H1153.89V73.6318H1155.39ZM1155.39 59.0801V57.5801H1136.05V59.0801V60.5801H1155.39V59.0801ZM1136.05 59.0801L1137.11 58.021L1125.02 45.8951L1123.96 46.9541L1122.9 48.0131L1134.99 60.1391L1136.05 59.0801ZM1123.96 46.9541H1125.46V23.9141H1123.96H1122.46V46.9541H1123.96ZM1123.96 23.9141L1124.82 25.1461L1140.53 14.232L1139.68 13L1138.82 11.768L1123.11 22.682L1123.96 23.9141ZM1139.68 13V14.5H1174.73V13V11.5H1139.68V13ZM1174.73 13L1173.98 14.2981L1186.55 21.5734L1187.3 20.2754L1188.05 18.9773L1175.49 11.7019L1174.73 13Z" fill="black"/>
<path d="M1180.22 56.3265V71.0038H1189.89L1187.47 61.1771L1180.22 56.3265Z" fill="#EB7333"/>
<path d="M1197.14 55.1139L1197.07 71.3618H1205.53L1205.6 57.5392L1209.23 46.6254L1214.07 41.7748M1197.14 55.1139L1201.98 41.7748L1214.07 29.6484M1197.14 55.1139L1189.89 47.8381L1182.64 41.7748L1174.17 39.3496M1169.34 50.2633L1171.76 71.0038M1171.76 71.0038H1180.22V56.3265L1187.47 61.1771L1189.89 71.0038H1171.76ZM1171.76 71.0038L1166.92 61.1771L1160.88 56.3265" stroke="black" stroke-width="3"/>
<path d="M1246.56 56.3265V71.0038H1236.89L1239.31 61.1771L1246.56 56.3265Z" fill="#EB7333"/>
<path d="M1229.64 55.1139L1229.71 71.3618H1221.25L1221.18 57.5392L1217.55 46.6254L1212.72 41.7748M1229.64 55.1139L1224.8 41.7748L1212.72 29.6484M1229.64 55.1139L1236.89 47.8381L1244.15 41.7748L1252.61 39.3496M1257.44 50.2633L1255.03 71.0038M1255.03 71.0038H1246.56V56.3265L1239.31 61.1771L1236.89 71.0038H1255.03ZM1255.03 71.0038L1259.86 61.1771L1265.91 56.3265" stroke="black" stroke-width="3"/>
<path d="M1213.35 29.6403H1191.59L1171.04 21.1518M1171.04 21.1518L1161.37 18.7266L1143.03 18.7281L1132.36 26.6284V43.8139L1139.47 51.3325H1152.27L1160.16 47.83L1163.79 39.3415V29.6403L1157.25 26.6284H1144.45L1141.25 29.6403V40.5916L1146.58 43.4559L1155.33 40.5916V34.4909M1171.04 21.1518L1173.46 27.215V36.9162L1171.04 47.83L1163.79 55.1058L1155.33 59.9564" stroke="black" stroke-width="3"/>
<path d="M1212.72 29.6403H1234.48L1255.03 21.1518M1255.03 21.1518L1264.7 18.7266L1283.04 18.7281L1293.71 26.6284V43.8139L1286.6 51.3325H1273.8L1265.91 47.83L1262.28 39.3415V29.6403L1268.82 26.6284H1281.62L1284.82 29.6403V40.5916L1279.49 43.4559L1270.74 40.5916V34.4909M1255.03 21.1518L1252.61 27.215V36.9162L1255.03 47.83L1262.28 55.1058L1270.74 59.9564" stroke="black" stroke-width="3"/>
<path d="M1259.65 90.6094L1266.9 575.666H1157.1L1164.35 90.6094H1259.65Z" fill="#EB7333"/>
<path d="M1259.65 90.6094L1261.15 90.5869L1261.12 89.1094H1259.65V90.6094ZM1266.9 575.666V577.166H1268.42L1268.4 575.644L1266.9 575.666ZM1157.1 575.666L1155.6 575.644L1155.58 577.166H1157.1V575.666ZM1164.35 90.6094V89.1094H1162.88L1162.85 90.5869L1164.35 90.6094ZM1259.65 90.6094L1258.15 90.6318L1265.4 575.688L1266.9 575.666L1268.4 575.644L1261.15 90.5869L1259.65 90.6094ZM1266.9 575.666V574.166H1157.1V575.666V577.166H1266.9V575.666ZM1157.1 575.666L1158.6 575.688L1165.85 90.6318L1164.35 90.6094L1162.85 90.5869L1155.6 575.644L1157.1 575.666ZM1164.35 90.6094V92.1094H1259.65V90.6094V89.1094H1164.35V90.6094Z" fill="black"/>
<path d="M1262.06 80.9062V90.6074H1161.94V80.9062H1262.06Z" fill="#EB7333"/>
<path d="M1262.06 80.9062H1263.56V79.4062H1262.06V80.9062ZM1262.06 90.6074V92.1074H1263.56V90.6074H1262.06ZM1161.94 90.6074H1160.44V92.1074H1161.94V90.6074ZM1161.94 80.9062V79.4062H1160.44V80.9062H1161.94ZM1262.06 80.9062H1260.56V90.6074H1262.06H1263.56V80.9062H1262.06ZM1262.06 90.6074V89.1074H1161.94V90.6074V92.1074H1262.06V90.6074ZM1161.94 90.6074H1163.44V80.9062H1161.94H1160.44V90.6074H1161.94ZM1161.94 80.9062V82.4062H1262.06V80.9062V79.4062H1161.94V80.9062Z" fill="black"/>
<path d="M1271.73 71.207V80.9082H1152.27V71.207H1271.73Z" fill="#EB7333"/>
<path d="M1271.73 71.207H1273.23V69.707H1271.73V71.207ZM1271.73 80.9082V82.4082H1273.23V80.9082H1271.73ZM1152.27 80.9082H1150.77V82.4082H1152.27V80.9082ZM1152.27 71.207V69.707H1150.77V71.207H1152.27ZM1271.73 71.207H1270.23V80.9082H1271.73H1273.23V71.207H1271.73ZM1271.73 80.9082V79.4082H1152.27V80.9082V82.4082H1271.73V80.9082ZM1152.27 80.9082H1153.77V71.207H1152.27H1150.77V80.9082H1152.27ZM1152.27 71.207V72.707H1271.73V71.207V69.707H1152.27V71.207Z" fill="black"/>
<path d="M1276.57 575.664V585.365H1147.43V575.664H1276.57Z" fill="#EB7333"/>
<path d="M1276.57 575.664H1278.07V574.164H1276.57V575.664ZM1276.57 585.365V586.865H1278.07V585.365H1276.57ZM1147.43 585.365H1145.93V586.865H1147.43V585.365ZM1147.43 575.664V574.164H1145.93V575.664H1147.43ZM1276.57 575.664H1275.07V585.365H1276.57H1278.07V575.664H1276.57ZM1276.57 585.365V583.865H1147.43V585.365V586.865H1276.57V585.365ZM1147.43 585.365H1148.93V575.664H1147.43H1145.93V585.365H1147.43ZM1147.43 575.664V577.164H1276.57V575.664V574.164H1147.43V575.664Z" fill="black"/>
<path d="M1276.57 604.77V614.471H1147.43V604.77H1276.57Z" fill="#EB7333"/>
<path d="M1276.57 604.77H1278.07V603.27H1276.57V604.77ZM1276.57 614.471V615.971H1278.07V614.471H1276.57ZM1147.43 614.471H1145.93V615.971H1147.43V614.471ZM1147.43 604.77V603.27H1145.93V604.77H1147.43ZM1276.57 604.77H1275.07V614.471H1276.57H1278.07V604.77H1276.57ZM1276.57 614.471V612.971H1147.43V614.471V615.971H1276.57V614.471ZM1147.43 614.471H1148.93V604.77H1147.43H1145.93V614.471H1147.43ZM1147.43 604.77V606.27H1276.57V604.77V603.27H1147.43V604.77Z" fill="black"/>
<path d="M1276.58 614.469L1288.66 626.595H1135.34L1147.43 614.469H1276.58Z" fill="#EB7333"/>
<path d="M1276.58 614.469L1277.64 613.41L1277.2 612.969H1276.58V614.469ZM1288.66 626.595V628.095H1292.28L1289.73 625.536L1288.66 626.595ZM1135.34 626.595L1134.28 625.536L1131.73 628.095H1135.34V626.595ZM1147.43 614.469V612.969H1146.81L1146.37 613.41L1147.43 614.469ZM1276.58 614.469L1275.51 615.528L1287.6 627.654L1288.66 626.595L1289.73 625.536L1277.64 613.41L1276.58 614.469ZM1288.66 626.595V625.095H1135.34V626.595V628.095H1288.66V626.595ZM1135.34 626.595L1136.41 627.654L1148.49 615.528L1147.43 614.469L1146.37 613.41L1134.28 625.536L1135.34 626.595ZM1147.43 614.469V615.969H1276.58V614.469V612.969H1147.43V614.469Z" fill="black"/>
<path d="M1281.4 585.367L1286.23 595.068L1281.4 604.77H1142.59L1137.76 595.068L1142.59 585.367H1281.4Z" fill="#EB7333"/>
<path d="M1281.4 585.367L1282.74 584.698L1282.33 583.867H1281.4V585.367ZM1286.23 595.068L1287.58 595.738L1287.91 595.068L1287.58 594.399L1286.23 595.068ZM1281.4 604.77V606.27H1282.33L1282.74 605.439L1281.4 604.77ZM1142.59 604.77L1141.25 605.439L1141.67 606.27H1142.59V604.77ZM1137.76 595.068L1136.42 594.399L1136.08 595.068L1136.42 595.738L1137.76 595.068ZM1142.59 585.367V583.867H1141.67L1141.25 584.698L1142.59 585.367ZM1281.4 585.367L1280.06 586.036L1284.89 595.738L1286.23 595.068L1287.58 594.399L1282.74 584.698L1281.4 585.367ZM1286.23 595.068L1284.89 594.399L1280.06 604.1L1281.4 604.77L1282.74 605.439L1287.58 595.738L1286.23 595.068ZM1281.4 604.77V603.27H1142.59V604.77V606.27H1281.4V604.77ZM1142.59 604.77L1143.94 604.1L1139.1 594.399L1137.76 595.068L1136.42 595.738L1141.25 605.439L1142.59 604.77ZM1137.76 595.068L1139.1 595.738L1143.94 586.036L1142.59 585.367L1141.25 584.698L1136.42 594.399L1137.76 595.068ZM1142.59 585.367V586.867H1281.4V585.367V583.867H1142.59V585.367Z" fill="black"/>
<path d="M1301.76 626.598L1308 636.299L1301.76 646H1122.24L1116 636.299L1122.24 626.598H1301.76Z" fill="#EB7333"/>
<path d="M1301.76 626.598L1303.02 625.786L1302.58 625.098H1301.76V626.598ZM1308 636.299L1309.26 637.11L1309.78 636.299L1309.26 635.487L1308 636.299ZM1301.76 646V647.5H1302.58L1303.02 646.811L1301.76 646ZM1122.24 646L1120.98 646.811L1121.42 647.5H1122.24V646ZM1116 636.299L1114.74 635.487L1114.22 636.299L1114.74 637.11L1116 636.299ZM1122.24 626.598V625.098H1121.42L1120.98 625.786L1122.24 626.598ZM1301.76 626.598L1300.5 627.409L1306.74 637.11L1308 636.299L1309.26 635.487L1303.02 625.786L1301.76 626.598ZM1308 636.299L1306.74 635.487L1300.5 645.189L1301.76 646L1303.02 646.811L1309.26 637.11L1308 636.299ZM1301.76 646V644.5H1122.24V646V647.5H1301.76V646ZM1122.24 646L1123.5 645.189L1117.26 635.487L1116 636.299L1114.74 637.11L1120.98 646.811L1122.24 646ZM1116 636.299L1117.26 637.11L1123.5 627.409L1122.24 626.598L1120.98 625.786L1114.74 635.487L1116 636.299ZM1122.24 626.598V628.098H1301.76V626.598V625.098H1122.24V626.598Z" fill="black"/>
<mask id="path-52-outside-1_1391_12328" maskUnits="userSpaceOnUse" x="-605" y="639" width="2987" height="1437" fill="black">
<rect fill="white" x="-605" y="639" width="2987" height="1437"/>
<path d="M1319 646L2368 2069H-591L458 646H1319Z"/>
</mask>
<path d="M1319 646L2368 2069H-591L458 646H1319Z" fill="#170800"/>
<path d="M1319 646L1324.63 641.846L1322.54 639H1319V646ZM2368 2069V2076H2381.86L2373.63 2064.84L2368 2069ZM-591 2069L-596.634 2064.84L-604.857 2076H-591V2069ZM458 646V639H454.464L452.366 641.846L458 646ZM1319 646L1313.37 650.154L2362.37 2073.15L2368 2069L2373.63 2064.84L1324.63 641.846L1319 646ZM2368 2069V2062H-591V2069V2076H2368V2069ZM-591 2069L-585.366 2073.15L463.634 650.154L458 646L452.366 641.846L-596.634 2064.84L-591 2069ZM458 646V653H1319V646V639H458V646Z" fill="#EB7333" mask="url(#path-52-outside-1_1391_12328)"/>
</g>
<defs>
<filter id="filter0_d_1391_12328" x="0" y="0" width="1776" height="1549" filterUnits="userSpaceOnUse" color-interpolation-filters="sRGB">
<feFlood flood-opacity="0" result="BackgroundImageFix"/>
<feColorMatrix in="SourceAlpha" type="matrix" values="0 0 0 0 0 0 0 0 0 0 0 0 0 0 0 0 0 0 127 0" result="hardAlpha"/>
<feOffset dy="4"/>
<feGaussianBlur stdDeviation="2"/>
<feComposite in2="hardAlpha" operator="out"/>
<feColorMatrix type="matrix" values="0 0 0 0 0 0 0 0 0 0 0 0 0 0 0 0 0 0 0.25 0"/>
<feBlend mode="normal" in2="BackgroundImageFix" result="effect1_dropShadow_1391_12328"/>
<feBlend mode="normal" in="SourceGraphic" in2="effect1_dropShadow_1391_12328" result="shape"/>
</filter>
<clipPath id="clip0_1391_12328">
<rect width="1768" height="1541" fill="white" transform="translate(4)"/>
</clipPath>
</defs>
</svg>
