<svg width="1601" height="1046" viewBox="0 0 1601 1046" fill="none" xmlns="http://www.w3.org/2000/svg">
<g clip-path="url(#clip0_1314_7667)">
<path d="M1904.95 -85.0977L1905.33 -79.5039L1981.16 1037.49L1981.49 1042.41L1976.73 1043.69L1673.42 1125.42L1672.69 1125.62L1671.94 1125.63L-1.74121 1149.9L-22.1885 1150.2L-5.14258 1138.9L227.3 984.85L228.142 984.292L229.119 984.04L508.148 912.216L510.972 911.489L513.288 913.259L527.027 923.76L605.375 880.574L609.991 878.03L613.109 882.279L621.278 893.413L679.921 870.339L680.979 869.922H692.671L744.477 822.459L747.58 819.616L751.31 821.566L779.69 836.403L892.056 727.956L893.8 726.273H951.765L974.097 614.199L976.098 604.16L983.879 610.811L1012.67 635.413L1049.17 574.159L1052.93 567.85L1058.36 572.793L1085.56 597.546L1142.21 477.41L1107.76 309.634L1039.08 236.052L1036.93 240.519L1033.89 246.853L1028.11 242.856L940.851 182.514L929.977 195.08V234.194L921.871 231.156L834.644 198.464L830.749 197.004V122.84L831.591 121.422L891.064 21.3633L892.521 18.9131L895.34 18.4941L1591.68 -85.0322L1592.12 -85.0977H1904.95Z" fill="#EB7333" stroke="#EB7333" stroke-width="12"/>
<mask id="mask0_1314_7667" style="mask-type:alpha" maskUnits="userSpaceOnUse" x="-16" y="-84" width="1996" height="1233">
<path d="M1901.21 -81.0977L1901.34 -79.2334L1977.17 1037.76L1977.28 1039.4L1975.69 1039.83L1672.38 1121.56L1672.14 1121.63L1671.89 1121.63L-1.79883 1145.9L-8.61523 1146L-2.93262 1142.24L229.51 988.184L229.79 987.998L230.116 987.914L509.146 916.09L510.087 915.848L510.859 916.438L526.672 928.523L607.306 884.077L608.845 883.229L609.884 884.646L619.875 898.264L681.386 874.062L681.738 873.922H694.226L747.179 825.408L748.213 824.461L749.456 825.111L780.393 841.284L894.834 730.834L895.415 730.273H955.046L978.02 614.981L978.687 611.635L981.28 613.852L1013.67 641.535L1052.61 576.207L1053.86 574.104L1055.67 575.752L1086.87 604.146L1146.4 477.912L1111.45 307.727L1038.01 229.042L1033.33 238.787L1032.31 240.898L1030.39 239.566L940.175 177.182L925.977 193.591V228.423L923.275 227.41L836.047 194.718L834.749 194.231V123.938L835.029 123.466L894.503 23.4072L894.988 22.5898L895.929 22.4502L1592.26 -81.0762L1592.41 -81.0977H1901.21Z" fill="#EB7333" stroke="#EB7333" stroke-width="4"/>
</mask>
<g mask="url(#mask0_1314_7667)">
<path d="M925.672 227.902L883.672 176.402V147.402L903.172 176.402V147.402L918.672 137.902L903.172 115.402H929.172L918.672 100.902L1032.17 115.402L964.172 74.4023H1008.67V48.4023L1087.67 31.4023L1243.17 127.402L1286.67 499.402L1108.17 755.902L1087.67 730.902L1068.67 765.402L1032.17 730.902L1008.67 801.902L934.672 807.902L820.172 963.402L767.672 931.902L635.172 982.902L608.172 963.402L489.672 1015.4L451.172 992.902L166.172 1121.4L-5.32812 1177.9V831.902L1108.17 306.402L1038.67 225.402L1032.17 237.402L945.172 176.402L929.172 193.402L925.672 227.902Z" fill="#170800"/>
</g>
<path d="M1137.71 824.21L1097.95 790.813L1075.68 841.703L1045.08 806.25L1032.75 841.703H951.639L841.906 1009.07L748.187 975.893L634.492 1017.05L598.233 993.852L502.359 1036.25L460.144 1028.43L449.898 1046.18H1636.72L1618.91 944.931L1690.71 532.081L1740.53 294.086L1714.16 -63.7891L1303.43 -0.196983L1433.49 88.8465L1505.59 193.603L1406.4 146.583L1449.75 241.421L1474.14 498.836L1433.49 463.61L1449.75 590.961L1376.59 726.445L1335.95 672.252L1303.43 756.25L1265.5 726.445L1238.4 810.441L1208.6 756.25L1137.71 824.21Z" fill="#170800" stroke="#170800"/>
</g>
<defs>
<clipPath id="clip0_1314_7667">
<rect width="1601" height="1046" fill="white"/>
</clipPath>
</defs>
</svg>
