<svg width="669" height="827" viewBox="0 0 669 827" fill="none" xmlns="http://www.w3.org/2000/svg">
<path d="M141.756 394.139L164.42 389.191L178.45 404.367L174.286 435.758L164.42 441.524L159.551 429.352H153.145L145.777 440.243H136.809L141.756 394.139Z" fill="#EB7333" stroke="#180900" stroke-width="3.528"/>
<path d="M140.973 444.945L152.915 426.829L166.852 423.645L164.861 431.607L161.477 447.731L170.207 448.593L163.866 464.65L158.707 464.295L50.9167 642.772L3.54297 684.71L19.8543 631.899L126.947 462.11L120.473 461.664L129.418 443.322L140.973 444.945Z" fill="#EB7333"/>
<path d="M140.973 444.945L152.915 426.829L166.852 423.645L164.861 431.607L161.477 447.731M140.973 444.945L161.477 447.731M140.973 444.945L129.418 443.322L120.473 461.664L126.947 462.11M161.477 447.731L170.207 448.593L163.866 464.65L158.707 464.295M126.947 462.11L19.8543 631.899L3.54297 684.71L50.9167 642.772L158.707 464.295M126.947 462.11L158.707 464.295" stroke="#180900" stroke-width="3.528"/>
<path d="M502.862 113.154L448.881 145.113L399.879 225.369L474.452 376.647L560.39 383.749L629.991 348.238L666.923 281.477L657.69 188.438L595.901 125.938L502.862 113.154Z" fill="#170800" stroke="#EB7333" stroke-width="3.528"/>
<path d="M326.636 151.456L365.21 68.8027L393.713 136.893L421.941 142.039L455.066 169.168L478.111 174.594V210.342L485.04 235.686L496.587 251.449L539.541 226.97L564.945 192.791V176.163L574.623 163.199L592.842 161.558L608.763 187.327L590.81 210.342L573.259 251.449L530.304 290.247L489.658 312.785L475.404 304.104V344.158L494.17 445.12L515.133 596.227L507.699 619.381L529.981 704.534L541.336 808.474L563.172 825.243H507.699V754.772L466.539 683.481L475.404 602.429L439.944 562.782V534.04L413.981 469.452L396.082 461.766L355.154 543.61L349.526 572.956L310.778 619.381L305.783 667.101L237.534 779.187V825.243H179.824L207.571 786.401L213.672 754.772L228.099 644.35L274.71 607.728L281.923 562.782L305.783 482.879L349.619 344.158L344.398 312.785L304.602 284.492V235.686L270.753 271.897L240.839 338.021L219.582 317.554L236.116 253.005L255.007 235.686L262.088 173.498L326.636 151.456Z" fill="#EB7333" stroke="#180900" stroke-width="3.528"/>
<path d="M387.224 121.457L377.786 140.169L389.23 155.336L346.28 155.466L321.15 165.969L338.67 129.299L351.557 103.612L358.019 91.0552L369.775 68.7074L407.935 56.7716L429.74 60.9413L439.811 85.5638L434.249 96.7412L429.399 100.979L426.43 106.503L431.241 116.412L419.554 122.087L405.608 137.335L387.224 121.457Z" fill="#EB7333"/>
<path d="M357.962 34.402L361.437 42.8117L368.981 28.0173L369.4 27.194L370.315 27.0702L406.165 22.2101L411.759 21.451L407.591 25.2604L402.831 29.6106L422.279 28.2708L422.838 28.2328L423.316 28.5235L452.78 46.447L456.602 48.7719L452.221 49.6809L441.297 51.9472L446.879 53.9444L447.876 54.3006L448.029 55.3484L450.036 68.9882L455.218 76.9208L458.268 81.5899L453.088 79.5239L447.233 77.1894L443.528 88.5558L442.471 91.7957L440.436 89.0627L433.622 79.9149L433.245 79.4087L433.274 78.7779L433.44 75.27L427.941 71.2302L427.358 83.5283L427.22 86.4429L424.703 84.9662L417.5 80.7384L411.846 85.6538L409.212 87.9446L409.426 88.3856L408.484 89.2739L398.98 98.2383L396.351 100.718L396.013 97.1201L395.472 91.3569L393.154 86.5832L393.109 86.401L391.732 80.7939L388.879 77.1666L382.491 78.3685L377.88 87.7139L380.524 94.5708L389.648 98.897L391.151 99.609L390.529 101.151L387.117 109.601L385.975 112.43L384.093 110.029L378.753 103.219L374.056 112.254L373.432 113.452L372.112 113.163L364.54 111.501L363.014 118.663L362.529 120.938L360.469 119.857L351.74 115.275L351.381 115.087L351.141 114.762L343.574 104.533L343.042 103.815L343.307 102.962L348.168 87.2956L351 67.5175L345.535 56.2614L345.844 55.5264L354.706 34.3938L356.344 30.4859L357.962 34.402ZM409.048 87.6063L408.926 84.3903L408.663 77.4476L405.054 77.5842L404.348 77.9271L409.048 87.6063Z" fill="#180900" stroke="#EB7333" stroke-width="3.528"/>
<path d="M402.718 214.72V138.85H428.51L460.74 158.815L504.379 157.389L460.74 224.176L472.668 258.916L479.159 297.242V345.218L498.193 398.812L502.701 451.906L498.193 467.934L482.666 441.888L449.106 476.291H437.085L413.055 502.645L388.343 494.645L307.915 496.309L300.905 476.291L278.387 471.287L307.915 437.257L347.656 342.432L342.846 329.858L359.395 325.516L386.382 290.004L402.718 214.72Z" fill="#EB7333"/>
<path d="M460.74 224.176L504.379 157.389L460.74 158.815L428.51 138.85H402.718V214.72L386.382 290.004L359.395 325.516L342.846 329.858L347.656 342.432L307.915 437.257L278.387 471.287L300.905 476.291L307.915 496.309L388.343 494.645L413.055 502.645L437.085 476.291H449.106L482.666 441.888L498.193 467.934L502.701 451.906L498.193 398.812L479.159 345.218V297.242L472.668 258.916L460.74 224.176ZM460.74 224.176L437.085 192.488" stroke="#180900" stroke-width="3.528"/>
<path d="M242.236 319.193V344.499L176.758 407.967L163.102 387.882L215.32 303.527H232.194L242.236 319.193Z" fill="#EB7333" stroke="#180900" stroke-width="3.528"/>
</svg>
