<svg width="604" height="510" viewBox="0 0 604 510" fill="none" xmlns="http://www.w3.org/2000/svg">
<path d="M371.4 210.453L366.734 222.408L328.828 202.289L335.826 179.836L344.865 164.966L361.194 154.76L376.065 153.594L387.729 161.175L391.519 170.214L392.685 178.67L390.353 187.126L394.143 194.999L387.729 197.04L381.022 215.41L371.4 210.453Z" fill="#180900" stroke="#EB7333" stroke-width="2.33269"/>
<path d="M328.099 135.153L331.07 142.342L337.245 130.233L337.489 129.753L338.023 129.68L365.786 125.917L369.049 125.474L366.618 127.696L362.217 131.717L378.243 130.612L378.569 130.591L378.849 130.76L401.665 144.64L403.895 145.996L401.34 146.527L391.706 148.525L397.157 150.477L397.739 150.684L397.828 151.295L399.394 161.931L403.447 168.137L405.226 170.86L402.205 169.655L397.337 167.713L394.355 176.858L393.739 178.747L392.552 177.154L387.275 170.069L387.055 169.774L387.073 169.406L387.209 166.509L382.297 162.901L381.816 173.053L381.736 174.753L380.268 173.891L374.481 170.495L369.919 174.461L368.298 175.871L368.216 173.724L367.999 168.01L364.798 168.132L363.883 168.576L367.854 176.755L367.305 177.274L359.945 184.216L358.412 185.662L358.215 183.565L357.789 179.039L355.983 175.32L355.958 175.214L354.873 170.8L352.492 167.773L347.179 168.773L343.468 176.295L345.617 181.868L352.805 185.276L353.682 185.692L353.319 186.591L350.677 193.134L350.011 194.784L348.913 193.384L344.455 187.698L340.575 195.159L340.211 195.859L339.442 195.69L333.245 194.33L331.993 200.209L331.71 201.536L330.509 200.904L323.749 197.357L323.54 197.247L323.4 197.057L317.54 189.136L317.23 188.718L317.384 188.219L321.157 176.058L323.368 160.615L319.158 151.943L319.337 151.514L326.2 135.148L327.156 132.87L328.099 135.153Z" fill="#EB7333" stroke="#180900" stroke-width="2.05743"/>
<path d="M406.681 241.944L384.812 235.529L399.975 278.684L424.76 287.318H448.67L462.666 297.054L481.036 294.721L503.488 301.428L509.611 288.89L485.993 276.935L471.997 267.604L450.711 265.854L441.089 259.439L415.137 252.441L406.681 241.944Z" fill="#180900"/>
<path d="M442.547 283.058L448.67 287.318M448.67 287.318L462.666 297.054L481.036 294.721L503.488 301.428L509.611 288.89L485.993 276.935L471.997 267.604L450.711 265.854L441.089 259.439L415.137 252.441L406.681 241.944L384.812 235.529L399.975 278.684L424.76 287.318H448.67Z" stroke="#EB7333" stroke-width="2.33269"/>
<path d="M194.405 93.5265L0.5 1.09375L159.414 59.9941L153 36.0841L603.5 255.648L190.031 73.6987L194.405 93.5265Z" fill="#180900" stroke="#EB7333" stroke-width="2.33269"/>
<path d="M216.27 175.754L218.02 111.022L201.399 93.527L204.607 68.7422L230.558 82.4467L229.1 90.9027L233.474 99.6503V111.022L247.47 163.216V170.506L270.505 175.754L286.834 184.502H310.161L336.112 206.371L366.437 221.825L396.179 242.527L406.967 265.854L402.01 279.559L392.68 282.475L386.848 327.671L365.271 414.563L320.366 473.464L294.124 507.871L272.838 503.497L188.278 429.726L150.663 410.189L129.086 403.775L129.378 396.485L154.454 390.945L174.865 398.234L192.652 395.027L206.648 400.276L201.691 414.563L238.431 436.432L265.257 441.972L280.711 466.466L286.834 455.677V429.726L294.124 410.189L308.12 384.238L326.198 311.633L303.163 275.768L286.834 257.982L282.46 228.531H275.754L259.425 216.868L230.558 196.748L216.27 175.754Z" fill="#180900" stroke="#EB7333" stroke-width="2.33269"/>
<path d="M346.613 391.82L332.909 386.28L316.288 373.45L321.828 333.211L386.852 329.129L446.919 355.955L478.702 380.448L509.901 433.517L492.989 452.761H468.788L460.04 445.472L369.357 427.102L321.828 428.268L287.13 433.517L284.797 429.726L313.081 407.274L374.314 405.816L375.772 408.732L404.056 407.274L367.899 391.82H346.613Z" fill="#180900"/>
<path d="M404.056 407.274L367.899 391.82H346.613L332.909 386.28L316.288 373.45L321.828 333.211L386.852 329.129L446.919 355.955L478.702 380.448L509.901 433.517L492.989 452.761H468.788L460.04 445.472L369.357 427.102L321.828 428.268L287.13 433.517L284.797 429.726L313.081 407.274L374.314 405.816L375.772 408.732L404.056 407.274ZM404.056 407.274L446.919 397.068L471.995 405.816L481.034 433.517" stroke="#EB7333" stroke-width="2.33269"/>
<path d="M390.058 322.714L422.715 344.583L388.017 329.712L374.895 331.753L360.024 356.538V361.495H351.568L336.114 368.785L338.447 376.074L331.449 378.99L334.073 387.446L320.369 403.483L290.918 390.362L273.132 391.528L268.758 368.785L284.503 364.119L301.415 350.998L317.744 329.712L301.415 327.379L310.746 313.383H325.034L346.028 303.178L360.024 311.634L366.148 309.884L374.895 316.882H378.394L383.351 322.714H390.058Z" fill="#180900"/>
<path d="M374.895 316.882H378.394L383.351 322.714H390.058L422.715 344.583L388.017 329.712L374.895 331.753L360.024 356.538V361.495H351.568L336.114 368.785L338.447 376.074L331.449 378.99L334.073 387.446L320.369 403.483L290.918 390.362M374.895 316.882L378.394 321.256M374.895 316.882L366.148 309.884L360.024 311.634M360.024 311.634L369.647 316.882M360.024 311.634L346.028 303.178L325.034 313.383H310.746L301.415 327.379L317.744 329.712L301.415 350.998L284.503 364.119L268.758 368.785M268.758 368.785L273.132 391.528L290.918 390.362M268.758 368.785L284.503 378.99L290.918 390.362" stroke="#EB7333" stroke-width="2.33269"/>
</svg>
